<svg width="200" height="200" viewBox="0 0 200 200" fill="none" xmlns="http://www.w3.org/2000/svg">
<mask id="mask0_5103_36607" style="mask-type:luminance" maskUnits="userSpaceOnUse" x="0" y="0" width="200" height="200">
<path d="M200 0H0V200H200V0Z" fill="white"/>
</mask>
<g mask="url(#mask0_5103_36607)">
<path d="M166.689 87.2645C163.885 96.8258 161.21 106.311 158.476 115.835C157.113 120.567 155.652 125.489 152.661 128.917C148.673 133.482 142.816 134.46 137.358 134.781C129.462 135.262 52.9262 135.706 48.8787 134.781C43.9827 133.65 36.7045 129.539 35.076 122.908C34.0859 118.904 36.0928 114.722 38.4512 111.846C46.7078 101.778 26.8824 67.5943 34.8171 54.4055C50.0611 29.0677 109.336 65.9533 154.995 52.8479C163.959 50.2754 172.94 65.9543 166.689 87.2645Z" fill="url(#paint0_linear_5103_36607)"/>
<path d="M168.832 158.335C163.784 170.753 111.186 161.925 104.977 160.08C104.969 160.077 104.962 160.075 104.954 160.073C103.577 159.66 102.117 159.596 100.712 159.912C92.12 161.846 81.9707 163.191 72.3838 163.191C49.2803 163.191 38.1803 155.377 38.1803 150.361C38.1803 148.809 43.0424 149.395 43.1211 146.07C43.2158 142.246 36.116 141.583 35.0312 138.834C33.1715 134.114 64.5224 134.269 64.5224 134.269H122.993C122.993 134.269 165.52 133.049 168.215 138.378C170.905 143.711 147.415 145.996 147.415 145.996C147.415 145.996 171.162 152.605 168.832 158.335Z" fill="url(#paint1_linear_5103_36607)"/>
<path d="M135.286 63.5151V140.068C135.286 141.647 134.006 142.923 132.431 142.923H71.5219C69.9462 142.923 68.667 141.647 68.667 140.068V63.5151C68.667 61.9364 69.9462 60.6602 71.5219 60.6602H132.431C134.006 60.6602 135.286 61.9364 135.286 63.5151Z" fill="#B2C7FF"/>
<path d="M71.5742 138.716V64.8672C71.5742 64.1488 72.1566 63.5664 72.875 63.5664H131.078C131.796 63.5664 132.379 64.1485 132.379 64.8672V138.716C132.379 139.435 131.796 140.017 131.078 140.017H72.8753C72.1566 140.017 71.5742 139.435 71.5742 138.716Z" fill="white"/>
<path d="M113.353 59.4046V66.3153C113.353 66.7803 112.975 67.1585 112.51 67.1585H91.443C90.978 67.1585 90.6001 66.7803 90.6001 66.3153V59.4046C90.6001 58.9393 90.978 58.5614 91.443 58.5614H98.4761C98.8948 57.0206 100.302 55.8867 101.976 55.8867C103.651 55.8867 105.058 57.0206 105.477 58.5614H112.51C112.975 58.5614 113.353 58.9393 113.353 59.4046Z" fill="#373A50"/>
<path d="M103.947 59.5131C103.947 60.6011 103.064 61.4832 101.976 61.4832C100.888 61.4832 100.006 60.6011 100.006 59.5131C100.006 58.4251 100.888 57.543 101.976 57.543C103.064 57.543 103.947 58.4251 103.947 59.5131Z" fill="white"/>
<path d="M153.028 63.2135L151.54 63.2072C151.406 63.2053 151.283 63.1316 151.223 63.0131C151.091 62.7539 150.938 62.5039 150.765 62.2655C150.686 62.158 150.677 62.015 150.736 61.8961L151.404 60.5664C151.483 60.4086 151.437 60.2171 151.293 60.1133L149.826 59.0484C149.683 58.9446 149.486 58.9603 149.362 59.0843L148.305 60.1307C148.211 60.224 148.072 60.2595 147.944 60.2185C147.664 60.1283 147.379 60.0604 147.092 60.0152C146.96 59.9942 146.852 59.9001 146.809 59.7737L146.342 58.3609C146.286 58.1932 146.118 58.0905 145.943 58.1181L144.152 58.4025C143.978 58.4301 143.85 58.5804 143.849 58.7571L143.843 60.2467C143.842 60.3796 143.769 60.5027 143.649 60.5628C143.39 60.6948 143.14 60.8478 142.902 61.022C142.794 61.1003 142.651 61.1096 142.532 61.0503L141.2 60.3812C141.043 60.3019 140.851 60.3489 140.748 60.4912L139.683 61.9583C139.58 62.1006 139.595 62.2979 139.719 62.4227L140.768 63.481C140.861 63.5757 140.896 63.7147 140.856 63.8418C140.764 64.1223 140.696 64.4075 140.651 64.6948C140.631 64.827 140.536 64.9342 140.41 64.9766L138.996 65.4443C138.828 65.5001 138.725 65.6685 138.753 65.8429L139.038 67.6335C139.065 67.8079 139.215 67.936 139.392 67.937L140.88 67.9435C141.014 67.9454 141.137 68.0189 141.197 68.1375C141.329 68.3967 141.482 68.6466 141.655 68.8851C141.733 68.9933 141.742 69.1364 141.683 69.2552L141.016 70.5841C140.937 70.7412 140.983 70.933 141.126 71.0368L142.593 72.1015C142.736 72.2053 142.933 72.19 143.058 72.0664L144.115 71.0192C144.21 70.9259 144.349 70.8905 144.475 70.9322C144.756 71.0224 145.041 71.0903 145.328 71.1355C145.46 71.1564 145.568 71.2502 145.611 71.3769L146.078 72.7898C146.134 72.9575 146.302 73.0602 146.477 73.0326L148.267 72.7482C148.442 72.7206 148.57 72.5701 148.571 72.3935L148.578 70.9046C148.579 70.7712 148.653 70.6473 148.771 70.5869C149.03 70.4549 149.28 70.3027 149.519 70.1291C149.626 70.0501 149.769 70.041 149.888 70.1002L151.219 70.7695C151.377 70.8488 151.569 70.8016 151.672 70.6593L152.737 69.1923C152.84 69.0499 152.825 68.8526 152.701 68.7278L151.652 67.6697C151.559 67.575 151.523 67.4359 151.565 67.3092C151.656 67.028 151.724 66.744 151.769 66.4567C151.79 66.3253 151.884 66.2161 152.011 66.1745L153.424 65.7063C153.592 65.6505 153.695 65.482 153.667 65.3076L153.383 63.517C153.355 63.3426 153.205 63.2145 153.028 63.2135ZM149.196 67.7423C148 69.3909 145.692 69.759 144.041 68.5607C142.394 67.3649 142.028 65.0569 143.224 63.4083C144.42 61.7596 146.728 61.3921 148.376 62.5879C150.027 63.7862 150.392 66.0937 149.196 67.7423Z" fill="url(#paint2_linear_5103_36607)"/>
<path d="M155.84 60.6L155.733 59.9538C155.724 59.8957 155.747 59.8371 155.794 59.802C155.897 59.7257 155.994 59.6407 156.085 59.5483C156.126 59.5061 156.187 59.4918 156.243 59.5089L156.869 59.7011C156.943 59.7237 157.023 59.6897 157.058 59.6199L157.412 58.9049C157.447 58.8351 157.426 58.7512 157.363 58.7061L156.831 58.3244C156.784 58.2903 156.758 58.2325 156.766 58.1742C156.785 58.0459 156.794 57.9171 156.792 57.7891C156.792 57.7306 156.825 57.6769 156.876 57.6489L157.455 57.3424C157.524 57.306 157.556 57.2251 157.531 57.1516L157.276 56.3953C157.252 56.3218 157.177 56.2772 157.1 56.2897L156.453 56.3961C156.396 56.4052 156.337 56.3829 156.302 56.3354C156.226 56.2326 156.141 56.1354 156.048 56.0448C156.006 56.0036 155.991 55.9421 156.008 55.8862L156.201 55.2595C156.224 55.1854 156.19 55.1052 156.12 55.0709L155.406 54.7165C155.336 54.6821 155.252 54.7031 155.207 54.7661L154.824 55.2989C154.79 55.3463 154.732 55.3716 154.674 55.3633C154.546 55.344 154.417 55.3357 154.289 55.3372C154.23 55.3383 154.177 55.3048 154.149 55.2533L153.842 54.6737C153.806 54.6051 153.725 54.5726 153.651 54.5975L152.895 54.8526C152.822 54.8775 152.777 54.9518 152.79 55.0285L152.896 55.6749C152.905 55.733 152.882 55.7917 152.835 55.8267C152.732 55.903 152.635 55.9878 152.544 56.0802C152.503 56.1222 152.441 56.1367 152.385 56.1196L151.76 55.9274C151.686 55.9044 151.606 55.9384 151.571 56.0082L151.217 56.7233C151.182 56.793 151.204 56.8772 151.266 56.9226L151.798 57.3045C151.846 57.3386 151.871 57.3965 151.862 57.4544C151.844 57.5827 151.835 57.7114 151.837 57.8394C151.837 57.8978 151.804 57.9516 151.753 57.9796L151.174 58.2863C151.105 58.3227 151.073 58.4034 151.098 58.4769L151.353 59.2332C151.377 59.3067 151.452 59.3514 151.529 59.3389L152.175 59.2328C152.233 59.2233 152.293 59.2463 152.327 59.2932C152.404 59.396 152.488 59.4932 152.581 59.5843C152.623 59.6251 152.638 59.6865 152.62 59.7424L152.428 60.3694C152.405 60.4435 152.439 60.5232 152.509 60.5576L153.223 60.912C153.293 60.9464 153.377 60.9254 153.423 60.8624L153.805 60.3296C153.839 60.2821 153.897 60.2567 153.955 60.2655C154.084 60.2844 154.212 60.2926 154.34 60.2912C154.398 60.2906 154.453 60.3238 154.48 60.3757L154.787 60.9548C154.823 61.0234 154.904 61.0558 154.978 61.031L155.734 60.7762C155.807 60.7514 155.852 60.6767 155.84 60.6ZM153.667 59.1194C152.947 58.7621 152.652 57.888 153.01 57.1664C153.367 56.4463 154.241 56.1519 154.962 56.5091C155.682 56.8664 155.977 57.7408 155.62 58.4609C155.262 59.1826 154.388 59.4767 153.667 59.1194Z" fill="url(#paint3_linear_5103_36607)"/>
<g opacity="0.33425">
<path d="M118.328 92.2595C118.328 93.1077 117.64 93.796 116.792 93.796C115.943 93.796 115.255 93.1077 115.255 92.2595C115.255 91.4141 115.943 90.7227 116.792 90.7227C117.64 90.7227 118.328 91.4141 118.328 92.2595Z" fill="#FF4129"/>
<path d="M116.79 89.8627C116.086 89.8627 115.509 89.3107 115.478 88.6062L115.013 78.7249C114.967 77.7121 115.774 76.8633 116.792 76.8633C117.774 76.8633 118.574 77.6625 118.574 78.6449V78.7113L118.106 88.6062C118.071 89.3113 117.494 89.8627 116.79 89.8627Z" fill="#FF4129"/>
</g>
<path d="M116.207 130.789H88.6367C88.6367 123.176 94.809 117.004 102.422 117.004C110.035 117.004 116.207 123.176 116.207 130.789Z" fill="#D1DEFF"/>
<path d="M114.314 110.185L110.365 117.023C108.028 115.67 105.316 114.893 102.422 114.893V107C106.754 107 110.817 108.16 114.314 110.185Z" fill="#EEEEEE"/>
<path d="M126.207 130.783H118.314C118.314 127.888 117.534 125.176 116.183 122.84L123.022 118.891C125.046 122.388 126.207 126.451 126.207 130.783Z" fill="#EEEEEE"/>
<path d="M88.6577 122.84C87.3044 125.176 86.5273 127.888 86.5273 130.783H78.6343C78.6343 126.451 79.7948 122.388 81.8196 118.891L88.6577 122.84Z" fill="#EEEEEE"/>
<path d="M123.021 118.891L116.183 122.84C114.787 120.427 112.778 118.418 110.365 117.022L114.314 110.184C117.924 112.272 120.933 115.28 123.021 118.891Z" fill="#EEEEEE"/>
<path d="M102.422 107V114.893C99.5247 114.893 96.8127 115.67 94.4759 117.023L90.5269 110.185C94.0239 108.16 98.0866 107 102.422 107Z" fill="#EEEEEE"/>
<path d="M94.4761 117.022C92.0628 118.418 90.0537 120.427 88.658 122.84L81.8198 118.891C83.9081 115.28 86.9164 112.272 90.527 110.184L94.4761 117.022Z" fill="#EEEEEE"/>
<path d="M114.314 110.185L110.365 117.023C108.028 115.67 105.316 114.893 102.422 114.893V107C106.754 107 110.817 108.16 114.314 110.185Z" fill="#EAC250"/>
<path d="M126.207 130.783H118.314C118.314 127.888 117.534 125.176 116.183 122.84L123.022 118.891C125.046 122.388 126.207 126.451 126.207 130.783Z" fill="#E24067"/>
<path d="M88.6577 122.84C87.3044 125.176 86.5273 127.888 86.5273 130.783H78.6343C78.6343 126.451 79.7948 122.388 81.8196 118.891L88.6577 122.84Z" fill="#3DCFA4"/>
<path d="M123.021 118.891L116.183 122.84C114.787 120.427 112.778 118.418 110.365 117.022L114.314 110.184C117.924 112.272 120.933 115.28 123.021 118.891Z" fill="#F34B6D"/>
<path d="M102.422 107V114.893C99.5247 114.893 96.8127 115.67 94.4759 117.023L90.5269 110.185C94.0239 108.16 98.0866 107 102.422 107Z" fill="#FADF68"/>
<path d="M94.4761 117.022C92.0628 118.418 90.0537 120.427 88.658 122.84L81.8198 118.891C83.9081 115.28 86.9164 112.272 90.527 110.184L94.4761 117.022Z" fill="#30BB93"/>
<path d="M99.8282 127.984C100.634 126.548 102.45 126.037 103.886 126.842C105.322 127.648 105.833 129.464 105.028 130.9C104.223 132.336 102.406 132.847 100.97 132.042C99.5339 131.236 99.0228 129.42 99.8282 127.984Z" fill="#111228"/>
<path d="M101.391 127.391L101.55 131.557L85.0769 130.053L101.391 127.391Z" fill="#111228"/>
<path d="M80.4811 134.979H79.3782V133.019C79.3782 132.887 79.2697 132.783 79.1406 132.785C79.0139 132.787 78.9126 132.888 78.9126 133.019V135.149C78.9126 135.315 79.0467 135.444 79.2083 135.444H80.4811C80.6099 135.444 80.7155 135.344 80.7155 135.213C80.7155 135.084 80.6118 134.979 80.4811 134.979Z" fill="#B2C7FF"/>
<path d="M82.1556 132.766C81.3815 132.766 80.8431 133.299 80.8276 134.124C80.8428 134.938 81.3751 135.479 82.1556 135.479C82.9476 135.479 83.4682 134.92 83.4839 134.121C83.4684 133.343 82.9628 132.766 82.1556 132.766ZM82.1556 135.035C81.6135 135.035 81.2932 134.647 81.2932 134.123C81.2932 133.605 81.6055 133.21 82.1556 133.21C82.6962 133.21 83.0183 133.597 83.0183 134.123C83.0183 134.656 82.6887 135.035 82.1556 135.035Z" fill="#B2C7FF"/>
<path d="M86.7532 132.965L86.2175 134.726L85.6786 132.972C85.642 132.85 85.5271 132.78 85.409 132.787C85.3039 132.793 85.205 132.861 85.1719 132.972L84.633 134.726L84.097 132.964C84.0372 132.772 83.818 132.736 83.7028 132.852C83.6338 132.921 83.6311 133.005 83.6559 133.096L84.3591 135.257C84.4092 135.395 84.5175 135.465 84.6372 135.464C84.7615 135.463 84.8759 135.381 84.9143 135.254L85.4252 133.636L85.9356 135.253C85.973 135.378 86.0866 135.464 86.2138 135.464C86.3348 135.464 86.4404 135.395 86.4916 135.255L87.1956 133.093C87.2202 133.001 87.2135 132.918 87.1471 132.851C87.0287 132.733 86.8127 132.775 86.7532 132.965Z" fill="#B2C7FF"/>
<path d="M119.914 133.019V133.903H118.694V133.019C118.694 132.888 118.589 132.785 118.46 132.785C118.333 132.785 118.229 132.886 118.229 133.019V135.232C118.229 135.361 118.327 135.458 118.453 135.462C118.583 135.465 118.694 135.366 118.694 135.232V134.347H119.914V135.232C119.914 135.36 120.014 135.462 120.145 135.462C120.272 135.462 120.379 135.365 120.379 135.232V133.019C120.379 132.887 120.274 132.786 120.145 132.786C120.014 132.786 119.914 132.889 119.914 133.019Z" fill="#B2C7FF"/>
<path d="M120.936 133.019V135.232C120.936 135.361 121.037 135.462 121.166 135.462C121.296 135.462 121.401 135.362 121.401 135.232V133.019C121.401 132.888 121.295 132.786 121.168 132.785C121.04 132.784 120.936 132.886 120.936 133.019Z" fill="#B2C7FF"/>
<path d="M123.921 133.931H123.214C123.094 133.931 122.998 134.028 122.998 134.148C122.998 134.266 123.092 134.364 123.214 134.364H123.736V134.902C123.564 134.988 123.376 135.032 123.178 135.032C122.616 135.032 122.273 134.657 122.273 134.126C122.273 133.54 122.653 133.221 123.16 133.221C123.392 133.221 123.596 133.274 123.831 133.414C123.921 133.459 124.034 133.442 124.098 133.375C124.206 133.262 124.155 133.082 124.054 133.035C123.735 132.833 123.453 132.766 123.124 132.766C122.385 132.766 121.807 133.313 121.807 134.126C121.807 134.921 122.348 135.479 123.135 135.479C123.425 135.479 123.711 135.409 123.986 135.272C124.088 135.224 124.162 135.118 124.162 134.987V134.173C124.162 134.035 124.052 133.931 123.921 133.931Z" fill="#B2C7FF"/>
<path d="M126.587 132.786C126.458 132.786 126.356 132.888 126.356 133.019V133.903H125.137V133.019C125.137 132.884 125.025 132.78 124.893 132.785C124.77 132.79 124.671 132.89 124.671 133.019V135.231C124.671 135.36 124.77 135.457 124.894 135.462C125.024 135.466 125.137 135.368 125.137 135.231V134.347H126.356V135.231C126.356 135.36 126.457 135.462 126.588 135.462C126.715 135.462 126.822 135.365 126.822 135.231V133.019C126.822 132.887 126.716 132.786 126.587 132.786Z" fill="#B2C7FF"/>
<path d="M97.4044 102.219H97.274C97.1383 102.219 97.0226 102.307 96.969 102.428L96.1388 104.498L95.3074 102.426C95.2559 102.31 95.141 102.219 95.0034 102.219H94.8732C94.689 102.219 94.5474 102.37 94.5474 102.549V104.902C94.5474 105.041 94.6519 105.14 94.7778 105.148C94.918 105.157 95.0455 105.053 95.0455 104.902V103.021L95.8223 104.941C95.877 105.071 96.0034 105.149 96.1386 105.149C96.2746 105.149 96.4012 105.07 96.4554 104.94L97.2322 103.021V104.902C97.2322 105.042 97.3447 105.149 97.4828 105.149C97.6204 105.149 97.73 105.042 97.73 104.902V102.549C97.73 102.369 97.5876 102.219 97.4044 102.219Z" fill="#B2C7FF"/>
<path d="M100.127 104.005C100.127 103.414 99.7405 102.941 99.1189 102.941C98.4627 102.941 98.1069 103.441 98.1069 104.056C98.1069 104.773 98.532 105.17 99.1979 105.17C99.4776 105.17 99.6683 105.131 99.9224 104.987C100.099 104.885 100.088 104.709 99.9899 104.619C99.9181 104.553 99.8123 104.54 99.7307 104.581C99.5581 104.667 99.4117 104.696 99.2293 104.696C98.908 104.696 98.6856 104.56 98.6211 104.252H99.876C100.03 104.252 100.127 104.139 100.127 104.005ZM98.6168 103.821C98.6613 103.535 98.8827 103.384 99.1168 103.385C99.3627 103.386 99.5803 103.541 99.6248 103.821H98.6168Z" fill="#B2C7FF"/>
<path d="M101.967 102.344V103.152C101.789 103.011 101.586 102.94 101.362 102.94C100.817 102.94 100.338 103.377 100.338 104.055C100.338 104.734 100.818 105.169 101.362 105.169C101.589 105.169 101.793 105.097 101.972 104.953C101.993 105.059 102.089 105.145 102.209 105.149C102.348 105.153 102.465 105.049 102.465 104.902V102.344C102.465 102.2 102.351 102.09 102.209 102.094C102.082 102.098 101.967 102.195 101.967 102.344ZM101.967 104.441C101.821 104.592 101.629 104.695 101.414 104.695C101.077 104.695 100.837 104.485 100.837 104.055C100.837 103.624 101.077 103.415 101.414 103.415C101.63 103.415 101.822 103.518 101.967 103.668V104.441Z" fill="#B2C7FF"/>
<path d="M102.948 103.211V104.903C102.948 105.045 103.06 105.149 103.195 105.149C103.33 105.149 103.446 105.046 103.446 104.903V103.211C103.446 103.061 103.333 102.961 103.197 102.961C103.056 102.961 102.948 103.071 102.948 103.211Z" fill="#B2C7FF"/>
<path d="M103.211 102.152H103.187C103.046 102.152 102.917 102.26 102.917 102.439C102.917 102.589 103.038 102.709 103.187 102.709H103.211C103.354 102.709 103.482 102.601 103.482 102.423C103.482 102.271 103.358 102.152 103.211 102.152Z" fill="#B2C7FF"/>
<path d="M105.349 103.207V104.365C105.194 104.554 105.016 104.699 104.772 104.699C104.523 104.699 104.408 104.568 104.408 104.288V103.207C104.408 103.064 104.296 102.962 104.163 102.961C104.029 102.96 103.91 103.061 103.91 103.207V104.327C103.91 104.791 104.2 105.169 104.685 105.169C104.93 105.169 105.128 105.099 105.349 104.904C105.352 105.041 105.463 105.149 105.6 105.149C105.738 105.149 105.847 105.039 105.847 104.899V103.207C105.847 103.065 105.735 102.961 105.6 102.961C105.464 102.961 105.349 103.066 105.349 103.207Z" fill="#B2C7FF"/>
<path d="M108.758 102.941C108.455 102.941 108.214 103.056 108.041 103.281C107.916 103.079 107.705 102.941 107.429 102.941C107.165 102.941 106.997 103.017 106.827 103.185C106.815 103.059 106.705 102.96 106.571 102.963C106.435 102.966 106.331 103.074 106.331 103.212V104.904C106.331 105.049 106.445 105.149 106.577 105.15C106.71 105.15 106.828 105.049 106.828 104.904V103.741C107 103.467 107.157 103.412 107.327 103.412C107.543 103.412 107.659 103.492 107.659 103.839V104.904C107.659 105.049 107.773 105.149 107.906 105.15C108.041 105.15 108.157 105.046 108.157 104.904V103.741C108.329 103.467 108.485 103.412 108.655 103.412C108.872 103.412 108.988 103.494 108.988 103.839V104.904C108.988 105.046 109.099 105.15 109.235 105.15C109.37 105.15 109.486 105.047 109.486 104.904V103.768C109.486 103.335 109.231 102.941 108.758 102.941Z" fill="#B2C7FF"/>
<mask id="mask1_5103_36607" style="mask-type:luminance" maskUnits="userSpaceOnUse" x="-19" y="-21" width="219" height="221">
<path d="M-2.67029e-05 -0.000133514H200V200H-2.67029e-05V-0.000133514ZM-12.7835 -20.75C-15.9867 -20.75 -18.5835 -18.1721 -18.5835 -14.9919C-18.5835 -11.8116 -15.9867 -9.23347 -12.7835 -9.23347C-9.58029 -9.23347 -7.11683 -11.5836 -7.11683 -15.0001C-7.11683 -18.4001 -9.58029 -20.75 -12.7835 -20.75Z" fill="white"/>
</mask>
<g mask="url(#mask1_5103_36607)">
<path d="M94.6969 77.4918L87.1782 85.0105V74.375C90.1126 74.375 92.77 75.5649 94.6969 77.4918Z" fill="#EFEFEF"/>
<path d="M96.6305 89.8519L87.1782 85.0109L94.6969 77.4922C97.9484 80.7439 98.751 85.7447 96.6305 89.8519Z" fill="#EFEFEF"/>
<path d="M96.6305 89.8528C94.8726 93.2877 91.3025 95.6405 87.1782 95.6405V85.0117L96.6305 89.8528Z" fill="#EFEFEF"/>
<path d="M87.1781 85.0117V95.6405C81.3093 95.6405 76.5493 90.8805 76.5493 85.0117H87.1781Z" fill="#EFEFEF"/>
<path d="M87.1767 74.3789C81.3061 74.3789 76.5469 79.1381 76.5469 85.009H87.1767V74.3789Z" fill="#EFEFEF"/>
<path d="M87.177 90.7537C84.0037 90.7537 81.4312 88.1809 81.4312 85.0076C81.4312 81.8343 84.0037 79.2617 87.177 79.2617C94.7738 79.2617 94.7845 90.7537 87.177 90.7537Z" fill="#EFEFEF"/>
</g>
<path d="M94.6969 77.4918L87.1782 85.0105V74.375C90.1126 74.375 92.77 75.5649 94.6969 77.4918Z" fill="url(#paint4_linear_5103_36607)"/>
<path d="M96.6305 89.8519L87.1782 85.0109L94.6969 77.4922C97.9484 80.7439 98.751 85.7447 96.6305 89.8519Z" fill="url(#paint5_linear_5103_36607)"/>
<path d="M96.6305 89.8528C94.8726 93.2877 91.3025 95.6405 87.1782 95.6405V85.0117L96.6305 89.8528Z" fill="url(#paint6_linear_5103_36607)"/>
<path d="M87.1781 85.0117V95.6405C81.3093 95.6405 76.5493 90.8805 76.5493 85.0117H87.1781Z" fill="url(#paint7_linear_5103_36607)"/>
<path d="M87.1767 74.3789C81.3061 74.3789 76.5469 79.1381 76.5469 85.009H87.1767V74.3789Z" fill="url(#paint8_linear_5103_36607)"/>
<path d="M87.177 90.7537C84.0037 90.7537 81.4312 88.1809 81.4312 85.0076C81.4312 81.8343 84.0037 79.2617 87.177 79.2617C94.7738 79.2617 94.7845 90.7537 87.177 90.7537Z" fill="white"/>
<path d="M76.1669 98.5722C76.1669 98.5711 76.1678 98.5703 76.1689 98.5703C76.17 98.5703 76.1709 98.5711 76.1709 98.5722C76.1709 98.5733 76.17 98.5742 76.1689 98.5742C76.1678 98.5742 76.1669 98.5733 76.1669 98.5722Z" fill="#FF4129"/>
<path d="M100.337 72.6933C100.337 72.6922 100.338 72.6914 100.339 72.6914C100.34 72.6914 100.341 72.6922 100.341 72.6933C100.341 72.6944 100.34 72.6953 100.339 72.6953C100.338 72.6953 100.337 72.6944 100.337 72.6933Z" fill="#FF4129"/>
<path d="M146.021 65.8841C146.261 66.0521 146.413 66.1801 146.474 66.2708C146.533 66.3615 146.565 66.4575 146.565 66.5588C146.565 66.6575 146.538 66.7481 146.49 66.8361C146.44 66.9215 146.37 66.9935 146.285 67.0468C146.224 67.0841 146.136 67.1135 146.021 67.1321V65.8841ZM145.52 64.9561C145.453 64.8601 145.418 64.7535 145.418 64.6415C145.418 64.5215 145.456 64.4228 145.53 64.3428C145.605 64.2655 145.72 64.2148 145.872 64.1961V65.2681C145.706 65.1588 145.589 65.0548 145.52 64.9561ZM145.056 67.1001C145.208 67.1615 145.344 67.2068 145.469 67.2335C145.594 67.2601 145.728 67.2761 145.872 67.2815V67.5775H146.021V67.2815C146.306 67.2575 146.53 67.1641 146.69 67.0041C146.85 66.8415 146.93 66.6548 146.93 66.4415C146.93 66.2521 146.877 66.0921 146.765 65.9641C146.656 65.8361 146.408 65.6361 146.021 65.3668V64.1961C146.234 64.2175 146.394 64.2841 146.501 64.3961C146.608 64.5108 146.672 64.6895 146.69 64.9321H146.781V64.2441C146.53 64.1481 146.384 64.0948 146.338 64.0841C146.253 64.0628 146.146 64.0468 146.021 64.0415V63.8281H145.872V64.0415C145.61 64.0708 145.41 64.1561 145.269 64.2975C145.13 64.4388 145.058 64.6041 145.058 64.7908C145.058 64.9588 145.098 65.1028 145.181 65.2175C145.296 65.3828 145.528 65.5721 145.872 65.7855V67.1321C145.645 67.1108 145.472 67.0441 145.357 66.9321C145.242 66.8201 145.176 66.6575 145.157 66.4468H145.056V67.1001Z" fill="#FADF68"/>
<path d="M39.2372 156.927L38.4546 160.197C38.3202 160.887 38.8335 161.534 39.5362 161.557C42.4215 161.654 48.093 161.558 49.1402 161.549C49.2236 161.548 49.29 161.482 49.294 161.399C49.3407 160.398 48.6764 159.762 47.6975 159.27L43.9228 156.729C43.9159 156.724 43.9079 156.722 43.8996 156.723L39.2372 156.927Z" fill="#373A50"/>
<path d="M39.2368 156.927C39.2792 157.896 43.9422 157.692 43.8997 156.723L43.992 152.894L39.6259 152.758L39.2368 156.927Z" fill="#FECDCB"/>
<path d="M38.8398 155.164C38.8398 155.769 44.1468 155.769 44.1468 155.164L47.1164 140.313C47.1606 140.136 47.1937 139.954 47.2132 139.769C47.2132 139.766 47.2132 139.766 47.2132 139.766C47.227 139.642 47.2324 139.517 47.2324 139.39C47.2324 137.351 45.5694 135.699 43.5196 135.699C41.6134 135.699 40.0414 137.127 39.8316 138.967L39.8065 139.39V139.409L38.8398 155.164Z" fill="#373A50"/>
<path d="M39.8317 139.321C39.8602 141.357 41.5437 142.986 43.5906 142.957C45.3805 142.932 46.8573 141.645 47.1789 139.961C47.189 139.9 47.1994 139.842 47.2095 139.778L48.5426 131.576C48.9482 129.079 49.2354 126.552 49.2071 124.023L49.4997 113.398L40.7773 113.833L39.8458 138.94C39.8458 138.943 39.8458 138.943 39.8458 138.943L39.8338 139.272C39.8314 139.288 39.8314 139.305 39.8317 139.321Z" fill="#373A50"/>
<path d="M54.9198 156.927L54.1372 160.197C54.0028 160.887 54.5161 161.534 55.2188 161.557C58.1041 161.654 63.7756 161.558 64.8228 161.549C64.9062 161.548 64.9726 161.482 64.9766 161.399C65.0233 160.398 64.359 159.762 63.3801 159.27L59.6054 156.729C59.5985 156.724 59.5905 156.722 59.5822 156.723L54.9198 156.927Z" fill="#373A50"/>
<path d="M54.9192 156.928C54.9616 157.896 59.6245 157.692 59.5821 156.724L59.0077 152.761L54.6416 152.625L54.9192 156.928Z" fill="#FECDCB"/>
<path d="M62.2191 105.99C62.4106 106.292 62.6487 106.543 62.9196 106.74C63.802 107.378 65.0164 107.453 65.9927 106.835C66.9015 106.26 67.3567 105.237 67.2495 104.236C67.2383 104.136 67.2215 104.037 67.2023 103.94C66.7444 101.634 61.482 96.3242 61.482 96.3242L57.0762 98.2706L61.885 105.226C61.8863 105.228 61.8855 105.232 61.8868 105.234C61.9572 105.494 62.0676 105.75 62.2191 105.99Z" fill="#FECDCB"/>
<path d="M49.3293 113.553L49.2072 124.198C49.1997 126.745 49.5106 129.288 49.9429 131.798L51.2989 139.673C51.3128 139.897 51.3514 140.115 51.4096 140.325C51.8213 141.839 53.208 142.955 54.8573 142.955C56.8298 142.955 58.4293 141.358 58.4293 139.391C58.4293 139.352 58.4293 139.314 58.4266 139.275L58.4101 139.026C58.4101 139.023 58.4098 139.018 58.4072 137.682L57.0896 113.211L49.3293 113.553Z" fill="#373A50"/>
<path d="M37.3234 106.115C37.125 106.428 36.8784 106.689 36.5976 106.893C35.6832 107.554 34.425 107.632 33.4136 106.991C32.472 106.395 32.0002 105.335 32.1112 104.298C32.1229 104.195 32.1405 104.092 32.1602 103.991C32.6346 101.602 35.6618 97.3008 35.6618 97.3008L40.2272 99.3178L37.6698 105.324C37.6685 105.327 37.669 105.33 37.6677 105.333C37.5949 105.602 37.4805 105.867 37.3234 106.115Z" fill="#FECDCB"/>
<path d="M51.2935 139.391C51.2935 139.534 51.3017 139.678 51.3212 139.819C51.3351 139.943 51.3543 140.067 51.3847 140.186L54.3324 155.381C54.3489 155.809 59.6255 155.596 59.6089 155.165L58.4183 139.206C58.3244 137.322 56.7663 135.824 54.8601 135.824C52.8903 135.824 51.2935 137.421 51.2935 139.391Z" fill="#373A50"/>
<path d="M34.5181 96.7936C34.5181 96.7936 37.7399 90.8733 39.3522 89.2938C40.8071 87.8685 51.5367 84.6677 57.3709 89.5197C58.4167 90.3896 62.5338 96.9082 62.5338 96.9082L58.0935 100.746L57.597 99.7453L57.6951 114.737C57.6466 115.775 39.8866 115.474 39.9351 114.436L41.4461 98.3448L40.2202 99.6456C40.0063 100.073 34.3042 97.2213 34.5181 96.7936Z" fill="#007E7A"/>
<path d="M30.8571 117.678C30.0702 117.52 29.558 116.753 29.7163 115.966C29.7163 115.966 29.9694 112.807 32.0224 104.831L32.027 104.807C32.3457 103.291 33.8263 102.313 35.3479 102.619C36.8747 102.926 37.867 104.415 37.5594 105.945C37.5521 105.981 37.5451 106.015 37.5352 106.051L37.551 106.054L37.5018 106.178C37.4553 106.343 37.3935 106.499 37.3201 106.647L32.5443 116.647C32.3413 117.373 31.6074 117.829 30.8571 117.678Z" fill="#FECDCB"/>
<path d="M28.0181 117.236L26.9497 124.838C26.908 125.135 27.0651 125.417 27.3402 125.541L37.1754 129.932C37.5808 130.112 38.0477 129.853 38.11 129.41L39.1783 121.808C39.2194 121.516 39.0632 121.229 38.7881 121.105L28.9522 116.719C28.5475 116.534 28.0803 116.793 28.0181 117.236Z" fill="#111228"/>
<path d="M29.3209 120.61C26.7546 118.619 29.6353 115.819 29.8276 115.637C29.8306 115.634 29.831 115.632 29.8373 115.627C30.1544 115.244 30.6643 115.037 31.1904 115.123C31.9718 115.252 32.508 115.984 32.3925 116.768C32.3948 116.771 32.3941 116.773 32.3938 116.776C32.4492 116.931 33.0297 118.589 32.3879 118.81C31.9585 118.955 31.8837 118.476 31.8747 118.12C31.8335 119.189 31.5422 122.333 29.3209 120.61Z" fill="#FECDCB"/>
<path d="M60.5058 112.899C61.1111 113.383 61.9955 113.286 62.4791 112.681C62.4791 112.681 62.7158 112.733 67.3389 106.267L67.3533 106.249C68.2767 105.072 68.0811 103.371 66.911 102.436C65.7369 101.498 64.0204 101.688 63.0806 102.864C63.0581 102.892 63.037 102.918 63.0166 102.948L63.0046 102.938L62.9439 103.051C62.8509 103.188 62.7738 103.331 62.7095 103.477L60.2217 111.012C59.8108 111.612 59.9288 112.438 60.5058 112.899Z" fill="#FECDCB"/>
<path d="M65.5669 91.2677V91.2344" stroke="#FECDCB" stroke-width="0.533333" stroke-linecap="round" stroke-linejoin="round"/>
<path d="M58.5556 116.024C61.6194 116.687 61.9029 112.819 61.9181 112.565C61.9177 112.561 61.9195 112.559 61.9189 112.552C62.0052 112.08 61.8426 111.574 61.4519 111.239C60.8718 110.741 59.9983 110.798 59.4907 111.37C59.4871 111.37 59.4857 111.372 59.4839 111.374C59.3348 111.43 57.7488 112.029 57.9834 112.64C58.1424 113.048 58.5438 112.806 58.8123 112.592C58.0474 113.285 55.9038 115.451 58.5556 116.024Z" fill="#FECDCB"/>
<path d="M46.7837 81.4524L46.8288 87.0228C46.8288 87.0228 47.4376 89.718 49.673 89.966C51.9056 90.214 51.2434 86.8396 51.2434 86.8396C51.1954 86.659 51.1589 86.4817 51.1362 86.3097C50.9024 84.7142 51.5816 83.5697 51.5816 83.5697L50.8712 82.7886L49.5546 81.3398L46.7837 81.4524Z" fill="#FECDCB"/>
<path d="M48.0043 82.9842C48.9939 84.8306 51.1363 86.3079 51.1363 86.3079C50.9024 84.7124 51.5816 83.5679 51.5816 83.5679L50.8712 82.7868L49.9973 81.9383C49.9973 81.9383 47.012 81.1378 48.0043 82.9842Z" fill="#FECDCB"/>
<path d="M45.2106 79.801C45.1364 81.0181 46.4388 81.3784 46.7303 81.441C46.7532 81.4466 46.7644 81.4469 46.7759 81.4525C46.7815 81.4525 46.7818 81.4525 46.7874 81.4525C46.7874 81.4525 50.29 86.6917 53.1527 85.2176C54.6324 84.452 54.4098 80.041 54.2039 77.8469C54.1298 77.0984 54.061 76.6072 54.061 76.6072C54.061 76.6072 52.3242 74.1789 49.3071 74.3789C46.2903 74.5845 46.6047 79.3784 46.6047 79.3784C46.6047 79.3784 45.285 78.6869 45.2106 79.801Z" fill="#FECDCB"/>
<path d="M45.2107 79.8012C45.2851 78.687 46.6049 79.3785 46.6049 79.3785C46.6049 79.3785 46.3875 80.167 46.7875 80.2241C47.1819 80.2868 47.5246 77.4814 47.5246 77.4814C47.5246 77.4814 51.6043 78.727 54.2041 77.847C55.0441 77.567 55.7297 77.0646 56.0723 76.2246C57.4779 72.7849 53.7926 70.8822 52.0555 71.2937C50.3185 71.7052 50.2961 72.2193 48.3075 72.3849C48.3075 72.3849 44.7593 71.9222 43.7651 75.4476C42.771 78.9729 46.7875 83.2894 46.7875 83.2894V81.4526C46.7819 81.4526 46.7817 81.4526 46.7761 81.4526C46.7646 81.4526 46.7475 81.4468 46.7305 81.4412C46.439 81.3785 45.1366 81.0182 45.2107 79.8012Z" fill="#111228"/>
<path d="M51.9048 79.4766C52.0808 80.063 52.1509 80.6118 52.2611 80.852C52.3067 80.956 52.3683 81.0419 52.4541 81.12C52.6765 81.3414 52.7947 81.504 52.6245 81.804C52.5579 81.9112 52.472 81.9971 52.3813 82.0763C52.7437 81.5955 52.6275 81.4344 52.3685 81.2128C52.2739 81.1334 52.1907 81.0222 52.1395 80.907C52.0043 80.5958 51.9211 79.7347 51.9048 79.4766Z" fill="#111228"/>
<path d="M51.5606 83.1433C51.6334 83.5961 52.0126 83.9121 52.4065 83.8489C52.7982 83.786 53.0596 83.3673 52.9868 82.9145C52.9854 82.9063 52.9825 82.9007 52.9814 82.8945C52.5966 83.0527 52.1236 83.1284 51.5596 83.1225C51.5606 83.1287 51.5593 83.1351 51.5606 83.1433Z" fill="white"/>
<path d="M53.3922 78.8502C53.082 78.8014 52.9599 78.7203 52.7463 78.9054C52.6948 78.9672 52.6343 79.0296 52.5562 79.0904C52.5642 78.9963 52.5828 78.8998 52.6226 78.8104C52.7359 78.5995 52.9818 78.5414 53.1839 78.6542C53.2729 78.7008 53.3372 78.7715 53.3922 78.8502Z" fill="#111228"/>
<path d="M50.7354 79.202C50.4253 79.1532 50.3031 79.0721 50.0896 79.2572C50.0381 79.319 49.9775 79.3812 49.8994 79.442C49.9074 79.3478 49.9261 79.2513 49.9658 79.162C50.0789 78.9516 50.3245 78.8926 50.5271 79.0057C50.6165 79.0524 50.6805 79.1233 50.7354 79.202Z" fill="#111228"/>
<path d="M52.6725 79.6427C52.569 79.3099 52.7122 79.027 52.9325 78.9585C53.1986 78.8766 53.4514 79.1011 53.5354 79.3769L53.2802 79.4542C53.2402 79.3222 53.1181 79.1798 53.0114 79.2131C52.8992 79.2481 52.889 79.4414 52.9272 79.5635L52.6725 79.6427Z" fill="#FECDCB"/>
<path d="M50.2095 80.0375C50.1021 79.6919 50.2591 79.4185 50.4722 79.3527C50.713 79.2777 50.9778 79.4612 51.0744 79.77L50.8197 79.8497C50.765 79.6748 50.6325 79.5812 50.5509 79.6073C50.4413 79.6412 50.4226 79.8244 50.4642 79.958L50.2095 80.0375Z" fill="#FECDCB"/>
<path d="M50.3371 80.0006C50.4105 80.2358 50.6035 80.3828 50.7728 80.3305C50.9406 80.2806 51.0185 80.0481 50.9473 79.8126C50.8742 79.5796 50.679 79.431 50.5115 79.483C50.3419 79.5353 50.2638 79.7654 50.3371 80.0006Z" fill="#111228"/>
<path d="M52.7996 79.6059C52.8708 79.8414 53.066 79.9881 53.2334 79.9361C53.4033 79.8857 53.4812 79.6537 53.4078 79.4185C53.3369 79.1851 53.1414 79.0363 52.9718 79.0886C52.8044 79.1406 52.7262 79.3707 52.7996 79.6059Z" fill="#111228"/>
<path d="M161.436 149.023L162.14 151.964C162.261 152.585 161.799 153.166 161.167 153.187C158.572 153.274 153.472 153.188 152.531 153.18C152.455 153.179 152.396 153.12 152.392 153.045C152.35 152.145 152.948 151.573 153.828 151.131L157.222 148.845C157.229 148.841 157.236 148.84 157.243 148.84L161.436 149.023Z" fill="#373A50"/>
<path d="M161.437 149.023C161.399 149.894 157.205 149.711 157.244 148.839L157.161 145.395L161.087 145.273L161.437 149.023Z" fill="#FECDCB"/>
<path d="M161.794 147.438C161.794 147.982 157.021 147.982 157.021 147.438L154.351 134.082C154.311 133.923 154.281 133.759 154.264 133.593C154.264 133.591 154.264 133.591 154.264 133.591C154.252 133.479 154.247 133.367 154.247 133.253C154.247 131.419 155.742 129.934 157.585 129.934C159.299 129.934 160.713 131.218 160.902 132.873L160.924 133.253V133.27L161.794 147.438Z" fill="#373A50"/>
<path d="M160.901 133.191C160.876 135.021 159.362 136.486 157.521 136.46C155.912 136.437 154.584 135.281 154.294 133.766C154.285 133.711 154.276 133.659 154.267 133.602L153.068 126.225C152.704 123.98 152.445 121.708 152.471 119.434L152.208 111.078L160.051 111.469L160.889 132.847C160.889 132.85 160.889 132.85 160.889 132.85L160.9 133.146C160.902 133.161 160.902 133.176 160.901 133.191Z" fill="#373A50"/>
<path d="M147.333 149.023L148.037 151.964C148.158 152.585 147.697 153.166 147.065 153.187C144.47 153.274 139.37 153.188 138.428 153.18C138.353 153.179 138.293 153.12 138.29 153.045C138.248 152.145 138.845 151.573 139.726 151.131L143.12 148.845C143.126 148.841 143.134 148.84 143.141 148.84L147.333 149.023Z" fill="#373A50"/>
<path d="M147.334 149.023C147.296 149.894 143.103 149.711 143.141 148.839L143.591 145.395L147.517 145.273L147.334 149.023Z" fill="#FECDCB"/>
<path d="M150.594 133.25C150.594 133.379 150.587 133.509 150.57 133.635C150.557 133.747 150.54 133.859 150.512 133.966L147.862 147.629C147.847 148.014 143.102 147.823 143.117 147.435L144.187 133.084C144.272 131.389 145.673 130.043 147.387 130.043C149.158 130.043 150.594 131.479 150.594 133.25Z" fill="#373A50"/>
<path d="M152.361 111.218L152.471 119.591C152.477 121.882 152.198 124.168 151.809 126.425L150.59 133.507C150.577 133.708 150.543 133.904 150.49 134.093C150.12 135.454 148.873 136.458 147.39 136.458C145.616 136.458 144.178 135.022 144.178 133.254C144.178 133.219 144.178 133.184 144.18 133.149L144.195 132.926C144.195 132.923 144.195 132.918 144.198 132.916L145.383 110.91L152.361 111.218Z" fill="#373A50"/>
<path d="M145.251 106.449C145.25 106.775 145.31 107.086 145.422 107.37C145.788 108.294 146.685 108.947 147.74 108.951C148.721 108.954 149.573 108.391 149.982 107.568C150.022 107.486 150.058 107.401 150.091 107.317C150.87 105.318 150.659 100.691 150.659 100.691L146.314 100.027L145.369 105.698C145.369 105.7 145.367 105.702 145.366 105.705C145.293 105.94 145.252 106.191 145.251 106.449Z" fill="#FECDCB"/>
<path d="M148.302 95.0378C146.903 96.8089 146.118 99.9859 145.527 102.262C145.421 102.728 150.63 103.946 150.736 103.481L148.302 95.0378Z" fill="#007E7A"/>
<path d="M137.651 112.081C137.906 112.74 138.648 113.07 139.307 112.815C139.307 112.815 142.011 112.122 148.625 109.146L148.644 109.138C149.912 108.634 150.539 107.203 150.046 105.928C149.551 104.65 148.11 104.012 146.829 104.507C146.798 104.519 146.77 104.53 146.74 104.544L146.735 104.531L146.635 104.592C146.499 104.658 146.373 104.734 146.255 104.82L138.293 110.463C137.693 110.748 137.407 111.453 137.651 112.081Z" fill="#FECDCB"/>
<path d="M147.562 80.5046C147.696 81.2113 147.903 81.9385 148.396 82.4622C148.63 82.7113 148.971 82.9137 149.302 82.8276C149.637 82.7404 149.833 82.3958 149.943 82.0678C150.231 81.2076 150.168 80.2358 149.773 79.4193C149.531 78.918 149.148 78.4614 148.634 78.2478C148.281 78.1014 147.274 78.0174 147.147 78.5404C147.088 78.7796 147.314 79.2017 147.366 79.4425C147.442 79.7945 147.495 80.151 147.562 80.5046Z" fill="#111228"/>
<path d="M164.579 91.0043C164.295 91.8053 163.615 92.4216 162.849 92.7883C162.081 93.1549 161.226 93.2973 160.381 93.3816C157.563 93.6595 154.718 93.3277 151.928 92.8397C151.036 92.6856 150.142 92.5128 149.313 92.1485C148.486 91.7843 147.725 91.2075 147.295 90.4112C146.865 89.6173 146.819 88.5827 147.314 87.8285C147.811 87.0744 149.049 86.6331 149.84 87.0699C150.1 87.2659 150.401 87.3965 150.744 87.448C151.044 87.492 151.357 87.4517 151.384 87.4387C151.84 87.3811 152.364 87.1125 152.748 86.8597C153.224 86.5568 153.605 86.2029 153.952 85.8672C154.424 85.396 154.753 84.9675 154.779 84.9355C154.779 84.9355 155.982 84.5432 156.017 83.4597C156.047 82.4976 155.101 82.8784 154.889 82.9765L154.868 82.8971L154.865 82.8923C154.865 82.8947 154.868 82.8992 154.865 82.904C154.856 82.9507 154.852 82.9811 154.849 82.9904C154.849 82.9928 154.849 82.9925 154.849 82.9949C154.777 83.1259 154.522 83.1584 154.399 83.0347C154.247 82.8851 154.237 82.6472 154.216 82.4347C154.058 80.9355 152.638 79.6768 151.132 79.7027C150.606 79.712 150.092 79.8568 149.579 79.9688C149.221 80.0459 148.855 80.1112 148.495 80.1019C148.334 80.0995 148.173 80.0856 148.017 80.0483C147.501 79.9315 147.013 79.5811 146.87 79.0744C146.686 78.4205 147.111 77.7528 147.58 77.2624C148.834 75.9501 150.583 75.1283 152.39 74.9952C154.2 74.8645 156.049 75.4248 157.479 76.5411C159.033 77.7515 158.426 78.5563 158.576 79.7749C158.667 80.5104 158.84 81.0899 159.358 81.6501C159.897 82.2339 160.584 82.6589 161.172 83.1936C161.759 83.7307 162.265 84.4453 162.256 85.2392C162.244 85.9349 161.845 86.6517 162.118 87.2893C162.436 88.0272 163.419 88.1579 164.035 88.6717C164.687 89.2157 164.864 90.2056 164.579 91.0043Z" fill="#111228"/>
<path d="M154.883 82.9518C154.86 82.9636 154.848 82.9708 154.844 82.9708C154.772 83.1022 154.518 83.1372 154.393 83.0145C154.24 82.8665 154.229 82.6284 154.206 82.4161C154.034 80.9185 152.603 79.6726 151.097 79.7118C150.572 79.726 150.059 79.8753 149.546 79.9918C149.19 80.0721 148.824 80.1409 148.464 80.1348C148.108 81.8238 148.141 85.8238 149.872 87.0902C150.133 87.2841 150.435 87.4121 150.779 87.4604C151.079 87.5017 151.392 87.4588 151.418 87.4454C151.792 87.3796 152.21 87.2345 152.777 86.854C153.243 86.5516 153.623 86.1953 153.973 85.8508C154.3 85.5177 154.706 85.0305 154.742 84.9753C154.775 84.9353 154.791 84.9118 154.791 84.9118C154.791 84.9118 155.99 84.5086 156.015 83.4249C156.037 82.4625 155.095 82.8518 154.883 82.9518Z" fill="#FECDCB"/>
<path d="M154.861 82.8717L154.859 82.8672C154.859 82.8696 154.862 82.8739 154.859 82.8787C154.859 82.8763 154.859 82.8741 154.861 82.8717Z" fill="#FECDCB"/>
<path d="M150.525 82.1328C150.555 82.3997 150.602 83.1291 150.528 83.4197C150.499 83.5283 150.441 83.6389 150.369 83.7221C150.183 83.9387 150.08 84.0864 150.473 84.4749C150.382 84.4197 150.294 84.3571 150.219 84.2728C150.023 84.0307 150.109 83.8672 150.27 83.644C150.333 83.5637 150.374 83.4813 150.399 83.3845C150.461 83.1632 150.448 82.6541 150.525 82.1328Z" fill="#111228"/>
<path d="M150.928 85.0887C150.928 85.4954 150.641 85.8247 150.287 85.8247C149.935 85.8247 149.648 85.4954 149.648 85.0887C149.648 85.0815 149.65 85.0759 149.65 85.0703C150.009 85.1546 150.433 85.1546 150.926 85.0703C150.926 85.0759 150.928 85.0815 150.928 85.0887Z" fill="white"/>
<path d="M160.15 91.2882C159.412 89.8751 156.66 89.3871 155.171 89.2466C154.209 89.1556 151.958 89.1418 151.005 89.3044C149.761 89.5167 147.599 90.4983 147.005 91.6394C145.923 93.7212 145.559 101.967 145.559 101.967L144.147 112.212C144.514 114.559 161.941 113.732 161.627 111.24C161.627 111.24 159.944 103.748 160.062 101.96C160.248 99.1436 161.35 93.5879 160.15 91.2882Z" fill="#007E7A"/>
<path d="M155.171 89.2468C155.171 89.2468 154.136 91.589 152.221 91.2868C150.928 91.0836 150.868 89.3292 150.868 89.3292C150.868 89.3292 151.569 88.8276 151.62 88.1316C151.656 87.6506 151.644 87.0852 151.562 86.5236C151.552 86.4668 151.543 86.41 151.534 86.3514C151.464 85.9338 152.745 85.498 153.6 85.2527C153.911 85.1647 154.37 85.0586 154.613 85.0348C154.699 85.0258 154.779 84.9375 154.779 84.9375C154.779 84.9375 154.519 88.1866 155.171 89.2468Z" fill="#FECDCB"/>
<path d="M158.111 106.212C158.176 106.576 158.306 106.911 158.488 107.206C159.084 108.164 160.22 108.712 161.398 108.502C162.496 108.307 163.333 107.504 163.623 106.502C163.652 106.402 163.674 106.301 163.694 106.2C164.159 103.809 162.985 98.6818 162.985 98.6818L157.996 98.8207L158.09 105.349C158.09 105.351 158.088 105.354 158.088 105.357C158.054 105.634 158.059 105.923 158.111 106.212Z" fill="#FECDCB"/>
<path d="M164.478 98.8501C164.685 99.3154 157.703 99.5143 157.495 99.049C157.495 99.049 157.088 96.6679 156.982 95.3619C156.805 93.1867 156.91 91.2061 158.032 90.7056C158.48 90.5052 159.972 90.8537 161.409 91.9578C162.667 92.9242 164.478 98.8501 164.478 98.8501Z" fill="#007E7A"/>
<path d="M149.405 111.97C149.694 112.719 150.537 113.093 151.286 112.803C151.286 112.803 154.356 112.016 161.867 108.636L161.889 108.628C163.329 108.056 164.041 106.43 163.48 104.983C162.918 103.531 161.282 102.806 159.827 103.369C159.792 103.383 159.76 103.395 159.726 103.411L159.72 103.396L159.607 103.466C159.453 103.54 159.309 103.627 159.175 103.725L150.134 110.132C149.453 110.456 149.128 111.256 149.405 111.97Z" fill="#FECDCB"/>
<path d="M147.487 113.072L129.586 105.777L128.15 109.569L146.051 116.865C147.1 117.262 148.269 116.732 148.665 115.686C149.061 114.64 148.536 113.469 147.487 113.072Z" fill="#111228"/>
<path d="M131.826 105.898L129.228 104.915C129.019 104.836 128.785 104.941 128.706 105.15L127.071 109.469C126.992 109.678 127.098 109.912 127.307 109.991L129.905 110.974C130.114 111.054 130.348 110.948 130.427 110.739L132.062 106.42C132.141 106.211 132.035 105.977 131.826 105.898Z" fill="#B2C7FF"/>
<path d="M122.161 90.7255C115.195 88.0873 107.417 91.5994 104.782 98.5613C102.147 105.523 105.653 113.304 112.618 115.94C119.58 118.575 127.364 115.065 129.999 108.103C132.634 101.141 129.124 93.3577 122.161 90.7255ZM127.687 107.227C125.534 112.915 119.18 115.78 113.494 113.628C107.807 111.48 104.943 105.123 107.094 99.432C109.242 93.7497 115.602 90.882 121.289 93.0352C126.974 95.1874 129.837 101.544 127.687 107.227Z" fill="#D1DEFF"/>
<path d="M146.776 113.986C149.174 116.176 151.444 112.861 151.59 112.641C151.592 112.638 151.594 112.637 151.598 112.63C151.921 112.252 152.039 111.714 151.864 111.211C151.604 110.462 150.792 110.059 150.039 110.306C150.036 110.304 150.033 110.305 150.031 110.306C149.869 110.278 148.136 109.987 148.027 110.658C147.957 111.105 148.443 111.098 148.795 111.046C147.748 111.269 144.7 112.09 146.776 113.986Z" fill="#FECDCB"/>
<path d="M149.282 81.7873C149.321 81.7241 149.374 81.6692 149.429 81.6161C149.559 81.5073 149.764 81.5166 149.88 81.6662C149.921 81.7316 149.955 81.7998 149.976 81.8716C149.909 81.8316 149.859 81.7838 149.809 81.7406C149.708 81.6756 149.626 81.6489 149.478 81.7057C149.419 81.7369 149.357 81.7662 149.282 81.7873Z" fill="#111228"/>
<path d="M151.435 81.7287C151.474 81.6655 151.527 81.6106 151.582 81.5575C151.711 81.4493 151.917 81.4573 152.033 81.6077C152.074 81.673 152.107 81.7413 152.129 81.813C152.062 81.773 152.012 81.7255 151.962 81.6823C151.861 81.6173 151.779 81.5903 151.631 81.6471C151.572 81.6783 151.51 81.7077 151.435 81.7287Z" fill="#111228"/>
<path d="M151.97 82.372C151.939 82.5882 151.791 82.7437 151.635 82.7218C151.481 82.7016 151.381 82.5093 151.41 82.2933C151.441 82.0792 151.591 81.9216 151.745 81.9434C151.901 81.9653 152.002 82.156 151.97 82.372Z" fill="#111228"/>
<path d="M149.76 82.372C149.73 82.5882 149.58 82.7437 149.426 82.7218C149.271 82.7016 149.17 82.5093 149.201 82.2933C149.23 82.0792 149.38 81.9216 149.536 81.9434C149.69 81.9653 149.791 82.156 149.76 82.372Z" fill="#111228"/>
<path d="M138.433 108.59C138.433 108.59 136.203 108.228 136.461 108.978C136.72 109.729 138.283 109.319 138.283 109.319L140.217 110.107L138.433 108.59Z" fill="#FECDCB"/>
</g>
<defs>
<linearGradient id="paint0_linear_5103_36607" x1="100.533" y1="39.9991" x2="101.403" y2="120.365" gradientUnits="userSpaceOnUse">
<stop stop-color="#CEDCF9" stop-opacity="0"/>
<stop offset="0.5" stop-color="#C8D7FC" stop-opacity="0.5"/>
<stop offset="1" stop-color="#C3D2FF"/>
</linearGradient>
<linearGradient id="paint1_linear_5103_36607" x1="101.867" y1="168.266" x2="101.867" y2="132.391" gradientUnits="userSpaceOnUse">
<stop stop-color="#CEDCF9" stop-opacity="0"/>
<stop offset="0.5" stop-color="#C8D7FC" stop-opacity="0.5"/>
<stop offset="1" stop-color="#C3D2FF"/>
</linearGradient>
<linearGradient id="paint2_linear_5103_36607" x1="139.93" y1="69.2583" x2="152.171" y2="61.5188" gradientUnits="userSpaceOnUse">
<stop stop-color="#909EFF"/>
<stop offset="0.5" stop-color="#7C8AF1"/>
<stop offset="1" stop-color="#6977E3"/>
</linearGradient>
<linearGradient id="paint3_linear_5103_36607" x1="153.059" y1="54.6675" x2="155.877" y2="60.6035" gradientUnits="userSpaceOnUse">
<stop stop-color="#909EFF"/>
<stop offset="0.5" stop-color="#7C8AF1"/>
<stop offset="1" stop-color="#6977E3"/>
</linearGradient>
<linearGradient id="paint4_linear_5103_36607" x1="89.867" y1="78.3995" x2="87.7758" y2="85.0603" gradientUnits="userSpaceOnUse">
<stop stop-color="#909EFF"/>
<stop offset="0.5" stop-color="#7C8AF1"/>
<stop offset="1" stop-color="#6977E3"/>
</linearGradient>
<linearGradient id="paint5_linear_5103_36607" x1="95.467" y1="83.4666" x2="89.9678" y2="84.2023" gradientUnits="userSpaceOnUse">
<stop stop-color="#D1DEFF"/>
<stop offset="0.5" stop-color="#C2D2FF"/>
<stop offset="1" stop-color="#B2C7FF"/>
</linearGradient>
<linearGradient id="paint6_linear_5103_36607" x1="91.2004" y1="91.4675" x2="88.9156" y2="87.0528" gradientUnits="userSpaceOnUse">
<stop stop-color="#FADF68"/>
<stop offset="0.5" stop-color="#F2D15C"/>
<stop offset="1" stop-color="#EAC250"/>
</linearGradient>
<linearGradient id="paint7_linear_5103_36607" x1="81.3336" y1="90.6675" x2="86.0581" y2="84.0067" gradientUnits="userSpaceOnUse">
<stop stop-color="#3DCFA4"/>
<stop offset="0.03" stop-color="#3CCFA3"/>
<stop offset="0.06" stop-color="#3CCEA3"/>
<stop offset="0.53" stop-color="#36C59B"/>
<stop offset="1" stop-color="#30BB93"/>
</linearGradient>
<linearGradient id="paint8_linear_5103_36607" x1="79.9999" y1="77.0669" x2="85.8477" y2="85.8965" gradientUnits="userSpaceOnUse">
<stop stop-color="#F34B6D"/>
<stop offset="0.71" stop-color="#EB466A"/>
<stop offset="1" stop-color="#E24067"/>
</linearGradient>
</defs>
</svg>
