<svg width="117" height="107" viewBox="0 0 117 107" fill="none" xmlns="http://www.w3.org/2000/svg">
<rect width="117.067" height="117.067" rx="58.5337" fill="#FCFCFC"/>
<rect x="38.25" y="36.2266" width="40" height="44" rx="4" fill="#E6EFF1"/>
<path d="M63.7552 61.5212L63.9136 61.6805L64.0738 61.5212C64.2619 61.3332 64.4851 61.184 64.7308 61.0823C64.9765 60.9805 65.2398 60.9281 65.5057 60.9281C65.7717 60.9281 66.035 60.9805 66.2807 61.0823C66.5264 61.184 66.7496 61.3332 66.9376 61.5212C67.1257 61.7093 67.2748 61.9325 67.3766 62.1782C67.4784 62.4239 67.5308 62.6872 67.5308 62.9531C67.5308 63.2191 67.4784 63.4824 67.3766 63.7281C67.2748 63.9738 67.1257 64.197 66.9376 64.385L63.9136 67.4081L60.8914 64.385C60.5117 64.0053 60.2983 63.4902 60.2983 62.9531C60.2983 62.4161 60.5117 61.901 60.8914 61.5212C61.2712 61.1415 61.7863 60.9281 62.3233 60.9281C62.8604 60.9281 63.3755 61.1415 63.7552 61.5212ZM58.4983 60.0281V67.2281H51.2983C51.2984 65.3575 52.0264 63.5604 53.3283 62.2172C54.6301 60.874 56.4037 60.0902 58.2733 60.0317L58.4983 60.0281ZM58.4983 48.3281C61.4818 48.3281 63.8983 50.7446 63.8983 53.7281C63.8983 56.7116 61.4818 59.1281 58.4983 59.1281C55.5148 59.1281 53.0983 56.7116 53.0983 53.7281C53.0983 50.7446 55.5148 48.3281 58.4983 48.3281Z" fill="#0064D9"/>
</svg>
