<svg width="201" height="200" viewBox="0 0 201 200" fill="none" xmlns="http://www.w3.org/2000/svg">
  <!-- Background shape -->
  <path d="M167.189 87.2654C164.385 96.8268 161.71 106.312 158.976 115.836C157.613 120.568 156.152 125.49 153.161 128.918C149.173 133.483 143.316 134.461 137.858 134.782C129.962 135.263 53.4262 135.707 49.3787 134.782C44.4827 133.651 37.2045 129.54 35.576 122.909C34.5859 118.905 36.5928 114.722 38.9512 111.846C47.2078 101.779 27.3824 67.5953 35.3171 54.4065C50.5611 29.0686 109.836 65.9542 155.495 52.8489C164.459 50.2764 173.44 65.9553 167.189 87.2654Z" fill="url(#paint0_linear_bookings)"/>
  
  <!-- Calendar base -->
  <rect x="40" y="50" width="120" height="100" rx="8" fill="#FFFFFF" stroke="#E0E0E0" stroke-width="2"/>
  
  <!-- Calendar header -->
  <rect x="40" y="50" width="120" height="25" rx="8" fill="#3B82F6"/>
  <rect x="40" y="67" width="120" height="8" fill="#3B82F6"/>
  
  <!-- Calendar rings -->
  <circle cx="60" cy="45" r="3" fill="#10B981" stroke="#FFFFFF" stroke-width="1"/>
  <circle cx="140" cy="45" r="3" fill="#10B981" stroke="#FFFFFF" stroke-width="1"/>
  
  <!-- Calendar grid lines -->
  <line x1="57" y1="75" x2="57" y2="140" stroke="#E5E7EB" stroke-width="1"/>
  <line x1="74" y1="75" x2="74" y2="140" stroke="#E5E7EB" stroke-width="1"/>
  <line x1="91" y1="75" x2="91" y2="140" stroke="#E5E7EB" stroke-width="1"/>
  <line x1="108" y1="75" x2="108" y2="140" stroke="#E5E7EB" stroke-width="1"/>
  <line x1="125" y1="75" x2="125" y2="140" stroke="#E5E7EB" stroke-width="1"/>
  <line x1="142" y1="75" x2="142" y2="140" stroke="#E5E7EB" stroke-width="1"/>
  
  <line x1="45" y1="85" x2="155" y2="85" stroke="#E5E7EB" stroke-width="1"/>
  <line x1="45" y1="100" x2="155" y2="100" stroke="#E5E7EB" stroke-width="1"/>
  <line x1="45" y1="115" x2="155" y2="115" stroke="#E5E7EB" stroke-width="1"/>
  <line x1="45" y1="130" x2="155" y2="130" stroke="#E5E7EB" stroke-width="1"/>
  
  <!-- Selected dates (bookings) -->
  <rect x="75" y="86" width="15" height="13" rx="2" fill="#10B981"/>
  <rect x="109" y="86" width="15" height="13" rx="2" fill="#F59E0B"/>
  <rect x="126" y="101" width="15" height="13" rx="2" fill="#EF4444"/>
  <rect x="58" y="116" width="15" height="13" rx="2" fill="#8B5CF6"/>
  
  <!-- Person icon 1 -->
  <g transform="translate(165, 60)">
    <circle cx="12" cy="8" r="6" fill="#3B82F6"/>
    <path d="M12 16c-6 0-11 3-11 7h22c0-4-5-7-11-7z" fill="#3B82F6"/>
  </g>
  
  <!-- Person icon 2 -->
  <g transform="translate(20, 120)">
    <circle cx="10" cy="6" r="5" fill="#10B981"/>
    <path d="M10 13c-5 0-9 2.5-9 6h18c0-3.5-4-6-9-6z" fill="#10B981"/>
  </g>
  
  <!-- Clock element -->
  <circle cx="170" cy="130" r="18" fill="#FFFFFF" stroke="#F59E0B" stroke-width="3"/>
  <line x1="170" y1="130" x2="170" y2="120" stroke="#F59E0B" stroke-width="2" stroke-linecap="round"/>
  <line x1="170" y1="130" x2="176" y2="130" stroke="#F59E0B" stroke-width="2" stroke-linecap="round"/>
  <circle cx="170" cy="130" r="2" fill="#F59E0B"/>
  
  <!-- Month text -->
  <text x="100" y="64" text-anchor="middle" fill="#FFFFFF" font-family="Arial, sans-serif" font-size="12" font-weight="bold">JUNE</text>
  
  <!-- Booking indicator dots -->
  <circle cx="82" cy="145" r="2" fill="#10B981"/>
  <circle cx="116" cy="145" r="2" fill="#F59E0B"/>
  <circle cx="133" cy="145" r="2" fill="#EF4444"/>
  <circle cx="65" cy="145" r="2" fill="#8B5CF6"/>
  
  <defs>
    <linearGradient id="paint0_linear_bookings" x1="100.5" y1="52.8489" x2="100.5" y2="134.782" gradientUnits="userSpaceOnUse">
      <stop stop-color="#FEF3C7"/>
      <stop offset="1" stop-color="#F59E0B" stop-opacity="0.3"/>
    </linearGradient>
  </defs>
</svg>
