<svg width="201" height="200" viewBox="0 0 201 200" fill="none" xmlns="http://www.w3.org/2000/svg">
<g clip-path="url(#clip0_4298_10526)">
<rect width="200" height="200" transform="translate(0.5)" fill="white"/>
<mask id="mask0_4298_10526" style="mask-type:luminance" maskUnits="userSpaceOnUse" x="0" y="0" width="201" height="200">
<path d="M200.5 0H0.5V200H200.5V0Z" fill="white"/>
</mask>
<g mask="url(#mask0_4298_10526)">
<path d="M124.972 137.52H45.6199C39.9179 137.52 35.2959 132.898 35.2959 127.196V47.8435C35.2959 42.1415 39.9179 37.5195 45.6199 37.5195H124.972C130.674 37.5195 135.296 42.1415 135.296 47.8435V127.196C135.296 132.898 130.674 137.52 124.972 137.52Z" stroke="black" stroke-width="6" stroke-linecap="round" stroke-linejoin="round"/>
<path d="M59.2959 30.5195V50.7595" stroke="black" stroke-width="12" stroke-linecap="round" stroke-linejoin="round"/>
<path d="M111.296 30.5195V50.7595" stroke="black" stroke-width="12" stroke-linecap="round" stroke-linejoin="round"/>
<path d="M66.2459 91.5195H52.3459C50.6619 91.5195 49.2959 90.1535 49.2959 88.4695V74.5695C49.2959 72.8855 50.6619 71.5195 52.3459 71.5195H66.2459C67.9299 71.5195 69.2959 72.8855 69.2959 74.5695V88.4695C69.2959 90.1535 67.9299 91.5195 66.2459 91.5195Z" fill="black"/>
<path d="M118.246 91.5195H104.346C102.662 91.5195 101.296 90.1535 101.296 88.4695V74.5695C101.296 72.8855 102.662 71.5195 104.346 71.5195H118.246C119.93 71.5195 121.296 72.8855 121.296 74.5695V88.4695C121.296 90.1535 119.93 91.5195 118.246 91.5195Z" fill="black"/>
<path d="M66.2459 121.52H52.3459C50.6619 121.52 49.2959 120.154 49.2959 118.47V104.57C49.2959 102.886 50.6619 101.52 52.3459 101.52H66.2459C67.9299 101.52 69.2959 102.886 69.2959 104.57V118.47C69.2959 120.154 67.9299 121.52 66.2459 121.52Z" fill="#33A753"/>
<path d="M66.2459 121.52H52.3459C50.6619 121.52 49.2959 120.154 49.2959 118.47V104.57C49.2959 102.886 50.6619 101.52 52.3459 101.52H66.2459C67.9299 101.52 69.2959 102.886 69.2959 104.57V118.47C69.2959 120.154 67.9299 121.52 66.2459 121.52Z" stroke="black" stroke-width="4" stroke-linecap="round" stroke-linejoin="round"/>
<path d="M92.2459 121.52H78.3459C76.6619 121.52 75.2959 120.154 75.2959 118.47V104.57C75.2959 102.886 76.6619 101.52 78.3459 101.52H92.2459C93.9299 101.52 95.2959 102.886 95.2959 104.57V118.47C95.2959 120.154 93.9299 121.52 92.2459 121.52Z" fill="black"/>
<path d="M118.246 121.52H104.346C102.662 121.52 101.296 120.154 101.296 118.47V104.57C101.296 102.886 102.662 101.52 104.346 101.52H118.246C119.93 101.52 121.296 102.886 121.296 104.57V118.47C121.296 120.154 119.93 121.52 118.246 121.52Z" fill="black"/>
<path d="M118.396 123.939H51.1961C49.4361 123.939 48.0161 122.519 48.0161 120.759V74.2991C48.0161 72.5391 49.4361 71.1191 51.1961 71.1191H118.396C120.156 71.1191 121.576 72.5391 121.576 74.2991V120.759C121.576 122.519 120.156 123.939 118.396 123.939Z" fill="#33A753"/>
<path d="M118.396 123.939H51.1961C49.4361 123.939 48.0161 122.519 48.0161 120.759V74.2991C48.0161 72.5391 49.4361 71.1191 51.1961 71.1191H118.396C120.156 71.1191 121.576 72.5391 121.576 74.2991V120.759C121.576 122.519 120.156 123.939 118.396 123.939Z" stroke="black" stroke-width="4" stroke-linecap="round" stroke-linejoin="round"/>
<path d="M165.465 133.584L135.213 142.792L114.905 169.468L108.933 107.488L165.465 133.584Z" fill="#FF6A3C"/>
<path d="M98.3982 100.001C98.3982 107.125 92.6243 112.899 85.5004 112.899C78.3765 112.899 72.6025 107.125 72.6025 100.001C72.6025 92.8774 78.3765 87.1035 85.5004 87.1035C92.6243 87.1035 98.3982 92.8774 98.3982 100.001Z" fill="#006073"/>
<path d="M98.3982 100.001C98.3982 107.125 92.6243 112.899 85.5004 112.899C78.3765 112.899 72.6025 107.125 72.6025 100.001C72.6025 92.8774 78.3765 87.1035 85.5004 87.1035C92.6243 87.1035 98.3982 92.8774 98.3982 100.001Z" stroke="black" stroke-width="2.14964" stroke-miterlimit="10"/>
<path d="M80.1562 99.9235L84.8489 103.554L89.7888 97.1074" stroke="black" stroke-width="2.14964" stroke-miterlimit="10"/>
</g>
</g>
<defs>
<clipPath id="clip0_4298_10526">
<rect width="200" height="200" fill="white" transform="translate(0.5)"/>
</clipPath>
</defs>
</svg>
