<svg width="201" height="200" viewBox="0 0 201 200" fill="none" xmlns="http://www.w3.org/2000/svg">
<path d="M167.189 87.2654C164.385 96.8268 161.71 106.312 158.976 115.836C157.613 120.568 156.152 125.49 153.161 128.918C149.173 133.483 143.316 134.461 137.858 134.782C129.962 135.263 53.4262 135.707 49.3787 134.782C44.4827 133.651 37.2045 129.54 35.576 122.909C34.5859 118.905 36.5928 114.722 38.9512 111.846C47.2078 101.779 27.3824 67.5953 35.3171 54.4065C50.5611 29.0686 109.836 65.9542 155.495 52.8489C164.459 50.2764 173.44 65.9553 167.189 87.2654Z" fill="url(#paint0_linear_4223_10973)"/>
<path d="M169.332 158.336C164.284 170.754 111.686 161.926 105.477 160.081C105.469 160.078 105.462 160.076 105.454 160.074C104.077 159.661 102.617 159.597 101.212 159.913C92.62 161.847 82.4707 163.192 72.8838 163.192C49.7803 163.192 38.6803 155.378 38.6803 150.362C38.6803 148.81 43.5424 149.396 43.6211 146.071C43.7158 142.247 36.616 141.584 35.5312 138.835C33.6715 134.115 65.0224 134.27 65.0224 134.27H123.493C123.493 134.27 166.02 133.05 168.715 138.379C171.405 143.712 147.915 145.997 147.915 145.997C147.915 145.997 171.662 152.606 169.332 158.336Z" fill="url(#paint1_linear_4223_10973)"/>
<path d="M135.786 63.5141V140.067C135.786 141.646 134.506 142.922 132.931 142.922H72.0219C70.4462 142.922 69.167 141.646 69.167 140.067V63.5141C69.167 61.9354 70.4462 60.6592 72.0219 60.6592H132.931C134.506 60.6592 135.786 61.9354 135.786 63.5141Z" fill="#B2C7FF"/>
<path d="M72.0742 138.715V64.8662C72.0742 64.1478 72.6566 63.5654 73.375 63.5654H131.578C132.296 63.5654 132.879 64.1476 132.879 64.8662V138.715C132.879 139.434 132.296 140.016 131.578 140.016H73.3753C72.6566 140.016 72.0742 139.434 72.0742 138.715Z" fill="white"/>
<path d="M113.853 59.4026V66.3133C113.853 66.7784 113.475 67.1565 113.01 67.1565H91.943C91.478 67.1565 91.1001 66.7784 91.1001 66.3133V59.4026C91.1001 58.9373 91.478 58.5594 91.943 58.5594H98.9761C99.3948 57.0186 100.802 55.8848 102.476 55.8848C104.151 55.8848 105.558 57.0186 105.977 58.5594H113.01C113.475 58.5594 113.853 58.9373 113.853 59.4026Z" fill="#373A50"/>
<path d="M104.447 59.5102C104.447 60.5982 103.564 61.4803 102.476 61.4803C101.388 61.4803 100.506 60.5982 100.506 59.5102C100.506 58.4222 101.388 57.54 102.476 57.54C103.564 57.54 104.447 58.4222 104.447 59.5102Z" fill="white"/>
<path d="M153.528 63.2145L152.04 63.2081C151.906 63.2062 151.783 63.1326 151.723 63.014C151.591 62.7549 151.438 62.5049 151.265 62.2664C151.186 62.159 151.177 62.016 151.236 61.8971L151.904 60.5674C151.983 60.4096 151.937 60.2181 151.793 60.1143L150.326 59.0494C150.183 58.9456 149.986 58.9613 149.862 59.0853L148.805 60.1317C148.711 60.225 148.572 60.2605 148.444 60.2195C148.164 60.1292 147.879 60.0614 147.592 60.0162C147.46 59.9952 147.352 59.9011 147.309 59.7746L146.842 58.3619C146.786 58.1942 146.618 58.0915 146.443 58.119L144.652 58.4035C144.478 58.4311 144.35 58.5814 144.349 58.758L144.343 60.2477C144.342 60.3806 144.269 60.5037 144.149 60.5638C143.89 60.6958 143.64 60.8488 143.402 61.023C143.294 61.1012 143.151 61.1106 143.032 61.0513L141.7 60.3821C141.543 60.3029 141.351 60.3499 141.248 60.4922L140.183 61.9592C140.08 62.1016 140.095 62.2989 140.219 62.4237L141.268 63.482C141.361 63.5767 141.396 63.7157 141.356 63.8428C141.264 64.1233 141.196 64.4085 141.151 64.6958C141.131 64.828 141.036 64.9352 140.91 64.9775L139.496 65.4453C139.328 65.5011 139.225 65.6695 139.253 65.8439L139.538 67.6345C139.565 67.8089 139.715 67.937 139.892 67.938L141.38 67.9445C141.514 67.9464 141.637 68.0199 141.697 68.1385C141.829 68.3976 141.982 68.6476 142.155 68.886C142.233 68.9943 142.242 69.1373 142.183 69.2562L141.516 70.5851C141.437 70.7422 141.483 70.934 141.626 71.0378L143.093 72.1025C143.236 72.2063 143.433 72.191 143.558 72.0674L144.615 71.0202C144.71 70.9269 144.849 70.8915 144.975 70.9332C145.256 71.0234 145.541 71.0913 145.828 71.1365C145.96 71.1574 146.068 71.2512 146.111 71.3778L146.578 72.7907C146.634 72.9585 146.802 73.0612 146.977 73.0336L148.767 72.7492C148.942 72.7216 149.07 72.5711 149.071 72.3944L149.078 70.9056C149.079 70.7721 149.153 70.6483 149.271 70.5878C149.53 70.4559 149.78 70.3036 150.019 70.13C150.126 70.051 150.269 70.0419 150.388 70.1012L151.719 70.7705C151.877 70.8497 152.069 70.8026 152.172 70.6603L153.237 69.1933C153.34 69.0509 153.325 68.8536 153.201 68.7288L152.152 67.6706C152.059 67.576 152.023 67.4369 152.065 67.3102C152.156 67.029 152.224 66.745 152.269 66.4577C152.29 66.3263 152.384 66.2171 152.511 66.1755L153.924 65.7073C154.092 65.6515 154.195 65.483 154.167 65.3086L153.883 63.518C153.855 63.3436 153.705 63.2155 153.528 63.2145ZM149.696 67.7433C148.5 69.3919 146.192 69.76 144.541 68.5617C142.894 67.3659 142.528 65.0579 143.724 63.4092C144.92 61.7606 147.228 61.393 148.876 62.5888C150.527 63.7872 150.892 66.0946 149.696 67.7433Z" fill="url(#paint2_linear_4223_10973)"/>
<path d="M156.34 60.6009L156.233 59.9548C156.224 59.8967 156.247 59.838 156.294 59.803C156.397 59.7267 156.494 59.6417 156.585 59.5492C156.626 59.5071 156.687 59.4927 156.743 59.5099L157.369 59.7021C157.443 59.7247 157.523 59.6907 157.558 59.6209L157.912 58.9058C157.947 58.8361 157.926 58.7521 157.863 58.7071L157.331 58.3254C157.284 58.2912 157.258 58.2335 157.266 58.1752C157.285 58.0468 157.294 57.9181 157.292 57.7901C157.292 57.7316 157.325 57.6779 157.376 57.6498L157.955 57.3434C158.024 57.307 158.056 57.2261 158.031 57.1526L157.776 56.3962C157.752 56.3227 157.677 56.2782 157.6 56.2907L156.953 56.3971C156.896 56.4062 156.837 56.3839 156.802 56.3364C156.726 56.2336 156.641 56.1364 156.548 56.0458C156.506 56.0046 156.491 55.9431 156.508 55.8871L156.701 55.2604C156.724 55.1864 156.69 55.1062 156.62 55.0719L155.906 54.7174C155.836 54.6831 155.752 54.704 155.707 54.7671L155.324 55.2998C155.29 55.3473 155.232 55.3726 155.174 55.3643C155.046 55.345 154.917 55.3367 154.789 55.3382C154.73 55.3392 154.677 55.3058 154.649 55.2543L154.342 54.6747C154.306 54.606 154.225 54.5736 154.151 54.5985L153.395 54.8536C153.322 54.8784 153.277 54.9528 153.29 55.0295L153.396 55.6759C153.405 55.7339 153.382 55.7926 153.335 55.8277C153.232 55.904 153.135 55.9888 153.044 56.0812C153.003 56.1232 152.941 56.1377 152.885 56.1205L152.26 55.9284C152.186 55.9054 152.106 55.9394 152.071 56.0092L151.717 56.7242C151.682 56.794 151.704 56.8782 151.766 56.9236L152.298 57.3054C152.346 57.3396 152.371 57.3975 152.362 57.4554C152.344 57.5837 152.335 57.7123 152.337 57.8404C152.337 57.8988 152.304 57.9525 152.253 57.9806L151.674 58.2873C151.605 58.3237 151.573 58.4044 151.598 58.4779L151.853 59.2342C151.877 59.3077 151.952 59.3524 152.029 59.3399L152.675 59.2338C152.733 59.2243 152.793 59.2473 152.827 59.2942C152.904 59.397 152.988 59.4941 153.081 59.5853C153.123 59.6261 153.138 59.6874 153.12 59.7434L152.928 60.3703C152.905 60.4444 152.939 60.5242 153.009 60.5586L153.723 60.913C153.793 60.9473 153.877 60.9264 153.923 60.8634L154.305 60.3306C154.339 60.2831 154.397 60.2577 154.455 60.2665C154.584 60.2854 154.712 60.2936 154.84 60.2921C154.898 60.2915 154.953 60.3247 154.98 60.3767L155.287 60.9558C155.323 61.0244 155.404 61.0568 155.478 61.032L156.234 60.7772C156.307 60.7524 156.352 60.6776 156.34 60.6009ZM154.167 59.1204C153.447 58.7631 153.152 57.889 153.51 57.1673C153.867 56.4473 154.741 56.1528 155.462 56.5101C156.182 56.8674 156.477 57.7418 156.12 58.4619C155.762 59.1835 154.888 59.4777 154.167 59.1204Z" fill="url(#paint3_linear_4223_10973)"/>
<g opacity="0.33425">
<path d="M118.828 92.2575C118.828 93.1058 118.14 93.794 117.292 93.794C116.443 93.794 115.755 93.1058 115.755 92.2575C115.755 91.4122 116.443 90.7207 117.292 90.7207C118.14 90.7207 118.828 91.4122 118.828 92.2575Z" fill="#FF4129"/>
<path d="M117.29 89.8618C116.586 89.8618 116.009 89.3098 115.978 88.6052L115.513 78.7239C115.467 77.7111 116.274 76.8623 117.292 76.8623C118.274 76.8623 119.074 77.6615 119.074 78.6439V78.7103L118.606 88.6052C118.571 89.3103 117.994 89.8618 117.29 89.8618Z" fill="#FF4129"/>
</g>
<path d="M116.707 130.789H89.1367C89.1367 123.176 95.309 117.004 102.922 117.004C110.535 117.004 116.707 123.176 116.707 130.789Z" fill="#D1DEFF"/>
<path d="M114.814 110.186L110.865 117.024C108.528 115.671 105.816 114.894 102.922 114.894V107.001C107.254 107.001 111.317 108.161 114.814 110.186Z" fill="#EEEEEE"/>
<path d="M126.707 130.786H118.814C118.814 127.891 118.034 125.179 116.683 122.843L123.522 118.894C125.546 122.391 126.707 126.454 126.707 130.786Z" fill="#EEEEEE"/>
<path d="M89.1577 122.843C87.8044 125.179 87.0273 127.891 87.0273 130.786H79.1343C79.1343 126.454 80.2948 122.391 82.3196 118.894L89.1577 122.843Z" fill="#EEEEEE"/>
<path d="M123.521 118.894L116.683 122.843C115.287 120.429 113.278 118.421 110.865 117.025L114.814 110.187C118.424 112.275 121.433 115.283 123.521 118.894Z" fill="#EEEEEE"/>
<path d="M102.922 107.001V114.894C100.025 114.894 97.3127 115.671 94.9759 117.024L91.0269 110.186C94.5239 108.161 98.5866 107.001 102.922 107.001Z" fill="#EEEEEE"/>
<path d="M94.9761 117.025C92.5628 118.421 90.5537 120.429 89.158 122.843L82.3198 118.894C84.4081 115.283 87.4164 112.275 91.027 110.187L94.9761 117.025Z" fill="#EEEEEE"/>
<path d="M114.814 110.186L110.865 117.024C108.528 115.671 105.816 114.894 102.922 114.894V107.001C107.254 107.001 111.317 108.161 114.814 110.186Z" fill="#EAC250"/>
<path d="M126.707 130.786H118.814C118.814 127.891 118.034 125.179 116.683 122.843L123.522 118.894C125.546 122.391 126.707 126.454 126.707 130.786Z" fill="#E24067"/>
<path d="M89.1577 122.843C87.8044 125.179 87.0273 127.891 87.0273 130.786H79.1343C79.1343 126.454 80.2948 122.391 82.3196 118.894L89.1577 122.843Z" fill="#3DCFA4"/>
<path d="M123.521 118.894L116.683 122.843C115.287 120.429 113.278 118.421 110.865 117.025L114.814 110.187C118.424 112.275 121.433 115.283 123.521 118.894Z" fill="#F34B6D"/>
<path d="M102.922 107.001V114.894C100.025 114.894 97.3127 115.671 94.9759 117.024L91.0269 110.186C94.5239 108.161 98.5866 107.001 102.922 107.001Z" fill="#FADF68"/>
<path d="M94.9761 117.025C92.5628 118.421 90.5537 120.429 89.158 122.843L82.3198 118.894C84.4081 115.283 87.4164 112.275 91.027 110.187L94.9761 117.025Z" fill="#30BB93"/>
<path d="M100.328 127.986C101.134 126.55 102.95 126.039 104.386 126.844C105.822 127.649 106.333 129.466 105.528 130.902C104.723 132.338 102.906 132.849 101.47 132.044C100.034 131.238 99.5228 129.422 100.328 127.986Z" fill="#111228"/>
<path d="M101.891 127.393L102.05 131.559L85.5769 130.055L101.891 127.393Z" fill="#111228"/>
<path d="M80.9811 134.981H79.8782V133.021C79.8782 132.888 79.7697 132.785 79.6406 132.787C79.5139 132.789 79.4126 132.89 79.4126 133.021V135.151C79.4126 135.316 79.5467 135.446 79.7083 135.446H80.9811C81.1099 135.446 81.2155 135.346 81.2155 135.215C81.2155 135.086 81.1118 134.981 80.9811 134.981Z" fill="#B2C7FF"/>
<path d="M82.6556 132.769C81.8815 132.769 81.3431 133.302 81.3276 134.127C81.3428 134.941 81.8751 135.482 82.6556 135.482C83.4476 135.482 83.9682 134.923 83.9839 134.124C83.9684 133.346 83.4628 132.769 82.6556 132.769ZM82.6556 135.038C82.1135 135.038 81.7932 134.65 81.7932 134.126C81.7932 133.608 82.1055 133.213 82.6556 133.213C83.1962 133.213 83.5183 133.6 83.5183 134.126C83.5183 134.659 83.1887 135.038 82.6556 135.038Z" fill="#B2C7FF"/>
<path d="M87.2532 132.965L86.7175 134.726L86.1786 132.972C86.142 132.85 86.0271 132.78 85.909 132.787C85.8039 132.793 85.705 132.861 85.6719 132.972L85.133 134.726L84.597 132.964C84.5372 132.772 84.318 132.736 84.2028 132.852C84.1338 132.921 84.1311 133.005 84.1559 133.096L84.8591 135.257C84.9092 135.395 85.0175 135.465 85.1372 135.464C85.2615 135.463 85.3759 135.381 85.4143 135.254L85.9252 133.636L86.4356 135.253C86.473 135.378 86.5866 135.464 86.7138 135.464C86.8348 135.464 86.9404 135.395 86.9916 135.255L87.6956 133.093C87.7202 133.001 87.7135 132.918 87.6471 132.851C87.5287 132.733 87.3127 132.775 87.2532 132.965Z" fill="#B2C7FF"/>
<path d="M120.414 133.021V133.905H119.194V133.021C119.194 132.89 119.089 132.787 118.96 132.787C118.833 132.787 118.729 132.888 118.729 133.021V135.234C118.729 135.363 118.827 135.46 118.953 135.464C119.083 135.467 119.194 135.368 119.194 135.234V134.349H120.414V135.234C120.414 135.362 120.514 135.464 120.645 135.464C120.772 135.464 120.879 135.367 120.879 135.234V133.021C120.879 132.889 120.774 132.788 120.645 132.788C120.514 132.788 120.414 132.891 120.414 133.021Z" fill="#B2C7FF"/>
<path d="M121.436 133.021V135.234C121.436 135.363 121.537 135.464 121.666 135.464C121.796 135.464 121.901 135.364 121.901 135.234V133.021C121.901 132.89 121.795 132.788 121.668 132.787C121.54 132.786 121.436 132.888 121.436 133.021Z" fill="#B2C7FF"/>
<path d="M124.421 133.934H123.714C123.594 133.934 123.498 134.031 123.498 134.151C123.498 134.269 123.592 134.367 123.714 134.367H124.236V134.905C124.064 134.991 123.876 135.035 123.678 135.035C123.116 135.035 122.773 134.66 122.773 134.129C122.773 133.543 123.153 133.223 123.66 133.223C123.892 133.223 124.096 133.277 124.331 133.417C124.421 133.462 124.534 133.445 124.598 133.378C124.706 133.265 124.655 133.085 124.554 133.038C124.235 132.836 123.953 132.769 123.624 132.769C122.885 132.769 122.307 133.316 122.307 134.129C122.307 134.924 122.848 135.482 123.635 135.482C123.925 135.482 124.211 135.412 124.486 135.275C124.588 135.227 124.662 135.121 124.662 134.99V134.176C124.662 134.038 124.552 133.934 124.421 133.934Z" fill="#B2C7FF"/>
<path d="M127.087 132.788C126.958 132.788 126.856 132.89 126.856 133.021V133.905H125.637V133.021C125.637 132.886 125.525 132.782 125.393 132.787C125.27 132.792 125.171 132.892 125.171 133.021V135.233C125.171 135.362 125.27 135.459 125.394 135.464C125.524 135.468 125.637 135.37 125.637 135.233V134.349H126.856V135.233C126.856 135.362 126.957 135.464 127.088 135.464C127.215 135.464 127.322 135.367 127.322 135.233V133.021C127.322 132.889 127.216 132.788 127.087 132.788Z" fill="#B2C7FF"/>
<path d="M97.9044 102.221H97.774C97.6383 102.221 97.5226 102.309 97.469 102.43L96.6388 104.5L95.8074 102.428C95.7559 102.312 95.641 102.221 95.5034 102.221H95.3732C95.189 102.221 95.0474 102.372 95.0474 102.551V104.904C95.0474 105.043 95.1519 105.142 95.2778 105.15C95.418 105.159 95.5455 105.055 95.5455 104.904V103.023L96.3223 104.943C96.377 105.073 96.5034 105.151 96.6386 105.151C96.7746 105.151 96.9012 105.072 96.9554 104.942L97.7322 103.023V104.904C97.7322 105.044 97.8447 105.151 97.9828 105.151C98.1204 105.151 98.23 105.044 98.23 104.904V102.551C98.23 102.371 98.0876 102.221 97.9044 102.221Z" fill="#B2C7FF"/>
<path d="M100.627 104.005C100.627 103.414 100.241 102.941 99.6189 102.941C98.9627 102.941 98.6069 103.441 98.6069 104.056C98.6069 104.773 99.032 105.17 99.6979 105.17C99.9776 105.17 100.168 105.131 100.422 104.987C100.599 104.885 100.588 104.709 100.49 104.619C100.418 104.553 100.312 104.54 100.231 104.581C100.058 104.667 99.9117 104.696 99.7293 104.696C99.408 104.696 99.1856 104.56 99.1211 104.252H100.376C100.53 104.252 100.627 104.139 100.627 104.005ZM99.1168 103.821C99.1613 103.535 99.3827 103.384 99.6168 103.385C99.8627 103.386 100.08 103.541 100.125 103.821H99.1168Z" fill="#B2C7FF"/>
<path d="M102.467 102.345V103.153C102.289 103.012 102.086 102.941 101.862 102.941C101.317 102.941 100.838 103.378 100.838 104.056C100.838 104.735 101.318 105.17 101.862 105.17C102.089 105.17 102.293 105.098 102.472 104.954C102.493 105.06 102.589 105.146 102.709 105.15C102.848 105.154 102.965 105.05 102.965 104.903V102.345C102.965 102.201 102.851 102.091 102.709 102.095C102.582 102.099 102.467 102.196 102.467 102.345ZM102.467 104.442C102.321 104.593 102.129 104.696 101.914 104.696C101.577 104.696 101.337 104.486 101.337 104.056C101.337 103.625 101.577 103.416 101.914 103.416C102.13 103.416 102.322 103.519 102.467 103.669V104.442Z" fill="#B2C7FF"/>
<path d="M103.448 103.212V104.904C103.448 105.046 103.56 105.15 103.695 105.15C103.83 105.15 103.946 105.047 103.946 104.904V103.212C103.946 103.062 103.833 102.962 103.697 102.962C103.556 102.962 103.448 103.072 103.448 103.212Z" fill="#B2C7FF"/>
<path d="M103.711 102.153H103.687C103.546 102.153 103.417 102.261 103.417 102.44C103.417 102.59 103.538 102.71 103.687 102.71H103.711C103.854 102.71 103.982 102.602 103.982 102.424C103.982 102.272 103.858 102.153 103.711 102.153Z" fill="#B2C7FF"/>
<path d="M105.849 103.208V104.366C105.694 104.555 105.516 104.7 105.272 104.7C105.023 104.7 104.908 104.569 104.908 104.289V103.208C104.908 103.065 104.796 102.963 104.663 102.962C104.529 102.961 104.41 103.062 104.41 103.208V104.328C104.41 104.792 104.7 105.17 105.185 105.17C105.43 105.17 105.628 105.1 105.849 104.905C105.852 105.042 105.963 105.15 106.1 105.15C106.238 105.15 106.347 105.04 106.347 104.9V103.208C106.347 103.066 106.235 102.962 106.1 102.962C105.964 102.962 105.849 103.067 105.849 103.208Z" fill="#B2C7FF"/>
<path d="M109.258 102.941C108.955 102.941 108.714 103.056 108.541 103.281C108.416 103.079 108.205 102.941 107.929 102.941C107.665 102.941 107.497 103.017 107.327 103.185C107.315 103.059 107.205 102.96 107.071 102.963C106.935 102.966 106.831 103.074 106.831 103.212V104.904C106.831 105.049 106.945 105.149 107.077 105.15C107.21 105.15 107.328 105.049 107.328 104.904V103.741C107.5 103.467 107.657 103.412 107.827 103.412C108.043 103.412 108.159 103.492 108.159 103.839V104.904C108.159 105.049 108.273 105.149 108.406 105.15C108.541 105.15 108.657 105.046 108.657 104.904V103.741C108.829 103.467 108.985 103.412 109.155 103.412C109.372 103.412 109.488 103.494 109.488 103.839V104.904C109.488 105.046 109.599 105.15 109.735 105.15C109.87 105.15 109.986 105.047 109.986 104.904V103.768C109.986 103.335 109.731 102.941 109.258 102.941Z" fill="#B2C7FF"/>
<mask id="mask0_4223_10973" style="mask-type:luminance" maskUnits="userSpaceOnUse" x="-19" y="-21" width="220" height="221">
<path d="M0.499973 -0.000133514H200.5V200H0.499973V-0.000133514ZM-12.2835 -20.75C-15.4867 -20.75 -18.0835 -18.1721 -18.0835 -14.9919C-18.0835 -11.8116 -15.4867 -9.23347 -12.2835 -9.23347C-9.08029 -9.23347 -6.61683 -11.5836 -6.61683 -15.0001C-6.61683 -18.4001 -9.08029 -20.75 -12.2835 -20.75Z" fill="white"/>
</mask>
<g mask="url(#mask0_4223_10973)">
<path d="M95.1969 77.4928L87.6782 85.0114V74.376C90.6126 74.376 93.27 75.5658 95.1969 77.4928Z" fill="#EFEFEF"/>
<path d="M97.1305 89.8519L87.6782 85.0109L95.1969 77.4922C98.4484 80.7439 99.251 85.7447 97.1305 89.8519Z" fill="#EFEFEF"/>
<path d="M97.1305 89.8518C95.3726 93.2867 91.8025 95.6395 87.6782 95.6395V85.0107L97.1305 89.8518Z" fill="#EFEFEF"/>
<path d="M87.6781 85.0107V95.6395C81.8093 95.6395 77.0493 90.8795 77.0493 85.0107H87.6781Z" fill="#EFEFEF"/>
<path d="M87.6767 74.3789C81.8061 74.3789 77.0469 79.1381 77.0469 85.009H87.6767V74.3789Z" fill="#EFEFEF"/>
<path d="M87.677 90.7547C84.5037 90.7547 81.9312 88.1819 81.9312 85.0086C81.9312 81.8352 84.5037 79.2627 87.677 79.2627C95.2738 79.2627 95.2845 90.7547 87.677 90.7547Z" fill="#EFEFEF"/>
</g>
<path d="M95.1969 77.4928L87.6782 85.0114V74.376C90.6126 74.376 93.27 75.5658 95.1969 77.4928Z" fill="url(#paint4_linear_4223_10973)"/>
<path d="M97.1305 89.8519L87.6782 85.0109L95.1969 77.4922C98.4484 80.7439 99.251 85.7447 97.1305 89.8519Z" fill="url(#paint5_linear_4223_10973)"/>
<path d="M97.1305 89.8518C95.3726 93.2867 91.8025 95.6395 87.6782 95.6395V85.0107L97.1305 89.8518Z" fill="url(#paint6_linear_4223_10973)"/>
<path d="M87.6781 85.0107V95.6395C81.8093 95.6395 77.0493 90.8795 77.0493 85.0107H87.6781Z" fill="url(#paint7_linear_4223_10973)"/>
<path d="M87.6767 74.3789C81.8061 74.3789 77.0469 79.1381 77.0469 85.009H87.6767V74.3789Z" fill="url(#paint8_linear_4223_10973)"/>
<path d="M87.677 90.7547C84.5037 90.7547 81.9312 88.1819 81.9312 85.0086C81.9312 81.8352 84.5037 79.2627 87.677 79.2627C95.2738 79.2627 95.2845 90.7547 87.677 90.7547Z" fill="white"/>
<path d="M76.6669 98.5722C76.6669 98.5711 76.6678 98.5703 76.6689 98.5703C76.67 98.5703 76.6709 98.5711 76.6709 98.5722C76.6709 98.5733 76.67 98.5742 76.6689 98.5742C76.6678 98.5742 76.6669 98.5733 76.6669 98.5722Z" fill="#FF4129"/>
<path d="M100.837 72.6924C100.837 72.6913 100.838 72.6904 100.839 72.6904C100.84 72.6904 100.841 72.6913 100.841 72.6924C100.841 72.6934 100.84 72.6943 100.839 72.6943C100.838 72.6943 100.837 72.6934 100.837 72.6924Z" fill="#FF4129"/>
<path d="M146.521 65.8851C146.761 66.0531 146.913 66.1811 146.974 66.2718C147.033 66.3624 147.065 66.4584 147.065 66.5598C147.065 66.6584 147.038 66.7491 146.99 66.8371C146.94 66.9224 146.87 66.9944 146.785 67.0478C146.724 67.0851 146.636 67.1144 146.521 67.1331V65.8851ZM146.02 64.9571C145.953 64.8611 145.918 64.7544 145.918 64.6424C145.918 64.5224 145.956 64.4238 146.03 64.3438C146.105 64.2664 146.22 64.2158 146.372 64.1971V65.2691C146.206 65.1598 146.089 65.0558 146.02 64.9571ZM145.556 67.1011C145.708 67.1624 145.844 67.2078 145.969 67.2344C146.094 67.2611 146.228 67.2771 146.372 67.2824V67.5784H146.521V67.2824C146.806 67.2584 147.03 67.1651 147.19 67.0051C147.35 66.8424 147.43 66.6558 147.43 66.4424C147.43 66.2531 147.377 66.0931 147.265 65.9651C147.156 65.8371 146.908 65.6371 146.521 65.3678V64.1971C146.734 64.2184 146.894 64.2851 147.001 64.3971C147.108 64.5118 147.172 64.6904 147.19 64.9331H147.281V64.2451C147.03 64.1491 146.884 64.0958 146.838 64.0851C146.753 64.0638 146.646 64.0478 146.521 64.0424V63.8291H146.372V64.0424C146.11 64.0718 145.91 64.1571 145.769 64.2984C145.63 64.4398 145.558 64.6051 145.558 64.7918C145.558 64.9598 145.598 65.1038 145.681 65.2184C145.796 65.3838 146.028 65.5731 146.372 65.7864V67.1331C146.145 67.1118 145.972 67.0451 145.857 66.9331C145.742 66.8211 145.676 66.6584 145.657 66.4478H145.556V67.1011Z" fill="#FADF68"/>
<path d="M39.7372 156.928L38.9546 160.198C38.8202 160.888 39.3335 161.535 40.0362 161.558C42.9215 161.655 48.593 161.559 49.6402 161.55C49.7236 161.549 49.79 161.483 49.794 161.4C49.8407 160.399 49.1764 159.763 48.1975 159.271L44.4228 156.73C44.4159 156.725 44.4079 156.723 44.3996 156.724L39.7372 156.928Z" fill="#373A50"/>
<path d="M39.7368 156.927C39.7792 157.896 44.4422 157.692 44.3997 156.723L44.492 152.894L40.1259 152.758L39.7368 156.927Z" fill="#FECDCB"/>
<path d="M39.3398 155.164C39.3398 155.769 44.6468 155.769 44.6468 155.164L47.6164 140.313C47.6606 140.136 47.6937 139.954 47.7132 139.769C47.7132 139.766 47.7132 139.766 47.7132 139.766C47.727 139.642 47.7324 139.517 47.7324 139.39C47.7324 137.351 46.0694 135.699 44.0196 135.699C42.1134 135.699 40.5414 137.127 40.3316 138.967L40.3065 139.39V139.409L39.3398 155.164Z" fill="#373A50"/>
<path d="M40.3317 139.32C40.3602 141.356 42.0437 142.985 44.0906 142.956C45.8805 142.931 47.3573 141.644 47.6789 139.96C47.689 139.899 47.6994 139.841 47.7095 139.777L49.0426 131.575C49.4482 129.078 49.7354 126.551 49.7071 124.022L49.9997 113.397L41.2773 113.832L40.3458 138.939C40.3458 138.942 40.3458 138.942 40.3458 138.942L40.3338 139.271C40.3314 139.287 40.3314 139.304 40.3317 139.32Z" fill="#373A50"/>
<path d="M55.4198 156.928L54.6372 160.198C54.5028 160.888 55.0161 161.535 55.7188 161.558C58.6041 161.655 64.2756 161.559 65.3228 161.55C65.4062 161.549 65.4726 161.483 65.4766 161.4C65.5233 160.399 64.859 159.763 63.8801 159.271L60.1054 156.73C60.0985 156.725 60.0905 156.723 60.0822 156.724L55.4198 156.928Z" fill="#373A50"/>
<path d="M55.4192 156.927C55.4616 157.895 60.1245 157.691 60.0821 156.723L59.5077 152.76L55.1416 152.624L55.4192 156.927Z" fill="#FECDCB"/>
<path d="M62.7191 105.988C62.9106 106.29 63.1487 106.541 63.4196 106.738C64.302 107.376 65.5164 107.451 66.4927 106.833C67.4015 106.258 67.8567 105.235 67.7495 104.234C67.7383 104.134 67.7215 104.035 67.7023 103.938C67.2444 101.632 61.982 96.3223 61.982 96.3223L57.5762 98.2687L62.385 105.224C62.3863 105.227 62.3855 105.23 62.3868 105.232C62.4572 105.492 62.5676 105.748 62.7191 105.988Z" fill="#FECDCB"/>
<path d="M49.8293 113.552L49.7072 124.197C49.6997 126.744 50.0106 129.287 50.4429 131.797L51.7989 139.672C51.8128 139.896 51.8514 140.114 51.9096 140.324C52.3213 141.838 53.708 142.954 55.3573 142.954C57.3298 142.954 58.9293 141.357 58.9293 139.39C58.9293 139.351 58.9293 139.313 58.9266 139.274L58.9101 139.025C58.9101 139.022 58.9098 139.017 58.9072 137.681L57.5896 113.21L49.8293 113.552Z" fill="#373A50"/>
<path d="M37.8234 106.113C37.625 106.426 37.3784 106.687 37.0976 106.891C36.1832 107.552 34.925 107.63 33.9136 106.989C32.972 106.393 32.5002 105.333 32.6112 104.296C32.6229 104.193 32.6405 104.09 32.6602 103.989C33.1346 101.6 36.1618 97.2988 36.1618 97.2988L40.7272 99.3159L38.1698 105.322C38.1685 105.325 38.169 105.328 38.1677 105.331C38.0949 105.6 37.9805 105.865 37.8234 106.113Z" fill="#FECDCB"/>
<path d="M51.7935 139.39C51.7935 139.533 51.8017 139.677 51.8212 139.818C51.8351 139.942 51.8543 140.066 51.8847 140.185L54.8324 155.38C54.8489 155.808 60.1255 155.595 60.1089 155.164L58.9183 139.205C58.8244 137.321 57.2663 135.823 55.3601 135.823C53.3903 135.823 51.7935 137.42 51.7935 139.39Z" fill="#373A50"/>
<path d="M35.0181 96.7926C35.0181 96.7926 38.2399 90.8723 39.8522 89.2929C41.3071 87.8675 52.0367 84.6667 57.8709 89.5187C58.9167 90.3886 63.0338 96.9073 63.0338 96.9073L58.5935 100.745L58.097 99.7443L58.1951 114.736C58.1466 115.774 40.3866 115.473 40.4351 114.435L41.9461 98.3438L40.7202 99.6446C40.5063 100.072 34.8042 97.2203 35.0181 96.7926Z" fill="#007E7A"/>
<path d="M31.3571 117.678C30.5702 117.52 30.058 116.753 30.2163 115.966C30.2163 115.966 30.4694 112.807 32.5224 104.831L32.527 104.807C32.8457 103.291 34.3263 102.313 35.8479 102.619C37.3747 102.926 38.367 104.415 38.0594 105.945C38.0521 105.981 38.0451 106.015 38.0352 106.051L38.051 106.054L38.0018 106.178C37.9553 106.343 37.8935 106.499 37.8201 106.647L33.0443 116.647C32.8413 117.373 32.1074 117.829 31.3571 117.678Z" fill="#FECDCB"/>
<path d="M28.5181 117.235L27.4497 124.837C27.408 125.134 27.5651 125.416 27.8402 125.54L37.6754 129.931C38.0808 130.111 38.5477 129.852 38.61 129.409L39.6783 121.807C39.7194 121.515 39.5632 121.228 39.2881 121.104L29.4522 116.718C29.0475 116.533 28.5803 116.792 28.5181 117.235Z" fill="#111228"/>
<path d="M29.8209 120.612C27.2546 118.621 30.1353 115.821 30.3276 115.639C30.3306 115.636 30.331 115.634 30.3373 115.629C30.6544 115.246 31.1643 115.039 31.6904 115.125C32.4718 115.254 33.008 115.986 32.8925 116.77C32.8948 116.773 32.8941 116.775 32.8938 116.778C32.9492 116.933 33.5297 118.591 32.8879 118.812C32.4585 118.957 32.3837 118.478 32.3747 118.122C32.3335 119.191 32.0422 122.335 29.8209 120.612Z" fill="#FECDCB"/>
<path d="M61.0058 112.9C61.6111 113.383 62.4955 113.287 62.9791 112.682C62.9791 112.682 63.2158 112.733 67.8389 106.268L67.8533 106.25C68.7767 105.073 68.5811 103.372 67.411 102.437C66.2369 101.499 64.5204 101.689 63.5806 102.865C63.5581 102.893 63.537 102.919 63.5166 102.949L63.5046 102.939L63.4439 103.052C63.3509 103.189 63.2738 103.332 63.2095 103.478L60.7217 111.013C60.3108 111.613 60.4288 112.439 61.0058 112.9Z" fill="#FECDCB"/>
<path d="M66.0669 91.2667V91.2334" stroke="#FECDCB" stroke-width="0.533333" stroke-linecap="round" stroke-linejoin="round"/>
<path d="M59.0556 116.024C62.1194 116.687 62.4029 112.819 62.4181 112.565C62.4177 112.561 62.4195 112.559 62.4189 112.552C62.5052 112.08 62.3426 111.574 61.9519 111.239C61.3718 110.741 60.4983 110.798 59.9907 111.37C59.9871 111.37 59.9857 111.372 59.9839 111.374C59.8348 111.43 58.2488 112.029 58.4834 112.64C58.6424 113.048 59.0438 112.806 59.3123 112.592C58.5474 113.285 56.4038 115.451 59.0556 116.024Z" fill="#FECDCB"/>
<path d="M47.2837 81.4514L47.3288 87.0218C47.3288 87.0218 47.9376 89.717 50.173 89.965C52.4056 90.213 51.7434 86.8386 51.7434 86.8386C51.6954 86.6581 51.6589 86.4807 51.6362 86.3087C51.4024 84.7133 52.0816 83.5687 52.0816 83.5687L51.3712 82.7877L50.0546 81.3389L47.2837 81.4514Z" fill="#FECDCB"/>
<path d="M48.5043 82.9851C49.4939 84.8315 51.6363 86.3089 51.6363 86.3089C51.4024 84.7134 52.0816 83.5689 52.0816 83.5689L51.3712 82.7878L50.4973 81.9393C50.4973 81.9393 47.512 81.1387 48.5043 82.9851Z" fill="#FECDCB"/>
<path d="M45.7106 79.802C45.6364 81.0191 46.9388 81.3793 47.2303 81.442C47.2532 81.4476 47.2644 81.4479 47.2759 81.4535C47.2815 81.4535 47.2818 81.4535 47.2874 81.4535C47.2874 81.4535 50.79 86.6927 53.6527 85.2185C55.1324 84.4529 54.9098 80.042 54.7039 77.8479C54.6298 77.0993 54.561 76.6081 54.561 76.6081C54.561 76.6081 52.8242 74.1799 49.8071 74.3799C46.7903 74.5855 47.1047 79.3793 47.1047 79.3793C47.1047 79.3793 45.785 78.6879 45.7106 79.802Z" fill="#FECDCB"/>
<path d="M45.7107 79.8022C45.7851 78.688 47.1049 79.3795 47.1049 79.3795C47.1049 79.3795 46.8875 80.168 47.2875 80.2251C47.6819 80.2878 48.0246 77.4824 48.0246 77.4824C48.0246 77.4824 52.1043 78.728 54.7041 77.848C55.5441 77.568 56.2297 77.0656 56.5723 76.2256C57.9779 72.7859 54.2926 70.8832 52.5555 71.2947C50.8185 71.7062 50.7961 72.2203 48.8075 72.3859C48.8075 72.3859 45.2593 71.9232 44.2651 75.4486C43.271 78.9739 47.2875 83.2904 47.2875 83.2904V81.4536C47.2819 81.4536 47.2817 81.4536 47.2761 81.4536C47.2646 81.4536 47.2475 81.4478 47.2305 81.4422C46.939 81.3795 45.6366 81.0192 45.7107 79.8022Z" fill="#111228"/>
<path d="M52.4048 79.4766C52.5808 80.063 52.6509 80.6118 52.7611 80.852C52.8067 80.956 52.8683 81.0419 52.9541 81.12C53.1765 81.3414 53.2947 81.504 53.1245 81.804C53.0579 81.9112 52.972 81.9971 52.8813 82.0763C53.2437 81.5955 53.1275 81.4344 52.8685 81.2128C52.7739 81.1334 52.6907 81.0222 52.6395 80.907C52.5043 80.5958 52.4211 79.7347 52.4048 79.4766Z" fill="#111228"/>
<path d="M52.0606 83.1463C52.1334 83.5991 52.5126 83.9151 52.9065 83.8519C53.2982 83.7889 53.5596 83.3703 53.4868 82.9175C53.4854 82.9092 53.4825 82.9036 53.4814 82.8975C53.0966 83.0556 52.6236 83.1313 52.0596 83.1255C52.0606 83.1316 52.0593 83.138 52.0606 83.1463Z" fill="white"/>
<path d="M53.8922 78.8521C53.582 78.8033 53.4599 78.7222 53.2463 78.9073C53.1948 78.9692 53.1343 79.0316 53.0562 79.0924C53.0642 78.9982 53.0828 78.9017 53.1226 78.8124C53.2359 78.6014 53.4818 78.5433 53.6839 78.6561C53.7729 78.7028 53.8372 78.7734 53.8922 78.8521Z" fill="#111228"/>
<path d="M51.2354 79.2049C50.9253 79.1561 50.8031 79.075 50.5896 79.2601C50.5381 79.322 50.4775 79.3841 50.3994 79.4449C50.4074 79.3508 50.4261 79.2542 50.4658 79.1649C50.5789 78.9545 50.8245 78.8956 51.0271 79.0086C51.1165 79.0553 51.1805 79.1262 51.2354 79.2049Z" fill="#111228"/>
<path d="M53.1725 79.6447C53.069 79.3119 53.2122 79.029 53.4325 78.9604C53.6986 78.8786 53.9514 79.1031 54.0354 79.3788L53.7802 79.4562C53.7402 79.3242 53.6181 79.1818 53.5114 79.2151C53.3992 79.25 53.389 79.4434 53.4272 79.5655L53.1725 79.6447Z" fill="#FECDCB"/>
<path d="M50.7095 80.0394C50.6021 79.6938 50.7591 79.4205 50.9722 79.3546C51.213 79.2797 51.4778 79.4632 51.5744 79.772L51.3197 79.8517C51.265 79.6768 51.1325 79.5832 51.0509 79.6093C50.9413 79.6432 50.9226 79.8264 50.9642 79.96L50.7095 80.0394Z" fill="#FECDCB"/>
<path d="M50.8371 79.9997C50.9105 80.2349 51.1035 80.3818 51.2728 80.3295C51.4406 80.2797 51.5185 80.0471 51.4473 79.8117C51.3742 79.5786 51.179 79.4301 51.0115 79.4821C50.8419 79.5343 50.7638 79.7645 50.8371 79.9997Z" fill="#111228"/>
<path d="M53.2996 79.6049C53.3708 79.8404 53.566 79.9871 53.7334 79.9351C53.9033 79.8847 53.9812 79.6527 53.9078 79.4175C53.8369 79.1841 53.6414 79.0353 53.4718 79.0876C53.3044 79.1396 53.2262 79.3697 53.2996 79.6049Z" fill="#111228"/>
<path d="M161.936 149.022L162.64 151.963C162.761 152.584 162.299 153.165 161.667 153.186C159.072 153.273 153.972 153.187 153.031 153.179C152.955 153.178 152.896 153.119 152.892 153.044C152.85 152.144 153.448 151.572 154.328 151.13L157.722 148.844C157.729 148.84 157.736 148.839 157.743 148.839L161.936 149.022Z" fill="#373A50"/>
<path d="M161.937 149.022C161.899 149.893 157.705 149.71 157.744 148.838L157.661 145.394L161.587 145.272L161.937 149.022Z" fill="#FECDCB"/>
<path d="M162.294 147.437C162.294 147.981 157.521 147.981 157.521 147.437L154.851 134.081C154.811 133.922 154.781 133.758 154.764 133.592C154.764 133.59 154.764 133.59 154.764 133.59C154.752 133.478 154.747 133.366 154.747 133.252C154.747 131.418 156.242 129.933 158.085 129.933C159.799 129.933 161.213 131.217 161.402 132.872L161.424 133.252V133.269L162.294 147.437Z" fill="#373A50"/>
<path d="M161.401 133.19C161.376 135.02 159.862 136.485 158.021 136.459C156.412 136.436 155.084 135.28 154.794 133.765C154.785 133.71 154.776 133.658 154.767 133.601L153.568 126.224C153.204 123.979 152.945 121.707 152.971 119.433L152.708 111.077L160.551 111.468L161.389 132.846C161.389 132.849 161.389 132.849 161.389 132.849L161.4 133.145C161.402 133.16 161.402 133.175 161.401 133.19Z" fill="#373A50"/>
<path d="M147.833 149.022L148.537 151.963C148.658 152.584 148.197 153.165 147.565 153.186C144.97 153.273 139.87 153.187 138.928 153.179C138.853 153.178 138.793 153.119 138.79 153.044C138.748 152.144 139.345 151.572 140.226 151.13L143.62 148.844C143.626 148.84 143.634 148.839 143.641 148.839L147.833 149.022Z" fill="#373A50"/>
<path d="M147.834 149.022C147.796 149.893 143.603 149.71 143.641 148.838L144.091 145.394L148.017 145.272L147.834 149.022Z" fill="#FECDCB"/>
<path d="M151.094 133.252C151.094 133.381 151.087 133.511 151.07 133.637C151.057 133.749 151.04 133.861 151.012 133.968L148.362 147.631C148.347 148.016 143.602 147.825 143.617 147.437L144.687 133.085C144.772 131.391 146.173 130.045 147.887 130.045C149.658 130.045 151.094 131.481 151.094 133.252Z" fill="#373A50"/>
<path d="M152.861 111.216L152.971 119.59C152.977 121.88 152.698 124.166 152.309 126.423L151.09 133.505C151.077 133.706 151.043 133.902 150.99 134.091C150.62 135.452 149.373 136.456 147.89 136.456C146.116 136.456 144.678 135.02 144.678 133.252C144.678 133.217 144.678 133.182 144.68 133.147L144.695 132.924C144.695 132.921 144.695 132.916 144.698 132.914L145.883 110.908L152.861 111.216Z" fill="#373A50"/>
<path d="M145.751 106.448C145.75 106.774 145.81 107.085 145.922 107.369C146.288 108.293 147.185 108.946 148.24 108.95C149.221 108.953 150.073 108.39 150.482 107.567C150.522 107.485 150.558 107.4 150.591 107.316C151.37 105.317 151.159 100.69 151.159 100.69L146.814 100.026L145.869 105.697C145.869 105.699 145.867 105.701 145.866 105.704C145.793 105.939 145.752 106.19 145.751 106.448Z" fill="#FECDCB"/>
<path d="M148.802 95.0388C147.403 96.8099 146.618 99.9869 146.027 102.263C145.921 102.729 151.13 103.947 151.236 103.482L148.802 95.0388Z" fill="#007E7A"/>
<path d="M138.151 112.08C138.406 112.739 139.148 113.069 139.807 112.814C139.807 112.814 142.511 112.121 149.125 109.145L149.144 109.137C150.412 108.633 151.039 107.202 150.546 105.927C150.051 104.649 148.61 104.011 147.329 104.506C147.298 104.518 147.27 104.529 147.24 104.543L147.235 104.53L147.135 104.592C146.999 104.657 146.873 104.733 146.755 104.819L138.793 110.462C138.193 110.747 137.907 111.452 138.151 112.08Z" fill="#FECDCB"/>
<path d="M148.062 80.5056C148.196 81.2123 148.403 81.9395 148.896 82.4632C149.13 82.7123 149.471 82.9147 149.802 82.8285C150.137 82.7413 150.333 82.3968 150.443 82.0688C150.731 81.2085 150.668 80.2368 150.273 79.4203C150.031 78.9189 149.648 78.4624 149.134 78.2488C148.781 78.1024 147.774 78.0184 147.647 78.5413C147.588 78.7805 147.814 79.2027 147.866 79.4435C147.942 79.7955 147.995 80.152 148.062 80.5056Z" fill="#111228"/>
<path d="M165.079 91.0053C164.795 91.8063 164.115 92.4226 163.349 92.7893C162.581 93.1559 161.726 93.2983 160.881 93.3826C158.063 93.6605 155.218 93.3287 152.428 92.8407C151.536 92.6866 150.642 92.5138 149.813 92.1495C148.986 91.7853 148.225 91.2085 147.795 90.4122C147.365 89.6183 147.319 88.5837 147.814 87.8295C148.311 87.0754 149.549 86.6341 150.34 87.0709C150.6 87.2669 150.901 87.3975 151.244 87.449C151.544 87.493 151.857 87.4527 151.884 87.4397C152.34 87.3821 152.864 87.1135 153.248 86.8607C153.724 86.5578 154.105 86.2039 154.452 85.8682C154.924 85.397 155.253 84.9685 155.279 84.9365C155.279 84.9365 156.482 84.5442 156.517 83.4607C156.547 82.4986 155.601 82.8794 155.389 82.9775L155.368 82.8981L155.365 82.8933C155.365 82.8957 155.368 82.9002 155.365 82.905C155.356 82.9517 155.352 82.9821 155.349 82.9914C155.349 82.9938 155.349 82.9935 155.349 82.9959C155.277 83.1269 155.022 83.1594 154.899 83.0357C154.747 82.8861 154.737 82.6482 154.716 82.4357C154.558 80.9365 153.138 79.6778 151.632 79.7037C151.106 79.713 150.592 79.8578 150.079 79.9698C149.721 80.0469 149.355 80.1122 148.995 80.1029C148.834 80.1005 148.673 80.0866 148.517 80.0493C148.001 79.9325 147.513 79.5821 147.37 79.0754C147.186 78.4215 147.611 77.7538 148.08 77.2634C149.334 75.9511 151.083 75.1293 152.89 74.9962C154.7 74.8655 156.549 75.4258 157.979 76.5421C159.533 77.7525 158.926 78.5573 159.076 79.7759C159.167 80.5114 159.34 81.0909 159.858 81.6511C160.397 82.2349 161.084 82.6599 161.672 83.1946C162.259 83.7317 162.765 84.4463 162.756 85.2402C162.744 85.9359 162.345 86.6527 162.618 87.2903C162.936 88.0282 163.919 88.1589 164.535 88.6727C165.187 89.2167 165.364 90.2066 165.079 91.0053Z" fill="#111228"/>
<path d="M155.383 82.9528C155.36 82.9645 155.348 82.9717 155.344 82.9717C155.272 83.1032 155.018 83.1381 154.893 83.0155C154.74 82.8675 154.729 82.6293 154.706 82.4171C154.534 80.9195 153.103 79.6736 151.597 79.7128C151.072 79.7269 150.559 79.8763 150.046 79.9928C149.69 80.0731 149.324 80.1419 148.964 80.1357C148.608 81.8248 148.641 85.8248 150.372 87.0912C150.633 87.2851 150.935 87.4131 151.279 87.4613C151.579 87.5027 151.892 87.4597 151.918 87.4464C152.292 87.3805 152.71 87.2355 153.277 86.8549C153.743 86.5525 154.123 86.1963 154.473 85.8517C154.8 85.5187 155.206 85.0315 155.242 84.9763C155.275 84.9363 155.291 84.9128 155.291 84.9128C155.291 84.9128 156.49 84.5096 156.515 83.4259C156.537 82.4635 155.595 82.8528 155.383 82.9528Z" fill="#FECDCB"/>
<path d="M155.361 82.8737L155.359 82.8691C155.359 82.8715 155.362 82.8758 155.359 82.8806C155.359 82.8782 155.359 82.8761 155.361 82.8737Z" fill="#FECDCB"/>
<path d="M151.025 82.1318C151.055 82.3988 151.102 83.1281 151.028 83.4188C150.999 83.5273 150.941 83.638 150.869 83.7212C150.683 83.9377 150.58 84.0854 150.973 84.474C150.882 84.4188 150.794 84.3561 150.719 84.2718C150.523 84.0297 150.609 83.8662 150.77 83.643C150.833 83.5628 150.874 83.4804 150.899 83.3836C150.961 83.1622 150.948 82.6532 151.025 82.1318Z" fill="#111228"/>
<path d="M151.428 85.0887C151.428 85.4954 151.141 85.8247 150.787 85.8247C150.435 85.8247 150.148 85.4954 150.148 85.0887C150.148 85.0815 150.15 85.0759 150.15 85.0703C150.509 85.1546 150.933 85.1546 151.426 85.0703C151.426 85.0759 151.428 85.0815 151.428 85.0887Z" fill="white"/>
<path d="M160.65 91.2862C159.912 89.8732 157.16 89.3852 155.671 89.2446C154.709 89.1537 152.458 89.1398 151.505 89.3025C150.261 89.5148 148.099 90.4964 147.505 91.6374C146.423 93.7193 146.059 101.965 146.059 101.965L144.647 112.21C145.014 114.557 162.441 113.73 162.127 111.238C162.127 111.238 160.444 103.746 160.562 101.958C160.748 99.1417 161.85 93.586 160.65 91.2862Z" fill="#007E7A"/>
<path d="M155.671 89.2459C155.671 89.2459 154.636 91.588 152.721 91.2859C151.428 91.0827 151.368 89.3283 151.368 89.3283C151.368 89.3283 152.069 88.8267 152.12 88.1307C152.156 87.6496 152.144 87.0843 152.062 86.5227C152.052 86.4659 152.043 86.4091 152.034 86.3504C151.964 85.9328 153.245 85.4971 154.1 85.2517C154.411 85.1637 154.87 85.0576 155.113 85.0339C155.199 85.0248 155.279 84.9365 155.279 84.9365C155.279 84.9365 155.019 88.1856 155.671 89.2459Z" fill="#FECDCB"/>
<path d="M158.611 106.213C158.676 106.577 158.806 106.912 158.988 107.207C159.584 108.165 160.72 108.713 161.898 108.503C162.996 108.308 163.833 107.505 164.123 106.503C164.152 106.403 164.174 106.302 164.194 106.201C164.659 103.81 163.485 98.6828 163.485 98.6828L158.496 98.8217L158.59 105.349C158.59 105.352 158.588 105.355 158.588 105.358C158.554 105.635 158.559 105.924 158.611 106.213Z" fill="#FECDCB"/>
<path d="M164.978 98.851C165.185 99.3163 158.203 99.5153 157.995 99.05C157.995 99.05 157.588 96.6689 157.482 95.3629C157.305 93.1877 157.41 91.207 158.532 90.7066C158.98 90.5062 160.472 90.8546 161.909 91.9588C163.167 92.9251 164.978 98.851 164.978 98.851Z" fill="#007E7A"/>
<path d="M149.905 111.972C150.194 112.72 151.037 113.095 151.786 112.805C151.786 112.805 154.856 112.018 162.367 108.638L162.389 108.629C163.829 108.058 164.541 106.432 163.98 104.985C163.418 103.533 161.782 102.808 160.327 103.371C160.292 103.385 160.26 103.397 160.226 103.413L160.22 103.398L160.107 103.468C159.953 103.542 159.809 103.629 159.675 103.727L150.634 110.134C149.953 110.458 149.628 111.258 149.905 111.972Z" fill="#FECDCB"/>
<path d="M147.987 113.07L130.086 105.775L128.65 109.568L146.551 116.863C147.6 117.26 148.769 116.73 149.165 115.684C149.561 114.638 149.036 113.467 147.987 113.07Z" fill="#111228"/>
<path d="M132.326 105.895L129.728 104.912C129.519 104.833 129.285 104.938 129.206 105.147L127.571 109.466C127.492 109.676 127.598 109.909 127.807 109.988L130.405 110.972C130.614 111.051 130.848 110.945 130.927 110.736L132.562 106.417C132.641 106.208 132.535 105.974 132.326 105.895Z" fill="#B2C7FF"/>
<path d="M122.661 90.7236C115.695 88.0853 107.917 91.5974 105.282 98.5594C102.647 105.521 106.153 113.302 113.118 115.938C120.08 118.573 127.864 115.063 130.499 108.101C133.134 101.139 129.624 93.3557 122.661 90.7236ZM128.187 107.225C126.034 112.913 119.68 115.778 113.994 113.626C108.307 111.478 105.443 105.121 107.594 99.4301C109.742 93.7477 116.102 90.88 121.789 93.0333C127.474 95.1854 130.337 101.542 128.187 107.225Z" fill="#D1DEFF"/>
<path d="M147.276 113.984C149.674 116.174 151.944 112.859 152.09 112.639C152.092 112.636 152.094 112.635 152.098 112.628C152.421 112.25 152.539 111.712 152.364 111.209C152.104 110.46 151.292 110.057 150.539 110.304C150.536 110.302 150.533 110.303 150.531 110.304C150.369 110.276 148.636 109.985 148.527 110.656C148.457 111.104 148.943 111.096 149.295 111.044C148.248 111.267 145.2 112.088 147.276 113.984Z" fill="#FECDCB"/>
<path d="M149.782 81.7863C149.821 81.7231 149.874 81.6682 149.929 81.6151C150.059 81.5063 150.264 81.5156 150.38 81.6652C150.421 81.7306 150.455 81.7988 150.476 81.8706C150.409 81.8306 150.359 81.7828 150.309 81.7396C150.208 81.6746 150.126 81.6479 149.978 81.7047C149.919 81.7359 149.857 81.7652 149.782 81.7863Z" fill="#111228"/>
<path d="M151.935 81.7287C151.974 81.6655 152.027 81.6106 152.082 81.5575C152.211 81.4493 152.417 81.4573 152.533 81.6077C152.574 81.673 152.607 81.7413 152.629 81.813C152.562 81.773 152.512 81.7255 152.462 81.6823C152.361 81.6173 152.279 81.5903 152.131 81.6471C152.072 81.6783 152.01 81.7077 151.935 81.7287Z" fill="#111228"/>
<path d="M152.47 82.371C152.439 82.5873 152.291 82.7427 152.135 82.7209C151.981 82.7006 151.881 82.5083 151.91 82.2923C151.941 82.0782 152.091 81.9206 152.245 81.9425C152.401 81.9643 152.502 82.155 152.47 82.371Z" fill="#111228"/>
<path d="M150.26 82.371C150.23 82.5873 150.08 82.7427 149.926 82.7209C149.771 82.7006 149.67 82.5083 149.701 82.2923C149.73 82.0782 149.88 81.9206 150.036 81.9425C150.19 81.9643 150.291 82.155 150.26 82.371Z" fill="#111228"/>
<path d="M138.933 108.591C138.933 108.591 136.703 108.229 136.961 108.979C137.22 109.73 138.783 109.32 138.783 109.32L140.717 110.107L138.933 108.591Z" fill="#FECDCB"/>
<defs>
<linearGradient id="paint0_linear_4223_10973" x1="101.033" y1="40.0001" x2="101.903" y2="120.366" gradientUnits="userSpaceOnUse">
<stop stop-color="#CEDCF9" stop-opacity="0"/>
<stop offset="0.5" stop-color="#C8D7FC" stop-opacity="0.5"/>
<stop offset="1" stop-color="#C3D2FF"/>
</linearGradient>
<linearGradient id="paint1_linear_4223_10973" x1="102.367" y1="168.267" x2="102.367" y2="132.392" gradientUnits="userSpaceOnUse">
<stop stop-color="#CEDCF9" stop-opacity="0"/>
<stop offset="0.5" stop-color="#C8D7FC" stop-opacity="0.5"/>
<stop offset="1" stop-color="#C3D2FF"/>
</linearGradient>
<linearGradient id="paint2_linear_4223_10973" x1="140.43" y1="69.2593" x2="152.671" y2="61.5198" gradientUnits="userSpaceOnUse">
<stop stop-color="#909EFF"/>
<stop offset="0.5" stop-color="#7C8AF1"/>
<stop offset="1" stop-color="#6977E3"/>
</linearGradient>
<linearGradient id="paint3_linear_4223_10973" x1="153.559" y1="54.6684" x2="156.377" y2="60.6044" gradientUnits="userSpaceOnUse">
<stop stop-color="#909EFF"/>
<stop offset="0.5" stop-color="#7C8AF1"/>
<stop offset="1" stop-color="#6977E3"/>
</linearGradient>
<linearGradient id="paint4_linear_4223_10973" x1="90.367" y1="78.4005" x2="88.2758" y2="85.0613" gradientUnits="userSpaceOnUse">
<stop stop-color="#909EFF"/>
<stop offset="0.5" stop-color="#7C8AF1"/>
<stop offset="1" stop-color="#6977E3"/>
</linearGradient>
<linearGradient id="paint5_linear_4223_10973" x1="95.967" y1="83.4666" x2="90.4678" y2="84.2023" gradientUnits="userSpaceOnUse">
<stop stop-color="#D1DEFF"/>
<stop offset="0.5" stop-color="#C2D2FF"/>
<stop offset="1" stop-color="#B2C7FF"/>
</linearGradient>
<linearGradient id="paint6_linear_4223_10973" x1="91.7004" y1="91.4665" x2="89.4156" y2="87.0518" gradientUnits="userSpaceOnUse">
<stop stop-color="#FADF68"/>
<stop offset="0.5" stop-color="#F2D15C"/>
<stop offset="1" stop-color="#EAC250"/>
</linearGradient>
<linearGradient id="paint7_linear_4223_10973" x1="81.8336" y1="90.6665" x2="86.5581" y2="84.0057" gradientUnits="userSpaceOnUse">
<stop stop-color="#3DCFA4"/>
<stop offset="0.03" stop-color="#3CCFA3"/>
<stop offset="0.06" stop-color="#3CCEA3"/>
<stop offset="0.53" stop-color="#36C59B"/>
<stop offset="1" stop-color="#30BB93"/>
</linearGradient>
<linearGradient id="paint8_linear_4223_10973" x1="80.4999" y1="77.0669" x2="86.3477" y2="85.8965" gradientUnits="userSpaceOnUse">
<stop stop-color="#F34B6D"/>
<stop offset="0.71" stop-color="#EB466A"/>
<stop offset="1" stop-color="#E24067"/>
</linearGradient>
</defs>
</svg>
