<svg width="118" height="106" viewBox="0 0 118 106" fill="none" xmlns="http://www.w3.org/2000/svg">
<rect width="118" height="106" rx="53" fill="#FCFCFC"/>
<rect x="38.75" y="36.2266" width="40" height="44" rx="4" fill="#FCE9E7"/>
<path d="M64 68C62.6167 68 61.4377 67.5123 60.463 66.537C59.4883 65.5617 59.0007 64.3827 59 63C58.9993 61.6173 59.487 60.4383 60.463 59.463C61.439 58.4877 62.618 58 64 58C65.382 58 66.5613 58.4877 67.538 59.463C68.5147 60.4383 69.002 61.6173 69 63C68.998 64.3827 68.5103 65.562 67.537 66.538C66.5637 67.514 65.3847 68.0013 64 68ZM65.675 65.375L66.375 64.675L64.5 62.8V60H63.5V63.2L65.675 65.375ZM50 67V49H56.175C56.3583 48.4167 56.7167 47.9377 57.25 47.563C57.7833 47.1883 58.3667 47.0007 59 47C59.6667 47 60.2627 47.1877 60.788 47.563C61.3133 47.9383 61.6673 48.4173 61.85 49H68V57.25C67.7 57.0333 67.3833 56.85 67.05 56.7C66.7167 56.55 66.3667 56.4167 66 56.3V51H64V54H54V51H52V65H57.3C57.4167 65.3667 57.55 65.7167 57.7 66.05C57.85 66.3833 58.0333 66.7 58.25 67H50ZM59 51C59.2833 51 59.521 50.904 59.713 50.712C59.905 50.52 60.0007 50.2827 60 50C59.9993 49.7173 59.9033 49.48 59.712 49.288C59.5207 49.096 59.2833 49 59 49C58.7167 49 58.4793 49.096 58.288 49.288C58.0967 49.48 58.0007 49.7173 58 50C57.9993 50.2827 58.0953 50.5203 58.288 50.713C58.4807 50.9057 58.718 51.0013 59 51Z" fill="#FF3B3B"/>
</svg>
