<svg width="201" height="200" viewBox="0 0 201 200" fill="none" xmlns="http://www.w3.org/2000/svg">
<g clip-path="url(#clip0_4223_12699)">
<rect width="200" height="200" transform="translate(0.5)" fill="white"/>
<mask id="mask0_4223_12699" style="mask-type:luminance" maskUnits="userSpaceOnUse" x="0" y="0" width="201" height="200">
<path d="M200.5 0H0.5V200H200.5V0Z" fill="white"/>
</mask>
<g mask="url(#mask0_4223_12699)">
<path d="M100.961 157.403C152.295 156.833 176.736 141.127 174.281 110.292C170.601 64.0407 131.885 73.517 118.835 62.7107C105.784 51.9045 124.676 70.127 95.5163 45.0707C76.0763 28.3657 57.08 30.5495 38.5263 51.6195C21.5213 71.9932 21.5725 93.747 38.6775 116.878C55.7838 140.008 76.545 153.517 100.961 157.403Z" fill="#DE8E04"/>
<path d="M57.9995 158.748H135.5V43.748H57.9995V158.748ZM132.443 86.7668V118.562V157.498H62.9995V47.6655H132.443V86.7668Z" fill="white"/>
<path d="M63.001 157.501H132.443V118.565V86.7685V47.666H63.001V157.501Z" fill="#006073"/>
<path d="M132.943 48.94L136.564 45.3063C137.004 44.8663 137.003 44.1538 136.563 43.715C136.123 43.2763 135.411 43.2775 134.972 43.7175L131.351 47.3513C130.911 47.7913 130.912 48.5038 131.353 48.9425C131.792 49.3813 132.504 49.38 132.943 48.94Z" fill="#004233"/>
<path d="M61.2221 48.94L57.5983 45.3063C57.1596 44.8663 57.1608 44.1538 57.6008 43.715C58.0408 43.2763 58.7533 43.2775 59.1921 43.7175L62.8158 47.3513C63.2546 47.7913 63.2533 48.5038 62.8133 48.9425C62.3733 49.3813 61.6608 49.38 61.2221 48.94Z" fill="#004233"/>
<path d="M156.698 157.445H121.75H119.467H53.0933L52.9508 157.454C52.397 157.523 51.9683 157.997 51.9683 158.569C51.9683 159.19 52.472 159.695 53.0933 159.695H119.467H121.75H156.698L156.838 159.687C157.395 159.617 157.821 159.143 157.821 158.569C157.821 157.948 157.32 157.445 156.698 157.445Z" fill="#004233"/>
<path d="M48.0532 157.445H41.8032L41.662 157.454C41.107 157.523 40.6782 157.997 40.6782 158.569C40.6782 159.19 41.182 159.695 41.8032 159.695H48.0532L48.1945 159.687C48.7495 159.617 49.1782 159.143 49.1782 158.569C49.1782 157.948 48.6745 157.445 48.0532 157.445Z" fill="#004233"/>
<path d="M137.663 121.783L160.987 104.107L137.663 86.3184V95.5809H136.538H105.344V112.515H137.663V121.783Z" fill="#BE831C"/>
<path d="M164.703 104.113L135.41 81.7734V93.3309H105.345V94.4559V95.5809H136.536H137.66V86.3197L160.984 104.107L137.66 121.783V112.516H105.345V113.641V114.766H135.41V126.311L164.703 104.113Z" fill="white"/>
<path d="M63.3945 48.7503L63.3945 156.807L68.6508 157.447L116.108 164.376L114.567 42.1895L63.3945 48.7503Z" fill="white"/>
<g opacity="0.999705">
<path d="M63.3931 48.5537V112.159L102.85 43.9121L63.3931 48.5537Z" fill="#F6F1E8"/>
</g>
<path d="M117.221 163.617L117.222 42.2207L113.006 42.7168L113.02 163.465L117.221 163.617Z" fill="#FFCA70"/>
<path d="M61.7508 46.2503L104.384 41.4666C105.003 41.3941 105.562 41.8366 105.634 42.4529V42.4554C105.704 43.0729 105.266 43.6279 104.648 43.7004L102.848 43.9129L63.392 48.5541V112.159V156.808L68.6495 157.446L87.1472 159.696L113.005 162.839L117.222 163.352L117.222 159.695V157.445L117.222 42.222L113.004 42.7181L109.215 43.1643C108.599 43.2368 108.04 42.7955 107.967 42.1805V42.178C107.893 41.5618 108.334 41.0018 108.95 40.9292L119.471 39.6934L119.471 156.766V157.445V159.695V160.196L119.433 166.283L61.7508 158.75L61.1445 157.447V48.6978L61.7508 46.2503Z" fill="#004233"/>
<path d="M108.245 107.489V100.718C108.245 99.7041 107.001 97.3969 104.882 97.3544C102.764 97.3119 101.517 98.8606 101.517 100.718V107.489C101.517 109.192 102.977 110.841 104.882 110.854C106.787 110.868 108.245 109.347 108.245 107.489Z" fill="#FFCA70"/>
<path d="M106.495 106.114V99.3431C106.495 98.3291 105.251 96.0219 103.133 95.9794C101.014 95.9369 99.7676 97.4856 99.7676 99.3431V106.114C99.7676 107.817 101.228 109.466 103.133 109.479C105.038 109.493 106.495 107.972 106.495 106.114Z" fill="#004233"/>
<path d="M43.4258 145.98L42.1281 145.566L42.8052 143.442L40.6769 142.764L41.0902 141.467L43.2181 142.144L43.8945 140.02L45.1929 140.433L44.5157 142.557L46.6433 143.235L46.2301 144.533L44.1021 143.856L43.4258 145.98Z" fill="#0E473B"/>
</g>
</g>
<defs>
<clipPath id="clip0_4223_12699">
<rect width="200" height="200" fill="white" transform="translate(0.5)"/>
</clipPath>
</defs>
</svg>
