<svg width="201" height="200" viewBox="0 0 201 200" fill="none" xmlns="http://www.w3.org/2000/svg">
<path d="M0.195097 126.337C-1.22877 110.833 5.05566 85.4118 11.9556 71.2219C27.2273 39.8147 48.4085 23.4962 81.9732 13.8502C97.9252 9.26571 128.614 10.8012 129.402 33.9286C129.606 39.9111 125.614 47.5526 127.761 53.1402C130.361 59.9086 140.49 61.3641 147.741 61.3913C157.564 61.4276 168.718 60.3242 178.228 64.395C197.183 72.5101 200.018 93.4302 193.501 110.74C189.702 120.83 187.355 132.313 172.024 146.628C156.685 160.952 129.088 173.977 108.908 178.74C88.7352 183.502 62.9568 181.227 46.9194 176.227C30.8824 171.228 14.4049 163.091 6.54321 148.246C2.91054 141.387 0.895424 133.964 0.195097 126.337Z" fill="#006073"/>
<path d="M142.551 171.382H50.2446V39.4434H142.551V171.382Z" fill="white"/>
<path d="M142.551 171.382H50.2446V39.4434H142.551V171.382Z" stroke="#192424" stroke-width="2" stroke-miterlimit="10" stroke-linecap="round"/>
<path d="M136.143 164.972H43.8364V33.0332H136.143V164.972Z" fill="white"/>
<path d="M136.143 164.972H43.8364V33.0332H136.143V164.972Z" stroke="#192424" stroke-width="2" stroke-miterlimit="10" stroke-linecap="round"/>
<path d="M129.511 158.34H37.2041V26.4023H129.511V158.34Z" fill="white"/>
<path d="M129.511 158.34H37.2041V26.4023H129.511V158.34Z" stroke="#192424" stroke-width="2" stroke-miterlimit="10" stroke-linecap="round"/>
<path d="M52.0518 109.67H72.3698V143.492H52.0518V109.67Z" stroke="#192424" stroke-width="2" stroke-miterlimit="10"/>
<path d="M72.3696 109.67H92.6876V143.492H72.3696V109.67Z" stroke="#192424" stroke-width="2" stroke-miterlimit="10"/>
<path d="M92.6875 109.67H113.005V143.492H92.6875V109.67Z" stroke="#192424" stroke-width="2" stroke-miterlimit="10"/>
<path d="M65.9274 94.7621H72.8654L72.7476 67.7637H65.8096L65.9274 94.7621Z" fill="#006073"/>
<path d="M52.0514 94.7635H58.9894L58.8716 50.9746H51.9336L52.0514 94.7635Z" fill="#006073"/>
<path d="M93.6795 94.7637H100.617L100.599 65.8223H93.6616L93.6795 94.7637Z" fill="#006073"/>
<path d="M79.6623 94.7251L86.5995 94.8013L86.9412 51.4336L80.0039 51.3574L79.6623 94.7251Z" fill="#006073"/>
<path d="M114.408 48.6543H107.471L107.555 94.7627H114.492L114.408 48.6543Z" fill="#006073"/>
<path d="M52.0518 126.553H114.434" stroke="#192424" stroke-width="2" stroke-miterlimit="10"/>
<path d="M52.0518 118.082H114.434" stroke="#192424" stroke-width="2" stroke-miterlimit="10"/>
<path d="M52.0518 135.021H114.434" stroke="#192424" stroke-width="2" stroke-miterlimit="10"/>
<path d="M161.583 174.941H108.859C107.018 174.941 105.525 173.448 105.525 171.607V83.2474C105.525 81.4064 107.018 79.9141 108.859 79.9141H161.583C163.424 79.9141 164.917 81.4064 164.917 83.2474V171.607C164.917 173.448 163.424 174.941 161.583 174.941Z" fill="#192424"/>
<path d="M156.008 100.701H114.434V88.8223H156.008V100.701Z" fill="#006073"/>
<path d="M121.101 113.706H116.101C115.18 113.706 114.434 112.96 114.434 112.04V108.37C114.434 107.449 115.18 106.703 116.101 106.703H121.101C122.021 106.703 122.767 107.449 122.767 108.37V112.04C122.767 112.96 122.021 113.706 121.101 113.706Z" fill="#F5DACD"/>
<path d="M154.341 113.706H149.341C148.421 113.706 147.675 112.96 147.675 112.04V108.37C147.675 107.449 148.421 106.703 149.341 106.703H154.341C155.262 106.703 156.008 107.449 156.008 108.37V112.04C156.008 112.96 155.262 113.706 154.341 113.706Z" fill="#F5DACD"/>
<path d="M143.261 113.706H138.261C137.34 113.706 136.594 112.96 136.594 112.04V108.37C136.594 107.449 137.34 106.703 138.261 106.703H143.261C144.182 106.703 144.928 107.449 144.928 108.37V112.04C144.928 112.96 144.182 113.706 143.261 113.706Z" fill="#F5DACD"/>
<path d="M132.181 113.706H127.181C126.26 113.706 125.514 112.96 125.514 112.04V108.37C125.514 107.449 126.26 106.703 127.181 106.703H132.181C133.101 106.703 133.847 107.449 133.847 108.37V112.04C133.847 112.96 133.101 113.706 132.181 113.706Z" fill="#006073"/>
<path d="M121.101 127.988H116.101C115.18 127.988 114.434 127.242 114.434 126.321V122.651C114.434 121.731 115.18 120.984 116.101 120.984H121.101C122.021 120.984 122.767 121.731 122.767 122.651V126.321C122.767 127.242 122.021 127.988 121.101 127.988Z" fill="white"/>
<path d="M154.341 127.988H149.341C148.421 127.988 147.675 127.242 147.675 126.321V122.651C147.675 121.731 148.421 120.984 149.341 120.984H154.341C155.262 120.984 156.008 121.731 156.008 122.651V126.321C156.008 127.242 155.262 127.988 154.341 127.988Z" fill="#006073"/>
<path d="M143.261 127.988H138.261C137.34 127.988 136.594 127.242 136.594 126.321V122.651C136.594 121.731 137.34 120.984 138.261 120.984H143.261C144.182 120.984 144.928 121.731 144.928 122.651V126.321C144.928 127.242 144.182 127.988 143.261 127.988Z" fill="#006073"/>
<path d="M132.181 127.988H127.181C126.26 127.988 125.514 127.242 125.514 126.321V122.651C125.514 121.731 126.26 120.984 127.181 120.984H132.181C133.101 120.984 133.847 121.731 133.847 122.651V126.321C133.847 127.242 133.101 127.988 132.181 127.988Z" fill="#006073"/>
<path d="M121.101 146.994H116.101C115.18 146.994 114.434 146.247 114.434 145.327V141.657C114.434 140.737 115.18 139.99 116.101 139.99H121.101C122.021 139.99 122.767 140.737 122.767 141.657V145.327C122.767 146.247 122.021 146.994 121.101 146.994Z" fill="#006073"/>
<path d="M154.341 146.994H149.341C148.421 146.994 147.675 146.247 147.675 145.327V141.657C147.675 140.737 148.421 139.99 149.341 139.99H154.341C155.262 139.99 156.008 140.737 156.008 141.657V145.327C156.008 146.247 155.262 146.994 154.341 146.994Z" fill="#006073"/>
<path d="M143.261 146.994H138.261C137.34 146.994 136.594 146.247 136.594 145.327V141.657C136.594 140.737 137.34 139.99 138.261 139.99H143.261C144.182 139.99 144.928 140.737 144.928 141.657V145.327C144.928 146.247 144.182 146.994 143.261 146.994Z" fill="#006073"/>
<path d="M132.181 146.994H127.181C126.26 146.994 125.514 146.247 125.514 145.327V141.657C125.514 140.737 126.26 139.99 127.181 139.99H132.181C133.101 139.99 133.847 140.737 133.847 141.657V145.327C133.847 146.247 133.101 146.994 132.181 146.994Z" fill="#006073"/>
<path d="M121.101 156.496H116.101C115.18 156.496 114.434 155.749 114.434 154.829V151.159C114.434 150.239 115.18 149.492 116.101 149.492H121.101C122.021 149.492 122.767 150.239 122.767 151.159V154.829C122.767 155.749 122.021 156.496 121.101 156.496Z" fill="#006073"/>
<path d="M154.341 156.496H149.341C148.421 156.496 147.675 155.749 147.675 154.829V151.159C147.675 150.239 148.421 149.492 149.341 149.492H154.341C155.262 149.492 156.008 150.239 156.008 151.159V154.829C156.008 155.749 155.262 156.496 154.341 156.496Z" fill="#006073"/>
<path d="M143.261 156.496H138.261C137.34 156.496 136.594 155.749 136.594 154.829V151.159C136.594 150.239 137.34 149.492 138.261 149.492H143.261C144.182 149.492 144.928 150.239 144.928 151.159V154.829C144.928 155.749 144.182 156.496 143.261 156.496Z" fill="#006073"/>
<path d="M132.181 156.496H127.181C126.26 156.496 125.514 155.749 125.514 154.829V151.159C125.514 150.239 126.26 149.492 127.181 149.492H132.181C133.101 149.492 133.847 150.239 133.847 151.159V154.829C133.847 155.749 133.101 156.496 132.181 156.496Z" fill="#006073"/>
<path d="M121.101 165.999H116.101C115.18 165.999 114.434 165.253 114.434 164.333V160.663C114.434 159.742 115.18 158.996 116.101 158.996H121.101C122.021 158.996 122.767 159.742 122.767 160.663V164.333C122.767 165.253 122.021 165.999 121.101 165.999Z" fill="#006073"/>
<path d="M154.341 165.999H149.341C148.421 165.999 147.675 165.253 147.675 164.333V160.663C147.675 159.742 148.421 158.996 149.341 158.996H154.341C155.262 158.996 156.008 159.742 156.008 160.663V164.333C156.008 165.253 155.262 165.999 154.341 165.999Z" fill="#006073"/>
<path d="M143.261 165.999H138.261C137.34 165.999 136.594 165.253 136.594 164.333V160.663C136.594 159.742 137.34 158.996 138.261 158.996H143.261C144.182 158.996 144.928 159.742 144.928 160.663V164.333C144.928 165.253 144.182 165.999 143.261 165.999Z" fill="#006073"/>
<path d="M132.181 165.999H127.181C126.26 165.999 125.514 165.253 125.514 164.333V160.663C125.514 159.742 126.26 158.996 127.181 158.996H132.181C133.101 158.996 133.847 159.742 133.847 160.663V164.333C133.847 165.253 133.101 165.999 132.181 165.999Z" fill="#006073"/>
<path d="M121.101 137.492H116.101C115.18 137.492 114.434 136.746 114.434 135.825V132.155C114.434 131.235 115.18 130.488 116.101 130.488H121.101C122.021 130.488 122.767 131.235 122.767 132.155V135.825C122.767 136.746 122.021 137.492 121.101 137.492Z" fill="#006073"/>
<path d="M154.341 137.492H149.341C148.421 137.492 147.675 136.746 147.675 135.825V132.155C147.675 131.235 148.421 130.488 149.341 130.488H154.341C155.262 130.488 156.008 131.235 156.008 132.155V135.825C156.008 136.746 155.262 137.492 154.341 137.492Z" fill="#006073"/>
<path d="M143.261 137.492H138.261C137.34 137.492 136.594 136.746 136.594 135.825V132.155C136.594 131.235 137.34 130.488 138.261 130.488H143.261C144.182 130.488 144.928 131.235 144.928 132.155V135.825C144.928 136.746 144.182 137.492 143.261 137.492Z" fill="#006073"/>
<path d="M132.181 137.492H127.181C126.26 137.492 125.514 136.746 125.514 135.825V132.155C125.514 131.235 126.26 130.488 127.181 130.488H132.181C133.101 130.488 133.847 131.235 133.847 132.155V135.825C133.847 136.746 133.101 137.492 132.181 137.492Z" fill="#006073"/>
</svg>
