<svg width="201" height="200" viewBox="0 0 201 200" fill="none" xmlns="http://www.w3.org/2000/svg">
<g clip-path="url(#clip0_4223_12543)">
<rect width="200" height="200" transform="translate(0.5)" fill="white"/>
<mask id="mask0_4223_12543" style="mask-type:luminance" maskUnits="userSpaceOnUse" x="0" y="0" width="201" height="200">
<path d="M200.5 0H0.5V200H200.5V0Z" fill="white"/>
</mask>
<g mask="url(#mask0_4223_12543)">
<path d="M49.7068 20.3193H30.0637C24.9585 20.3193 20.8198 24.458 20.8198 29.5632V49.2063C20.8198 50.4825 21.8543 51.5174 23.1309 51.5174C24.4071 51.5174 25.4419 50.4825 25.4419 49.2063V29.5632C25.4419 27.0105 27.511 24.9411 30.0637 24.9411H49.7068C50.983 24.9411 52.0179 23.9066 52.0179 22.6304C52.0179 21.3538 50.983 20.3193 49.7068 20.3193Z" fill="#CAC7C2"/>
<path d="M180.18 49.2063V29.5632C180.18 24.458 176.041 20.3193 170.936 20.3193H151.293C150.017 20.3193 148.982 21.3542 148.982 22.6304C148.982 23.9066 150.017 24.9414 151.293 24.9414H170.936C173.489 24.9414 175.558 27.0105 175.558 29.5632V49.2063C175.558 50.4825 176.593 51.5174 177.869 51.5174C179.145 51.5174 180.18 50.4825 180.18 49.2063Z" fill="#CAC7C2"/>
<path d="M151.293 179.679H170.936C176.041 179.679 180.18 175.541 180.18 170.436V150.792C180.18 149.516 179.145 148.481 177.869 148.481C176.593 148.481 175.558 149.516 175.558 150.792V170.436C175.558 172.988 173.489 175.058 170.936 175.058H151.293C150.017 175.058 148.982 176.092 148.982 177.368C148.982 178.645 150.017 179.679 151.293 179.679Z" fill="#CAC7C2"/>
<path d="M20.8198 150.792V170.436C20.8198 175.541 24.9585 179.679 30.0637 179.679H49.7068C50.983 179.679 52.0179 178.645 52.0179 177.368C52.0179 176.092 50.983 175.057 49.7068 175.057H30.0637C27.511 175.057 25.4416 172.988 25.4416 170.436V150.792C25.4416 149.516 24.4071 148.481 23.1309 148.481C21.8543 148.481 20.8198 149.516 20.8198 150.792Z" fill="#CAC7C2"/>
<mask id="mask1_4223_12543" style="mask-type:luminance" maskUnits="userSpaceOnUse" x="0" y="0" width="201" height="200">
<path d="M0.5 0H200.5V200H0.5V0Z" fill="white"/>
</mask>
<g mask="url(#mask1_4223_12543)">
<path d="M158.578 68V131.366C158.578 133.573 156.786 135.366 154.578 135.366H46.8999C44.6923 135.366 42.8999 133.573 42.8999 131.366V68C42.8999 65.7924 44.6923 64 46.8999 64H154.578C156.786 64 158.578 65.7924 158.578 68Z" fill="url(#paint0_linear_4223_12543)"/>
<path d="M77.6743 101.24V87.8428C77.6743 85.1023 75.4522 82.8809 72.7117 82.8809H59.3143C56.5738 82.8809 54.3521 85.1023 54.3521 87.8428V101.24C54.3521 103.981 56.5738 106.202 59.3143 106.202H72.7117C75.4522 106.202 77.6743 103.981 77.6743 101.24ZM66.0129 86.8508C68.3425 86.8508 70.2311 88.7391 70.2311 91.0684C70.2311 93.398 68.3425 95.2863 66.0129 95.2863C63.6836 95.2863 61.7953 93.398 61.7953 91.0684C61.7953 88.7391 63.6836 86.8508 66.0129 86.8508ZM72.2884 102.233H59.7383C58.6465 102.233 57.9191 101.088 58.5645 100.179C60.2458 97.814 62.9559 96.2786 66.0129 96.2786C69.0701 96.2786 71.7802 97.814 73.4612 100.179C74.1069 101.088 73.3799 102.233 72.2884 102.233Z" fill="#F7F5F1"/>
<path d="M90.5675 92.2813L110.663 92.3371C111.76 92.3401 112.651 91.454 112.654 90.3577L112.66 88.373C112.663 87.2767 111.776 86.3856 110.68 86.3826L90.5841 86.3268C89.4878 86.3238 88.5967 87.2099 88.5936 88.3062L88.5881 90.2909C88.5851 91.3872 89.4712 92.2783 90.5675 92.2813Z" fill="#F7F5F1"/>
<path d="M144.662 100.249H90.5758C89.4795 100.249 88.5908 101.138 88.5908 102.234V104.219C88.5908 105.315 89.4795 106.204 90.5758 106.204H144.662C145.759 106.204 146.647 105.315 146.647 104.219V102.234C146.647 101.138 145.759 100.249 144.662 100.249Z" fill="#F7F5F1"/>
<path d="M90.0799 97.7673H122.085C122.907 97.7673 123.574 97.1008 123.574 96.2787C123.574 95.4566 122.907 94.79 122.085 94.79H90.0799C89.2579 94.79 88.5913 95.4566 88.5913 96.2787C88.5913 97.1008 89.2579 97.7673 90.0799 97.7673Z" fill="#F7F5F1"/>
<path d="M123.822 128.532H77.1786C76.3562 128.532 75.6899 129.199 75.6899 130.021C75.6899 130.843 76.3562 131.51 77.1786 131.51H123.822C124.644 131.51 125.31 130.843 125.31 130.021C125.31 129.199 124.644 128.532 123.822 128.532Z" fill="#F7F5F1"/>
<path d="M78.846 116.837L80.0245 115.271L81.204 116.837H81.9362L80.3938 114.789L81.9362 112.746H81.2159L80.0309 114.312L78.8517 112.746H78.125L79.6674 114.794L78.125 116.837H78.846Z" fill="#F7F5F2"/>
<path d="M87.2078 116.837L88.3863 115.271L89.5655 116.837H90.2977L88.7556 114.789L90.2977 112.746H89.5774L88.3924 114.312L87.2132 112.746H86.4868L88.0292 114.794L86.4868 116.837H87.2078Z" fill="#F7F5F2"/>
<path d="M83.0271 116.837L84.2057 115.271L85.3852 116.837H86.1174L84.575 114.789L86.1174 112.746H85.397L84.2121 114.312L83.0326 112.746H82.3062L83.8486 114.794L82.3062 116.837H83.0271Z" fill="#F7F5F2"/>
<path d="M97.2737 116.837L98.4523 115.271L99.6315 116.837H100.364L98.8215 114.789L100.364 112.746H99.6433L98.4583 114.312L97.2791 112.746H96.5527L98.0951 114.794L96.5527 116.837H97.2737Z" fill="#F7F5F2"/>
<path d="M77.0232 116.837H77.7554L76.2133 114.789L77.7554 112.746H77.0347L75.8501 114.312L74.6712 112.746H73.9448L75.4869 114.794L73.9448 116.837H74.6651L75.8437 115.271L77.0232 116.837Z" fill="#F7F5F2"/>
<path d="M115.646 116.837L116.825 115.271L118.003 116.837H118.736L117.193 114.789L118.736 112.746H118.015L116.83 114.312L115.651 112.746H114.925L116.467 114.794L114.925 116.837H115.646Z" fill="#F7F5F2"/>
<path d="M119.827 116.837L121.006 115.271L122.185 116.837H122.917L121.375 114.789L122.917 112.746H122.197L121.012 114.312L119.833 112.746H119.107L120.649 114.794L119.107 116.837H119.827Z" fill="#F7F5F2"/>
<path d="M126.377 112.746L125.192 114.312L124.014 112.746H123.287L124.829 114.794L123.287 116.837H124.007L125.187 115.271L126.366 116.837H127.098L125.556 114.789L127.098 112.746H126.377Z" fill="#F7F5F2"/>
<path d="M111.465 116.837L112.644 115.271L113.823 116.837H114.555L113.013 114.789L114.555 112.746H113.835L112.65 114.312L111.471 112.746H110.745L112.287 114.794L110.745 116.837H111.465Z" fill="#F7F5F2"/>
<path d="M105.635 116.837L106.815 115.271L107.993 116.837H108.726L107.183 114.789L108.726 112.746H108.005L106.82 114.312L105.641 112.746H104.915L106.457 114.794L104.915 116.837H105.635Z" fill="#F7F5F2"/>
<path d="M93.0925 116.837L94.2711 115.271L95.4503 116.837H96.1825L94.6404 114.789L96.1825 112.746H95.4621L94.2772 114.312L93.0983 112.746H92.3716L93.914 114.794L92.3716 116.837H93.0925Z" fill="#F7F5F2"/>
<path d="M101.454 116.837L102.633 115.271L103.812 116.837H104.544L103.002 114.789L104.544 112.746H103.824L102.639 114.312L101.46 112.746H100.734L102.276 114.794L100.734 116.837H101.454Z" fill="#F7F5F2"/>
<path d="M43.436 124.066H157.564V123.073H43.436V124.066Z" fill="#DE8E04"/>
<path d="M78.1703 71.9646H124.814C125.636 71.9646 126.303 71.298 126.303 70.4759C126.303 69.6539 125.636 68.9873 124.814 68.9873H78.1703C77.3482 68.9873 76.6816 69.6539 76.6816 70.4759C76.6816 71.298 77.3482 71.9646 78.1703 71.9646Z" fill="#DE8E04"/>
<path d="M78.1703 73.9482H124.814C125.636 73.9482 126.303 74.6148 126.303 75.4369C126.303 76.259 125.636 76.9255 124.814 76.9255H78.1703C77.3482 76.9255 76.6816 76.259 76.6816 75.4369C76.6816 74.6148 77.3482 73.9482 78.1703 73.9482Z" fill="#04785E"/>
</g>
<path d="M188.5 191.2C188.5 192.524 187.425 193.6 186.1 193.6H14.9C13.5754 193.6 12.5 192.524 12.5 191.2C12.5 189.875 13.5754 188.8 14.9 188.8H186.1C187.425 188.8 188.5 189.875 188.5 191.2Z" fill="#006073"/>
</g>
</g>
<defs>
<linearGradient id="paint0_linear_4223_12543" x1="48.3513" y1="69.4016" x2="147.873" y2="121.33" gradientUnits="userSpaceOnUse">
<stop stop-color="#EDE6D9"/>
<stop offset="0.5" stop-color="#E7E4DF"/>
<stop offset="1" stop-color="#EFE4D1"/>
</linearGradient>
<clipPath id="clip0_4223_12543">
<rect width="200" height="200" fill="white" transform="translate(0.5)"/>
</clipPath>
</defs>
</svg>
