<svg width="201" height="150" viewBox="0 0 201 150" fill="none" xmlns="http://www.w3.org/2000/svg">
<g clip-path="url(#clip0_4223_12319)">
<rect width="200" height="150" transform="translate(0.5)" fill="white"/>
<mask id="mask0_4223_12319" style="mask-type:luminance" maskUnits="userSpaceOnUse" x="0" y="0" width="201" height="150">
<path d="M200.5 0H0.5V150H200.5V0Z" fill="white"/>
</mask>
<g mask="url(#mask0_4223_12319)">
<mask id="mask1_4223_12319" style="mask-type:luminance" maskUnits="userSpaceOnUse" x="11" y="-15" width="179" height="180">
<path d="M11.125 -14.375H189.875V164.375H11.125V-14.375Z" fill="white"/>
</mask>
<g mask="url(#mask1_4223_12319)">
<path d="M57.7789 7.25391C57.4202 8.1414 57.1395 9.07108 56.8878 10.029C56.6362 10.9869 56.4134 11.9731 56.1702 12.9739C55.838 14.3406 55.5208 15.6419 55.3111 17.001C55.1014 18.36 54.9995 19.7769 55.0977 21.3752C55.1858 22.8111 55.4051 24.3102 55.6716 25.818C55.9381 27.3257 56.2517 28.8423 56.5277 30.3127C56.7112 31.2904 56.89 32.1915 57.0898 33.0456C57.2897 33.8996 57.5108 34.7067 57.7789 35.4964C57.9022 35.8594 58.0644 36.139 58.2263 36.3893C58.3883 36.6395 58.5502 36.8603 58.6727 37.1052C58.7608 37.281 58.8073 37.4778 58.8532 37.6663C58.8991 37.8547 58.9444 38.035 59.0302 38.1777C59.0523 38.2145 59.127 38.2397 59.2037 38.2656C59.2804 38.2915 59.3587 38.3178 59.3877 38.3564C59.5008 38.5073 59.4686 38.7573 59.5664 38.8927C59.8478 39.282 60.2914 39.7108 60.4602 39.9652C60.7649 40.4245 61.0347 40.8148 61.3539 41.2164C62.2216 42.308 63.0549 43.2617 63.6777 44.4339C64.3701 45.7375 65.1382 48.124 65.6439 49.7964C65.6637 49.8618 65.9637 50.0652 66.0014 50.1539C66.1162 50.4235 66.0624 50.777 66.1802 51.0477C66.2849 51.2884 66.5975 51.4977 66.7164 51.7627C66.8473 52.0544 66.7629 52.3524 66.8952 52.6564C66.9995 52.8963 67.2818 53.064 67.4314 53.3714C67.874 54.2812 69.4037 57.9619 69.7552 58.0189C70.419 58.1265 70.5488 57.1663 71.0064 56.4102C71.3167 55.8975 71.7947 55.2204 72.0789 54.6227C72.7785 53.151 73.3489 51.7033 73.6877 50.3327C74.9148 45.3681 73.3772 40.096 72.4364 35.8539C72.0063 33.9145 71.4402 31.7614 70.6489 30.3127C70.1584 29.4148 69.4245 28.5884 68.8614 27.8102C68.2084 26.9076 67.5948 26.0741 67.0739 25.1289C65.7728 22.7678 65.1758 19.6536 64.0352 17.2639C63.5257 16.1964 62.9389 15.4067 62.4264 14.5827C61.5622 13.1932 60.7281 11.7706 59.9239 10.4714C59.2767 9.42572 58.5295 7.92708 57.7789 7.25391Z" fill="#FFB22D"/>
<path d="M58.6729 13.1523C59.1433 16.2939 60.0841 22.5771 61.5329 27.0948C62.8722 31.2715 65.8575 34.832 66.9847 39.0711C68.6249 45.2398 69.3785 53.759 69.7554 58.0186" stroke="#457168" stroke-width="0.3575"/>
<path d="M46.1602 41.7528C46.159 41.874 46.1783 41.9734 46.2106 42.0597C46.243 42.1461 46.2884 42.2197 46.339 42.2891C46.8119 42.9388 47.4429 43.575 48.0646 44.1999C48.6865 44.8248 49.2991 45.4383 49.7352 46.0428C50.4586 47.0452 51.0905 48.2221 51.6949 49.3867C52.2992 50.5512 52.876 51.7033 53.489 52.6566C53.7238 53.0217 53.9158 53.3006 54.1094 53.5499C54.303 53.7993 54.4984 54.0188 54.7402 54.2653C54.9994 54.5293 55.2502 54.806 55.5121 55.0572C55.7739 55.3083 56.0465 55.5339 56.349 55.6953C57.4574 56.2868 58.9249 56.5279 60.3424 56.7912C61.7599 57.0545 63.1273 57.3398 64.0352 58.0191C64.1271 58.0879 64.2166 58.1427 64.3053 58.1976C64.394 58.2525 64.4821 58.3076 64.5715 58.3766C65.2253 58.8813 65.7169 59.5647 66.0674 60.3612C66.4179 61.1577 66.6273 62.0672 66.7165 63.0241C66.8604 64.5677 66.6727 66.3652 66.6099 68.0621C66.5472 69.759 66.6094 71.3556 67.2527 72.4978C67.8526 73.5628 69.0121 74.2958 70.3581 74.8877C71.7041 75.4795 73.2365 75.9302 74.5815 76.4303C75.0807 76.6158 75.6588 76.8913 76.1582 77.1167C76.6576 77.3421 77.0784 77.5173 77.2627 77.5028C77.3092 77.499 77.5748 77.3416 77.8524 77.1744C78.13 77.0073 78.4194 76.8305 78.514 76.7878C78.5429 76.7748 78.5712 76.6965 78.6003 76.6158C78.6294 76.5352 78.6596 76.4523 78.6927 76.4303C78.7338 76.4028 78.8003 76.4131 78.8681 76.4251C78.9358 76.4371 79.0046 76.4509 79.0502 76.4303C79.0799 76.4169 79.1074 76.3386 79.1362 76.258C79.165 76.1774 79.1948 76.0946 79.229 76.0728C79.4007 75.9625 79.5856 75.879 79.7691 75.7979C79.9527 75.7167 80.135 75.6377 80.3015 75.5366C80.4997 75.4159 80.6954 75.2836 80.8778 75.1583C81.0601 75.0328 81.229 74.9143 81.374 74.8216C81.577 74.6914 81.8512 74.5497 82.094 74.4219C82.3367 74.2941 82.5482 74.1804 82.6252 74.1066C82.7001 74.0349 82.7963 73.9818 82.8926 73.9285C82.989 73.8752 83.0855 73.8218 83.1615 73.7491C83.2364 73.6772 83.3325 73.6245 83.4289 73.5712C83.5252 73.5179 83.6217 73.4643 83.6977 73.3916C83.8475 73.248 84.082 73.1797 84.234 73.0341C84.3838 72.8905 84.6183 72.8222 84.7702 72.6766C84.9045 72.5479 84.9584 72.6195 85.1277 72.4978C85.3297 72.3527 85.3708 72.2229 85.4852 71.9616C85.5803 71.7442 85.5894 70.2691 85.664 68.9228C85.7294 67.7413 85.8663 66.3622 85.8427 65.3478C85.8134 64.0907 85.3195 62.4404 85.1277 61.9516C84.8626 61.2761 84.7318 61.0809 84.4127 60.7003C83.8114 59.9832 83.3191 59.5218 82.6252 59.0916C80.7049 57.9011 78.1967 57.3995 76.0115 56.7678C75.4427 56.6034 74.966 56.4285 74.4027 56.2316C73.7871 56.0163 73.122 55.9609 72.6152 55.6953C72.5123 55.6413 72.3998 55.4202 72.2577 55.3378C71.8682 55.1124 71.6069 54.9996 71.364 54.8016C71.2181 54.6825 70.978 54.5761 70.8277 54.4441C69.1859 53.0021 68.1491 50.1349 67.074 48.1878C66.3829 46.9364 65.3973 45.3618 64.5715 44.6128C64.2275 44.3009 63.3215 43.8915 63.1415 43.7191C62.987 43.571 62.9988 43.6649 62.784 43.5403C59.6124 41.7024 55.5911 42.6907 50.9865 42.2891C49.1988 42.1332 47.1292 41.2037 46.1602 41.7528Z" fill="#FFB22D"/>
<path d="M81.6418 74.9107C78.4399 70.0845 72.036 60.4321 65.9118 54.3545C61.1222 49.6013 53.2327 45.0689 49.2881 42.8027" stroke="#457168" stroke-width="0.3575"/>
</g>
<path d="M130.8 129.124L169.835 104.295L117.217 90.3691L130.8 129.124Z" fill="#F0DEC1"/>
<path d="M132.983 37.8421L75.396 24.4C74.9094 24.2602 74.4713 24.425 74.1665 24.7957L74.1655 24.7939L70.9785 27.2748L73.7336 33.9422L73.7334 107.429C73.7334 108.676 74.4815 109.911 75.3958 110.174L125.657 124.617L130.621 129.123L133.857 126.66L133.844 126.637C134.323 126.375 134.645 125.75 134.645 124.933L134.645 40.5868C134.645 39.3399 133.897 38.1049 132.983 37.8421Z" fill="#04785E"/>
<path d="M129.657 129.292L72.2371 113.919C71.3255 113.675 70.5796 112.455 70.5796 111.208L70.5798 28.6369C70.5798 27.3901 71.3255 26.5695 72.2371 26.8135L129.657 40.412C130.568 40.656 131.314 41.876 131.314 43.1228L131.314 127.469C131.314 128.716 130.568 129.536 129.657 129.292Z" fill="#F4CF8F"/>
<path d="M128.122 123.384L75.1045 109.19V33.3037L128.122 45.7966V123.384Z" fill="white"/>
<path d="M128.122 123.384L75.1045 109.19V33.3037L128.122 45.7966V123.384Z" stroke="#4F8176" stroke-width="0.20449" stroke-miterlimit="10"/>
<path d="M113.557 35.4204L113.06 35.3006C112.663 32.8056 110.815 30.5132 108.659 29.993L94.3819 26.5485C92.2262 26.0283 90.4703 27.451 90.1929 29.7831L89.6958 29.6634C87.3018 29.0858 85.4001 30.9034 85.4696 33.7026C85.5392 36.5016 87.5547 39.2644 89.9487 39.8419L113.81 45.5993C116.204 46.177 118.106 44.3593 118.036 41.5601C117.967 38.7609 115.951 35.9979 113.557 35.4204Z" fill="#04785E"/>
<mask id="mask2_4223_12319" style="mask-type:luminance" maskUnits="userSpaceOnUse" x="11" y="27" width="179" height="180">
<path d="M11.125 27.3223H189.875V206.072H11.125V27.3223Z" fill="white"/>
</mask>
<g mask="url(#mask2_4223_12319)">
<path d="M97.8887 105.039C97.8887 105.039 121.912 111.336 123.681 111.8" stroke="#D1B584" stroke-width="0.887315" stroke-linecap="round" stroke-linejoin="round"/>
<path d="M98.0122 98.8896L113.437 102.966" stroke="#D1B584" stroke-width="0.887315" stroke-linecap="round" stroke-linejoin="round"/>
<path d="M89.6376 106.068L79.8101 103.458L79.8047 92.4307L89.6321 95.0414L89.6376 106.068Z" fill="#FFB22D"/>
</g>
<mask id="mask3_4223_12319" style="mask-type:luminance" maskUnits="userSpaceOnUse" x="11" y="7" width="179" height="180">
<path d="M11.125 7.57031H189.875V186.32H11.125V7.57031Z" fill="white"/>
</mask>
<g mask="url(#mask3_4223_12319)">
<path d="M97.8887 85.2881L123.784 92.0759" stroke="#D1B584" stroke-width="0.887315" stroke-linecap="round" stroke-linejoin="round"/>
<path d="M98.0127 79.1377L113.438 83.2139" stroke="#D1B584" stroke-width="0.887315" stroke-linecap="round" stroke-linejoin="round"/>
<path d="M89.7205 86.4317L79.7277 83.777L79.7222 72.5645L89.7149 75.2191L89.7205 86.4317Z" fill="#FFB22D"/>
</g>
<mask id="mask4_4223_12319" style="mask-type:luminance" maskUnits="userSpaceOnUse" x="11" y="-13" width="179" height="180">
<path d="M11.125 -12.3604H189.875V166.39H11.125V-12.3604Z" fill="white"/>
</mask>
<g mask="url(#mask4_4223_12319)">
<path d="M97.8887 65.3564L123.784 72.1443" stroke="#D1B584" stroke-width="0.887315" stroke-linecap="round" stroke-linejoin="round"/>
<path d="M98.0122 59.207L113.437 63.2832" stroke="#D1B584" stroke-width="0.887315" stroke-linecap="round" stroke-linejoin="round"/>
<path d="M89.7203 66.5008L79.7277 63.8462L79.7222 52.6338L89.7148 55.2884L89.7203 66.5008Z" fill="#FFB22D"/>
<path d="M81.8389 58.0156L84.1122 61.9842L87.0755 58.1511" stroke="white" stroke-width="0.988666" stroke-linecap="round" stroke-linejoin="round"/>
</g>
<path d="M112.019 36.691L111.522 36.5712C111.125 34.0762 109.276 31.7838 107.121 31.2636L92.844 27.8189C90.6881 27.2989 88.9322 28.7216 88.6548 31.0538L88.1577 30.934C85.7637 30.3565 83.862 32.174 83.9315 34.9732C84.0011 37.7723 86.0168 40.535 88.4108 41.1126L112.272 46.8699C114.666 47.4476 116.568 45.6299 116.499 42.8307C116.429 40.0315 114.413 37.2685 112.019 36.691Z" fill="#FFE4B7"/>
<path d="M89.8604 33.3672L109.98 38.5806" stroke="white" stroke-width="0.55484" stroke-linecap="round" stroke-linejoin="round"/>
<mask id="mask5_4223_12319" style="mask-type:luminance" maskUnits="userSpaceOnUse" x="11" y="-15" width="179" height="180">
<path d="M11.125 -14.375H189.875V164.375H11.125V-14.375Z" fill="white"/>
</mask>
<g mask="url(#mask5_4223_12319)">
<path d="M80.1519 78.0114L82.9852 68.2276L74.1081 73.3552C72.7795 76.056 78.5997 79.9366 80.1519 78.0114Z" fill="#FBE7C5"/>
<path d="M83.4088 67.808L81.7375 72.5371C81.6294 71.0894 80.9626 70.2068 79.3291 70.302L83.4088 67.808Z" fill="#327B6B"/>
<path d="M51.0819 109.651C51.1008 109.631 51.1183 109.61 51.1366 109.589L51.138 109.59L56.793 103.418C58.3699 101.697 58.4549 99.1504 56.9828 97.7303C55.5105 96.3099 53.0386 96.554 51.4615 98.2751L45.8066 104.447L45.8079 104.449C45.7889 104.469 45.7695 104.488 45.7507 104.508C44.1736 106.23 45.3452 107.565 46.8175 108.986C48.2896 110.406 49.505 111.373 51.0819 109.651Z" fill="#FFB22D"/>
<path d="M48.3547 101.511L73.7721 73.8522C75.3191 73.1958 76.5704 73.763 77.3779 76.1652L53.8384 101.223C52.2426 98.3051 50.2951 99.955 48.3547 101.511Z" fill="#327B6B"/>
<path d="M77.3783 76.1655C77.9918 76.1775 79.4242 75.8723 79.9172 78.2154L55.3128 105.116C54.5905 102.583 53.1276 101.636 53.1276 101.636L77.3783 76.1655Z" fill="#04785E"/>
<path d="M53.8288 106.766C53.8068 106.783 53.8649 106.725 53.8835 106.704L53.8849 106.705L56.3984 103.933C57.8577 102.018 53.0212 96.4948 51.2495 98.3562C51.2303 98.3764 51.2877 98.3164 51.307 98.2964L51.3054 98.2951L48.4108 101.45L48.412 101.451C48.393 101.472 48.3319 101.527 48.3545 101.511C50.0407 100.309 55.5926 105.408 53.8288 106.766Z" fill="#FBE7C5"/>
<path d="M71.1269 123.92C68.4353 123.068 63.9068 123.101 61.0127 123.992C60.5186 124.144 60.106 124.311 59.7718 124.488C57.8865 124.148 55.3592 124.245 53.6448 124.773C51.6109 125.399 51.4955 126.391 53.3868 126.99C55.2044 127.564 58.2109 127.564 60.2478 127.007C60.3731 127.055 60.5043 127.101 60.6453 127.146C63.3369 127.997 67.8652 127.965 70.7595 127.074C73.654 126.183 73.8185 124.771 71.1269 123.92Z" fill="#EFDEC1"/>
<path d="M66.6178 123.722L68.6763 124.067C70.184 123.862 70.9843 123.238 71.4734 123.757L71.5672 124.261C71.749 124.622 71.4632 125.201 70.9092 125.416L68.7195 126.18L68.0562 126.056L68.0437 126.695L66.8101 127.053C66.0095 127.243 65.169 126.967 65.1646 126.251C65.1646 126.251 65.1688 124.248 65.5342 124.169C66.2682 124.009 65.9773 123.873 66.6178 123.722Z" fill="#457168"/>
<path d="M67.6874 124.701C67.6772 125.54 65.6354 125.516 65.6455 124.676L65.6784 121.948L67.7201 121.973L67.6874 124.701Z" fill="#EDB554"/>
<path d="M68.3095 122.336C67.5561 123.271 65.7881 123.181 65.4343 122.511C65.3742 118.646 64.245 114.487 65.9527 109.248C65.9527 109.248 66.402 107.917 67.9615 108.098C69.515 108.277 69.8951 109.735 69.8951 109.735L68.3095 122.336Z" fill="#457168"/>
<path d="M65.6006 109.78L60.3101 94.4828C60.3101 94.4828 60.4032 91.6172 63.7653 91.4545C67.276 91.2846 67.6411 94.2707 67.6411 94.2707L69.6385 109.273C69.6385 109.273 67.9366 112.995 65.6006 109.78Z" fill="#457168"/>
<path d="M58.8292 122.292L60.2089 123.588C61.4494 124.192 62.2448 123.594 62.3531 124.231L62.5164 124.814C62.5273 125.275 61.4615 125.506 61.099 125.466L58.7798 124.944L58.3777 124.979L58.0993 125.184C57.6432 125.015 56.7845 125.35 56.5971 124.918C56.4971 124.688 56.6143 123.696 56.6211 123.457C56.6211 123.457 56.6111 122.664 56.8042 122.454C57.2643 121.952 58.2696 122.084 58.8292 122.292Z" fill="#457168"/>
<path d="M59.0834 122.547C59.016 123.307 56.9738 123.256 57.0411 122.496L57.2601 120.025L59.3023 120.076L59.0834 122.547Z" fill="#EDB554"/>
<path d="M60.0622 121.262C59.2599 122.11 57.5032 120.861 57.1849 120.242C57.4312 116.667 56.8732 111.762 59.3819 109.056C59.3819 109.056 60.0096 107.949 61.1205 108.099C62.6896 108.31 62.7552 109.73 62.7552 109.73C62.7422 109.99 62.6943 111.875 62.6239 112.126L60.0622 121.262Z" fill="#457168"/>
<path d="M59.3025 109.171L57.5199 100.176C56.9452 98.9032 56.8174 97.7736 56.6752 95.6617C56.6752 95.6617 57.4121 93.5716 59.7978 93.6784C62.3949 93.7947 62.5639 96.7945 62.5639 96.7945L62.7828 109.543C62.7874 109.804 60.0516 112.175 59.3025 109.171Z" fill="#457168"/>
<path d="M66.1692 75.8141C65.9175 77.4482 64.2999 78.2335 63.1755 77.3307C62.0511 76.4279 61.3436 74.3716 61.5954 72.7375C61.8471 71.1034 62.9629 70.5105 64.0873 71.4133C65.2118 72.3161 66.421 74.18 66.1692 75.8141Z" fill="#EDB554"/>
<path d="M61.9757 80.5848L61.8068 80.5412C61.2361 80.3935 60.8898 79.806 61.0375 79.235L61.8703 76.017C62.0179 75.4462 62.6057 75.1002 63.1764 75.248L63.3453 75.2916C63.9161 75.4393 64.2621 76.0272 64.1145 76.5978L63.7686 79.8076C63.6211 80.3783 62.5463 80.7324 61.9757 80.5848Z" fill="#EDB554"/>
<path d="M60.3901 76.5564C60.3901 76.5564 60.5568 77.6999 62.5986 77.7265C63.2184 77.7347 63.9974 76.7239 63.8325 75.9955C63.7182 75.4901 63.371 75.5661 63.3555 75.2869C63.3404 75.0165 64.5607 74.8108 64.7312 74.6297C64.8611 74.4916 63.4486 73.7928 63.4713 73.764C63.5083 73.7389 65.3984 74.0967 65.5479 74.0113C66.9189 73.2293 66.2548 71.8918 65.5727 71.2552C65.2286 70.934 63.3755 69.4673 64.5446 70.977C65.0835 71.6731 63.6611 70.7147 62.9218 70.8629C61.4873 71.1507 58.9171 72.154 60.3901 76.5564Z" fill="#327B6B"/>
<path d="M64.6492 75.373C64.5879 75.7705 64.2163 76.0428 63.8188 75.9817C63.4215 75.9203 63.1492 75.5486 63.2104 75.1513C63.2715 74.754 63.6434 74.4815 64.0406 74.5428C64.4379 74.604 64.7103 74.9757 64.6492 75.373Z" fill="#EDB554"/>
<path d="M63.8888 77.7858L63.6675 77.4121C63.6675 77.4121 64.0111 77.6783 64.5815 77.5302C64.5815 77.5302 64.2643 77.7696 63.8888 77.7858Z" fill="#DE8E04"/>
<path d="M56.1343 96.1389C56.3093 92.0812 56.9192 89.4302 56.7211 85.9222C56.7978 79.2186 57.6352 78.9313 59.114 78.5066L60.5927 78.3418C61.0519 78.4292 61.4773 78.6405 61.9313 78.7517C63.8323 79.2168 65.051 79.3203 66.4165 80.0598C67.6324 80.7181 67.7032 82.4781 67.7001 83.9522C68.0287 88.2731 68.1155 94.7779 68.1767 96.9107C67.4853 99.9641 57.2911 98.2059 56.1343 96.1389Z" fill="#E7CDA1"/>
<path d="M67.8474 84.4561L66.7321 85.6594C65.4228 90.9434 66.0295 96.3004 63.8823 98.5544C65.196 98.5508 66.3998 98.378 67.2902 97.7232C67.3379 97.7291 67.7485 97.3639 67.8084 96.7049L67.8474 84.4561Z" fill="#F19F12"/>
<path d="M60.3421 78.252C60.3421 78.252 59.8448 78.4833 61.8016 78.8706C63.1707 79.1416 64.1672 79.3104 64.1672 79.3104C64.1672 79.3104 62.9081 77.9908 60.3421 78.252Z" fill="#FBE7C5"/>
<path d="M72.8726 87.5127L72.8729 87.5129C73.4003 87.9267 74.1701 87.8343 74.5839 87.3072L75.5849 86.0321C75.9989 85.505 75.9062 84.735 75.379 84.3208L75.3785 84.3206C74.8515 83.9068 74.0815 83.9998 73.6675 84.5269L72.6667 85.8014C72.2527 86.3287 72.3453 87.0987 72.8726 87.5127Z" fill="#EDB554"/>
<path d="M73.7642 87.9398C73.7642 87.9398 69.6697 91.735 68.0109 92.2865C66.3521 92.8381 65.5701 89.7265 65.5701 89.7265L72.4824 86.0035L73.7642 87.9398Z" fill="#EDB554"/>
<path d="M63.286 83.7347L65.2771 91.3992C65.5068 93.2865 70.3157 92.8237 69.8133 90.6027C69.7816 90.4628 67.1565 81.0164 67.1565 81.0164C67.1565 81.0164 63.4451 78.3302 63.286 83.7347Z" fill="#E7CDA1"/>
<path d="M65.8793 90.1557C66.543 91.2656 69.0414 91.1063 69.6451 89.863" stroke="#FBE7C5" stroke-width="0.253289" stroke-linecap="round" stroke-linejoin="round"/>
</g>
</g>
</g>
<defs>
<clipPath id="clip0_4223_12319">
<rect width="200" height="150" fill="white" transform="translate(0.5)"/>
</clipPath>
</defs>
</svg>
