<svg width="195" height="196" viewBox="0 0 195 196" fill="none" xmlns="http://www.w3.org/2000/svg">
<path d="M97.4999 41.0547C128.183 41.0547 153.055 65.9269 153.055 96.6102C153.055 127.294 128.183 152.166 97.4999 152.166C66.8166 152.166 41.9443 127.294 41.9443 96.6102C41.9443 65.9269 66.8166 41.0547 97.4999 41.0547Z" fill="#006073"/>
<path d="M119.578 107.855C117.164 105.441 114.167 102.438 114.167 90.7045C114.167 82.0906 107.889 74.9462 99.661 73.5823C100.061 73.0045 100.278 72.3156 100.278 71.6128C100.278 69.6934 98.7221 68.1406 96.8054 68.1406C94.8888 68.1406 93.3332 69.6934 93.3332 71.6128C93.3332 72.3434 93.5582 73.024 93.9443 73.5823C85.7165 74.9462 79.4443 82.0906 79.4443 90.7045C79.4443 102.438 76.4415 105.441 74.0276 107.855C70.7582 111.127 73.0776 116.752 77.7138 116.752H89.861C89.861 120.585 92.9693 123.691 96.8054 123.691C100.642 123.691 103.75 120.585 103.75 116.752H115.897C120.522 116.752 122.858 111.135 119.578 107.855ZM96.8054 119.355C97.036 119.355 97.2554 119.446 97.4165 119.61C97.5804 119.771 97.6721 119.988 97.6721 120.218C97.6721 120.452 97.5804 120.674 97.4165 120.835C97.2554 120.999 97.036 121.088 96.8054 121.088C94.4138 121.088 92.4638 119.143 92.4638 116.752H94.1999C94.1999 118.185 95.3693 119.355 96.8054 119.355Z" fill="white"/>
<g opacity="0.5">
<path d="M97.5002 4.29883C149.248 4.29883 191.2 46.2507 191.2 97.9988C191.2 149.747 149.248 191.699 97.5002 191.699C45.7521 191.699 3.80029 149.747 3.80029 97.9988C3.80029 46.2507 45.7521 4.29883 97.5002 4.29883Z" stroke="white" stroke-width="7.34901"/>
</g>
</svg>
