<svg width="117" height="107" viewBox="0 0 117 107" fill="none" xmlns="http://www.w3.org/2000/svg">
<rect width="117.067" height="117.067" rx="58.5337" fill="#FCFCFC"/>
<rect x="39" y="36.2266" width="40" height="44" rx="4" fill="#EBFFF3"/>
<path d="M62 54.2227C62 51.4612 59.7614 49.2227 57 49.2227C54.2386 49.2227 52 51.4612 52 54.2227C52 56.9841 54.2386 59.2227 57 59.2227C59.7614 59.2227 62 56.9841 62 54.2227Z" fill="white" stroke="#09974C" stroke-width="2" stroke-linecap="round" stroke-linejoin="round"/>
<path d="M50 66.2266C50 62.3606 53.134 59.2266 57 59.2266C58.9587 59.2266 60.7295 60.0311 62 61.3276" stroke="#09974C" stroke-width="2" stroke-linecap="round" stroke-linejoin="round"/>
<path d="M60.0005 64.7266C60.0005 64.7266 61.349 65.2333 62.0005 67.2266C62.0005 67.2266 65.177 62.2266 68.0005 61.2266" stroke="#09974C" stroke-width="2" stroke-linecap="round" stroke-linejoin="round"/>
</svg>
