<svg width="117" height="114" viewBox="0 0 117 114" fill="none" xmlns="http://www.w3.org/2000/svg">
<rect y="-1.39844" width="117.067" height="117.067" rx="58.5337" fill="#FCFCFC"/>
<rect x="38.5" y="35" width="40" height="44" rx="4" fill="#F7EEB3" fill-opacity="0.2"/>
<path d="M58.5 56.75V57.25M58.5 53V53.5M58.5 60.5V61M65.5 64C66.0304 64 66.5391 63.7893 66.9142 63.4142C67.2893 63.0391 67.5 62.5304 67.5 62V59C66.9696 59 66.4609 58.7893 66.0858 58.4142C65.7107 58.0391 65.5 57.5304 65.5 57C65.5 56.4696 65.7107 55.9609 66.0858 55.5858C66.4609 55.2107 66.9696 55 67.5 55V52C67.5 51.4696 67.2893 50.9609 66.9142 50.5858C66.5391 50.2107 66.0304 50 65.5 50H51.5C50.9696 50 50.4609 50.2107 50.0858 50.5858C49.7107 50.9609 49.5 51.4696 49.5 52V55C50.0304 55 50.5391 55.2107 50.9142 55.5858C51.2893 55.9609 51.5 56.4696 51.5 57C51.5 57.5304 51.2893 58.0391 50.9142 58.4142C50.5391 58.7893 50.0304 59 49.5 59V62C49.5 62.5304 49.7107 63.0391 50.0858 63.4142C50.4609 63.7893 50.9696 64 51.5 64H65.5Z" stroke="#EDB566" stroke-width="1.5" stroke-linecap="round" stroke-linejoin="round"/>
</svg>
