<svg width="201" height="154" viewBox="0 0 201 154" fill="none" xmlns="http://www.w3.org/2000/svg">
<g clip-path="url(#clip0_4223_11331)">
<rect width="200" height="152.03" transform="translate(0.5 0.985352)" fill="white"/>
<mask id="mask0_4223_11331" style="mask-type:luminance" maskUnits="userSpaceOnUse" x="0" y="0" width="201" height="154">
<path d="M200.5 0.985352H0.5V153.015H200.5V0.985352Z" fill="white"/>
</mask>
<g mask="url(#mask0_4223_11331)">
<path d="M0.5 23.1256C0.5 10.8979 10.4125 0.985352 22.6402 0.985352H178.36C190.588 0.985352 200.5 10.8979 200.5 23.1256V130.875C200.5 143.103 190.588 153.015 178.36 153.015H22.6402C10.4125 153.015 0.5 143.103 0.5 130.875V23.1256Z" fill="white"/>
<mask id="mask1_4223_11331" style="mask-type:luminance" maskUnits="userSpaceOnUse" x="-44" y="30" width="201" height="153">
<path d="M156.22 30.5059H-43.7803V182.535H156.22V30.5059Z" fill="white"/>
</mask>
<g mask="url(#mask1_4223_11331)">
<mask id="mask2_4223_11331" style="mask-type:luminance" maskUnits="userSpaceOnUse" x="44" y="30" width="113" height="126">
<path d="M44.7806 30.5059V155.967H156.22V30.5059H44.7806Z" fill="white"/>
</mask>
<g mask="url(#mask2_4223_11331)">
<path d="M61.6994 247.405L139.323 247.363C141.543 247.362 143.741 246.946 145.791 246.138C147.842 245.331 149.705 244.148 151.274 242.657C152.843 241.166 154.087 239.397 154.936 237.45C155.784 235.502 156.221 233.415 156.22 231.308V46.5533C156.22 44.4448 155.782 42.3569 154.932 40.409C154.081 38.4611 152.835 36.6914 151.263 35.2011C149.692 33.7107 147.827 32.529 145.774 31.7233C143.722 30.9177 141.522 30.504 139.301 30.5059L61.6773 30.5483C57.1946 30.5521 52.8972 32.2452 49.7289 35.2556C46.5599 38.266 44.7806 42.3474 44.7806 46.6029L44.8182 231.358C44.8182 235.61 46.5961 239.688 49.7614 242.697C52.9267 245.706 57.2205 247.4 61.6994 247.405Z" fill="#04785E"/>
<mask id="mask3_4223_11331" style="mask-type:luminance" maskUnits="userSpaceOnUse" x="-50" y="36" width="201" height="205">
<path d="M150.315 36.8896H-49.6846V240.321H150.315V36.8896Z" fill="white"/>
</mask>
<g mask="url(#mask3_4223_11331)">
<path d="M62.3361 36.918H77.1523C77.6357 36.9273 78.1125 37.0287 78.5552 37.2166C78.9979 37.4045 79.3979 37.675 79.7322 38.0128C80.0664 38.3506 80.3284 38.7489 80.5031 39.1848C80.6778 39.6208 80.7616 40.0858 80.75 40.5532V43.1517C80.7382 43.6191 80.8222 44.0841 80.9968 44.5201C81.1714 44.956 81.4334 45.3543 81.7678 45.6921C82.102 46.0298 82.502 46.3004 82.9447 46.4882C83.3874 46.6761 83.8641 46.7776 84.3475 46.7868H113.231C113.715 46.7776 114.192 46.6759 114.636 46.4876C115.079 46.2993 115.479 46.0281 115.813 45.6896C116.148 45.3511 116.41 44.9519 116.584 44.5151C116.758 44.0783 116.841 43.6126 116.829 43.1446V40.5248C116.817 40.0574 116.901 39.5924 117.075 39.1564C117.25 38.7205 117.512 38.3222 117.846 37.9844C118.181 37.6466 118.581 37.3761 119.023 37.1882C119.466 37.0003 119.943 36.8989 120.426 36.8896H138.612C141.702 36.8915 144.665 38.0778 146.852 40.1885C149.039 42.2992 150.271 45.1622 150.279 48.15L150.315 229.004C150.315 231.994 149.087 234.862 146.901 236.976C144.714 239.09 141.748 240.279 138.656 240.279L62.3878 240.321C60.8557 240.323 59.3383 240.033 57.9228 239.467C56.5066 238.901 55.2202 238.07 54.1368 237.023C53.0527 235.976 52.1937 234.732 51.6077 233.364C51.0217 231.995 50.7199 230.528 50.7213 229.047L50.6844 48.1997C50.6844 45.2101 51.9117 42.3427 54.0962 40.2274C56.2807 38.1121 59.2446 36.9218 62.3361 36.918Z" fill="white"/>
</g>
<mask id="mask4_4223_11331" style="mask-type:luminance" maskUnits="userSpaceOnUse" x="-55" y="46" width="201" height="153">
<path d="M145.888 46.7412H-54.1123V198.771H145.888V46.7412Z" fill="white"/>
</mask>
<g mask="url(#mask4_4223_11331)">
<mask id="mask5_4223_11331" style="mask-type:luminance" maskUnits="userSpaceOnUse" x="55" y="46" width="91" height="110">
<path d="M55.1128 46.7412V155.966H145.888V46.7412H55.1128Z" fill="white"/>
</mask>
<g mask="url(#mask5_4223_11331)">
<mask id="mask6_4223_11331" style="mask-type:luminance" maskUnits="userSpaceOnUse" x="-55" y="-55" width="201" height="307">
<path d="M145.888 -54.3652H-54.1123V251.908H145.888V-54.3652Z" fill="white"/>
</mask>
<g mask="url(#mask6_4223_11331)">
<mask id="mask7_4223_11331" style="mask-type:luminance" maskUnits="userSpaceOnUse" x="-55" y="48" width="201" height="153">
<path d="M145.888 48.9561H-54.1123V200.986H145.888V48.9561Z" fill="white"/>
</mask>
<g mask="url(#mask7_4223_11331)">
<mask id="mask8_4223_11331" style="mask-type:luminance" maskUnits="userSpaceOnUse" x="-55" y="48" width="201" height="153">
<path d="M145.888 48.9561H-54.1123V200.986H145.888V48.9561Z" fill="white"/>
</mask>
<g mask="url(#mask8_4223_11331)">
<mask id="mask9_4223_11331" style="mask-type:luminance" maskUnits="userSpaceOnUse" x="102" y="48" width="44" height="49">
<path d="M102.345 48.9561V96.9265H145.888V48.9561H102.345Z" fill="white"/>
</mask>
<g mask="url(#mask9_4223_11331)">
<path d="M145.888 54.8601C145.888 51.5994 143.244 48.9561 139.984 48.9561H108.249C104.989 48.9561 102.345 51.5994 102.345 54.8601V91.0225C102.345 94.2832 104.989 96.9265 108.249 96.9265H139.984C143.244 96.9265 145.888 94.2832 145.888 91.0225V54.8601Z" fill="#EFEFEF"/>
<mask id="mask10_4223_11331" style="mask-type:luminance" maskUnits="userSpaceOnUse" x="-65" y="54" width="201" height="153">
<path d="M135.555 54.8594H-64.4448V206.889H135.555V54.8594Z" fill="white"/>
</mask>
<g mask="url(#mask10_4223_11331)">
<mask id="mask11_4223_11331" style="mask-type:luminance" maskUnits="userSpaceOnUse" x="111" y="54" width="25" height="25">
<path d="M111.939 54.8594V78.4756H135.555V54.8594H111.939Z" fill="white"/>
</mask>
<g mask="url(#mask11_4223_11331)">
<path d="M134.847 58.2363C134.847 56.7628 133.652 55.5684 132.179 55.5684H115.318C113.844 55.5684 112.65 56.7628 112.65 58.2363V75.0974C112.65 76.5709 113.844 77.7654 115.318 77.7654H132.179C133.652 77.7654 134.847 76.5709 134.847 75.0974V58.2363Z" fill="white"/>
<path d="M134.847 58.2363C134.847 56.7628 133.652 55.5684 132.179 55.5684H115.318C113.844 55.5684 112.65 56.7628 112.65 58.2363V75.0974C112.65 76.5709 113.844 77.7654 115.318 77.7654H132.179C133.652 77.7654 134.847 76.5709 134.847 75.0974V58.2363Z" stroke="white" stroke-width="1.41924"/>
<mask id="mask12_4223_11331" style="mask-type:luminance" maskUnits="userSpaceOnUse" x="-61" y="54" width="201" height="153">
<path d="M139.246 54.1221H-60.7544V206.152H139.246V54.1221Z" fill="white"/>
</mask>
<g mask="url(#mask12_4223_11331)">
<mask id="mask13_4223_11331" style="mask-type:luminance" maskUnits="userSpaceOnUse" x="108" y="54" width="32" height="32">
<path d="M108.249 54.1221V85.1184H139.246V54.1221H108.249Z" fill="white"/>
</mask>
<g mask="url(#mask13_4223_11331)">
<path d="M119.132 66.8352C119.132 66.8352 118.309 63.4353 119.132 62.2827C119.956 61.1319 120.283 60.3648 122.093 59.8156C123.904 59.2663 123.244 59.3758 124.561 59.432C125.877 59.4882 126.974 60.2001 126.974 60.5847C126.974 60.5847 127.798 60.6389 128.125 60.9682C128.454 61.2976 129.003 62.8319 129.003 63.2155C129.003 63.599 128.729 66.1795 128.454 66.7268L128.781 66.8372C129.056 70.0172 127.686 70.4018 127.686 70.4018C127.192 73.3639 126.698 72.1027 126.698 72.8698C126.698 73.637 127.192 73.3639 127.192 73.3639C127.192 73.3639 127.63 74.5698 128.727 75.0086C129.823 75.4474 135.91 77.8041 136.405 78.2981C136.901 78.7921 136.845 81.0955 136.845 81.0955H110.743C110.743 81.0955 110.685 78.793 111.181 78.2981C111.675 77.8041 117.763 75.4464 118.859 75.0086C119.956 74.5698 120.393 73.3639 120.393 73.3639C120.393 73.3639 120.887 73.637 120.887 72.8698C120.887 72.1027 120.393 73.3639 119.899 70.4018C119.899 70.4018 118.531 70.0172 118.805 66.8372H119.134L119.132 66.8352Z" fill="#939E9B"/>
</g>
</g>
</g>
</g>
<mask id="mask14_4223_11331" style="mask-type:luminance" maskUnits="userSpaceOnUse" x="-59" y="82" width="201" height="153">
<path d="M141.09 82.9043H-58.9097V234.934H141.09V82.9043Z" fill="white"/>
</mask>
<g mask="url(#mask14_4223_11331)">
<path fill-rule="evenodd" clip-rule="evenodd" d="M141.09 84.3803C141.09 83.5651 140.429 82.9043 139.614 82.9043H108.618C107.803 82.9043 107.142 83.5651 107.142 84.3803C107.142 85.1955 107.803 85.8563 108.618 85.8563H139.614C140.429 85.8563 141.09 85.1955 141.09 84.3803Z" fill="#D1D1D1"/>
<path fill-rule="evenodd" clip-rule="evenodd" d="M138.138 90.2838C138.138 89.6724 137.643 89.1768 137.031 89.1768H111.201C110.59 89.1768 110.094 89.6724 110.094 90.2838C110.094 90.8952 110.59 91.3908 111.201 91.3908H137.031C137.643 91.3908 138.138 90.8952 138.138 90.2838Z" fill="#D1D1D1"/>
</g>
</g>
</g>
<mask id="mask15_4223_11331" style="mask-type:luminance" maskUnits="userSpaceOnUse" x="-102" y="48" width="201" height="153">
<path d="M98.6548 48.9561H-101.345V200.986H98.6548V48.9561Z" fill="white"/>
</mask>
<g mask="url(#mask15_4223_11331)">
<mask id="mask16_4223_11331" style="mask-type:luminance" maskUnits="userSpaceOnUse" x="55" y="48" width="44" height="49">
<path d="M55.1124 48.9561V96.9265H98.6548V48.9561H55.1124Z" fill="white"/>
</mask>
<g mask="url(#mask16_4223_11331)">
<path d="M98.6548 54.8601C98.6548 51.5994 96.0114 48.9561 92.7507 48.9561H61.0164C57.7557 48.9561 55.1124 51.5994 55.1124 54.8601V91.0225C55.1124 94.2832 57.7557 96.9265 61.0164 96.9265H92.7507C96.0114 96.9265 98.6548 94.2832 98.6548 91.0225V54.8601Z" fill="#EFEFEF"/>
<mask id="mask17_4223_11331" style="mask-type:luminance" maskUnits="userSpaceOnUse" x="-112" y="54" width="201" height="153">
<path d="M88.3228 54.8594H-111.677V206.889H88.3228V54.8594Z" fill="white"/>
</mask>
<g mask="url(#mask17_4223_11331)">
<mask id="mask18_4223_11331" style="mask-type:luminance" maskUnits="userSpaceOnUse" x="64" y="54" width="25" height="25">
<path d="M64.7065 54.8594V78.4756H88.3228V54.8594H64.7065Z" fill="white"/>
</mask>
<g mask="url(#mask18_4223_11331)">
<path d="M87.6143 58.2363C87.6143 56.7628 86.4198 55.5684 84.9464 55.5684H68.0852C66.6117 55.5684 65.4173 56.7628 65.4173 58.2363V75.0974C65.4173 76.5709 66.6117 77.7654 68.0852 77.7654H84.9464C86.4198 77.7654 87.6143 76.5709 87.6143 75.0974V58.2363Z" fill="white"/>
<path d="M87.6143 58.2363C87.6143 56.7628 86.4198 55.5684 84.9464 55.5684H68.0852C66.6117 55.5684 65.4173 56.7628 65.4173 58.2363V75.0974C65.4173 76.5709 66.6117 77.7654 68.0852 77.7654H84.9464C86.4198 77.7654 87.6143 76.5709 87.6143 75.0974V58.2363Z" stroke="white" stroke-width="1.41924"/>
<mask id="mask19_4223_11331" style="mask-type:luminance" maskUnits="userSpaceOnUse" x="-108" y="55" width="201" height="153">
<path d="M92.751 55.5977H-107.249V207.627H92.751V55.5977Z" fill="white"/>
</mask>
<g mask="url(#mask19_4223_11331)">
<mask id="mask20_4223_11331" style="mask-type:luminance" maskUnits="userSpaceOnUse" x="59" y="55" width="34" height="34">
<path d="M59.5406 55.5977V88.808H92.751V55.5977H59.5406Z" fill="white"/>
</mask>
<g mask="url(#mask20_4223_11331)">
<path d="M66.2291 76.1582L71.5698 73.5923L73.8281 72.5071C73.7715 72.4711 73.7177 72.4302 73.6621 72.392H70.6968C70.4763 72.3919 70.2649 72.3035 70.109 72.1466C69.9532 71.9895 69.8655 71.7766 69.8653 71.5545V69.3509H69.8728C69.9635 66.28 71.0225 63.5783 72.6127 61.8841C73.4513 60.9316 74.5382 60.2844 75.754 60.091C75.8081 60.0818 75.8625 60.0737 75.917 60.0666C75.9795 60.0584 76.0424 60.0514 76.1056 60.0457C76.2419 60.033 76.3787 60.0262 76.5155 60.0254C76.6513 60.0254 76.786 60.0333 76.9196 60.045C76.9838 60.0509 77.0475 60.058 77.1106 60.0663C77.1639 60.0731 77.2167 60.0809 77.2692 60.0896C78.4751 60.2796 79.5546 60.9168 80.3908 61.8556C81.9964 63.5481 83.0669 66.2625 83.1583 69.3513H83.1654V71.5549C83.1653 71.777 83.0776 71.9899 82.9217 72.1469C82.7658 72.3039 82.5545 72.3922 82.334 72.3924H79.3605C79.2793 72.448 79.1985 72.5047 79.1146 72.5556L81.2775 73.5699L86.7914 76.1565C87.2705 76.3826 87.585 76.9267 87.585 77.5343V83.6368C87.585 84.4547 87.0192 85.1176 86.3204 85.1176H66.7093C66.0105 85.1176 65.4447 84.4547 65.4447 83.6368V77.5337C65.4451 76.928 65.7548 76.3891 66.2291 76.1582Z" fill="#939E9B"/>
</g>
</g>
</g>
</g>
<mask id="mask21_4223_11331" style="mask-type:luminance" maskUnits="userSpaceOnUse" x="-107" y="82" width="201" height="153">
<path d="M93.8579 82.9043H-106.142V234.934H93.8579V82.9043Z" fill="white"/>
</mask>
<g mask="url(#mask21_4223_11331)">
<path fill-rule="evenodd" clip-rule="evenodd" d="M93.8579 84.3803C93.8579 83.5651 93.1971 82.9043 92.3819 82.9043H61.3856C60.5704 82.9043 59.9096 83.5651 59.9096 84.3803C59.9096 85.1955 60.5704 85.8563 61.3856 85.8563H92.3819C93.1971 85.8563 93.8579 85.1955 93.8579 84.3803Z" fill="#D1D1D1"/>
<path fill-rule="evenodd" clip-rule="evenodd" d="M90.9058 90.2838C90.9058 89.6724 90.4101 89.1768 89.7988 89.1768H63.9685C63.3571 89.1768 62.8615 89.6724 62.8615 90.2838C62.8615 90.8952 63.3571 91.3908 63.9685 91.3908H89.7988C90.4101 91.3908 90.9058 90.8952 90.9058 90.2838Z" fill="#D1D1D1"/>
</g>
</g>
</g>
</g>
<mask id="mask22_4223_11331" style="mask-type:luminance" maskUnits="userSpaceOnUse" x="-55" y="100" width="201" height="153">
<path d="M145.888 100.616H-54.1123V252.646H145.888V100.616Z" fill="white"/>
</mask>
<g mask="url(#mask22_4223_11331)">
<mask id="mask23_4223_11331" style="mask-type:luminance" maskUnits="userSpaceOnUse" x="-55" y="100" width="201" height="153">
<path d="M145.888 100.616H-54.1123V252.646H145.888V100.616Z" fill="white"/>
</mask>
<g mask="url(#mask23_4223_11331)">
<mask id="mask24_4223_11331" style="mask-type:luminance" maskUnits="userSpaceOnUse" x="102" y="100" width="44" height="49">
<path d="M102.345 100.616V148.587H145.888V100.616H102.345Z" fill="white"/>
</mask>
<g mask="url(#mask24_4223_11331)">
<path d="M145.888 106.52C145.888 103.26 143.244 100.616 139.984 100.616H108.249C104.989 100.616 102.345 103.26 102.345 106.52V142.683C102.345 145.943 104.989 148.587 108.249 148.587H139.984C143.244 148.587 145.888 145.943 145.888 142.683V106.52Z" fill="#EFEFEF"/>
<mask id="mask25_4223_11331" style="mask-type:luminance" maskUnits="userSpaceOnUse" x="-65" y="106" width="201" height="153">
<path d="M135.555 106.521H-64.4448V258.55H135.555V106.521Z" fill="white"/>
</mask>
<g mask="url(#mask25_4223_11331)">
<mask id="mask26_4223_11331" style="mask-type:luminance" maskUnits="userSpaceOnUse" x="111" y="106" width="25" height="25">
<path d="M111.939 106.521V130.137H135.555V106.521H111.939Z" fill="white"/>
</mask>
<g mask="url(#mask26_4223_11331)">
<path d="M134.847 109.896C134.847 108.423 133.652 107.229 132.179 107.229H115.318C113.844 107.229 112.65 108.423 112.65 109.896V126.758C112.65 128.231 113.844 129.426 115.318 129.426H132.179C133.652 129.426 134.847 128.231 134.847 126.758V109.896Z" fill="white"/>
<path d="M134.847 109.896C134.847 108.423 133.652 107.229 132.179 107.229H115.318C113.844 107.229 112.65 108.423 112.65 109.896V126.758C112.65 128.231 113.844 129.426 115.318 129.426H132.179C133.652 129.426 134.847 128.231 134.847 126.758V109.896Z" stroke="white" stroke-width="1.41924"/>
<mask id="mask27_4223_11331" style="mask-type:luminance" maskUnits="userSpaceOnUse" x="-59" y="103" width="201" height="153">
<path d="M141.459 103.568H-58.5405V255.598H141.459V103.568Z" fill="white"/>
</mask>
<g mask="url(#mask27_4223_11331)">
<mask id="mask28_4223_11331" style="mask-type:luminance" maskUnits="userSpaceOnUse" x="105" y="103" width="37" height="37">
<path d="M105.297 103.568V139.731H141.459V103.568H105.297Z" fill="white"/>
</mask>
<g mask="url(#mask28_4223_11331)">
<mask id="mask29_4223_11331" style="mask-type:luminance" maskUnits="userSpaceOnUse" x="-61" y="105" width="201" height="153">
<path d="M139.246 105.782H-60.7544V257.812H139.246V105.782Z" fill="white"/>
</mask>
<g mask="url(#mask29_4223_11331)">
<mask id="mask30_4223_11331" style="mask-type:luminance" maskUnits="userSpaceOnUse" x="108" y="105" width="32" height="32">
<path d="M108.249 105.782V136.779H139.246V105.782H108.249Z" fill="white"/>
</mask>
<g mask="url(#mask30_4223_11331)">
<path d="M119.132 117.758C119.132 117.758 118.309 114.358 119.132 113.206C119.956 112.055 120.283 111.288 122.093 110.738C123.904 110.189 123.244 110.299 124.561 110.355C125.877 110.411 126.974 111.123 126.974 111.508C126.974 111.508 127.798 111.562 128.125 111.891C128.454 112.22 129.003 113.755 129.003 114.138C129.003 114.522 128.729 117.102 128.454 117.65L128.781 117.76C129.056 120.94 127.686 121.325 127.686 121.325C127.192 124.287 126.698 123.026 126.698 123.793C126.698 124.56 127.192 124.287 127.192 124.287C127.192 124.287 127.63 125.493 128.727 125.931C129.823 126.37 135.91 128.727 136.405 129.221C136.901 129.715 136.845 132.018 136.845 132.018H110.743C110.743 132.018 110.685 129.716 111.181 129.221C111.675 128.727 117.763 126.369 118.859 125.931C119.956 125.493 120.393 124.287 120.393 124.287C120.393 124.287 120.887 124.56 120.887 123.793C120.887 123.026 120.393 124.287 119.899 121.325C119.899 121.325 118.531 120.94 118.805 117.76H119.134L119.132 117.758Z" fill="#939E9B"/>
</g>
</g>
</g>
</g>
</g>
</g>
<mask id="mask31_4223_11331" style="mask-type:luminance" maskUnits="userSpaceOnUse" x="-59" y="134" width="201" height="153">
<path d="M141.09 134.564H-58.9097V286.594H141.09V134.564Z" fill="white"/>
</mask>
<g mask="url(#mask31_4223_11331)">
<path fill-rule="evenodd" clip-rule="evenodd" d="M141.09 136.04C141.09 135.225 140.429 134.564 139.614 134.564H108.618C107.803 134.564 107.142 135.225 107.142 136.04C107.142 136.856 107.803 137.516 108.618 137.516H139.614C140.429 137.516 141.09 136.856 141.09 136.04Z" fill="#D1D1D1"/>
<path fill-rule="evenodd" clip-rule="evenodd" d="M138.138 141.945C138.138 141.334 137.643 140.838 137.031 140.838H111.201C110.59 140.838 110.094 141.334 110.094 141.945C110.094 142.556 110.59 143.052 111.201 143.052H137.031C137.643 143.052 138.138 142.556 138.138 141.945Z" fill="#D1D1D1"/>
</g>
</g>
</g>
<mask id="mask32_4223_11331" style="mask-type:luminance" maskUnits="userSpaceOnUse" x="-102" y="100" width="201" height="153">
<path d="M98.6548 100.616H-101.345V252.646H98.6548V100.616Z" fill="white"/>
</mask>
<g mask="url(#mask32_4223_11331)">
<mask id="mask33_4223_11331" style="mask-type:luminance" maskUnits="userSpaceOnUse" x="55" y="100" width="44" height="49">
<path d="M55.1124 100.616V148.587H98.6548V100.616H55.1124Z" fill="white"/>
</mask>
<g mask="url(#mask33_4223_11331)">
<path d="M98.6548 106.52C98.6548 103.26 96.0114 100.616 92.7507 100.616H61.0164C57.7557 100.616 55.1124 103.26 55.1124 106.52V142.683C55.1124 145.943 57.7557 148.587 61.0164 148.587H92.7507C96.0114 148.587 98.6548 145.943 98.6548 142.683V106.52Z" fill="#EFEFEF"/>
<mask id="mask34_4223_11331" style="mask-type:luminance" maskUnits="userSpaceOnUse" x="-112" y="106" width="201" height="153">
<path d="M88.3228 106.521H-111.677V258.55H88.3228V106.521Z" fill="white"/>
</mask>
<g mask="url(#mask34_4223_11331)">
<mask id="mask35_4223_11331" style="mask-type:luminance" maskUnits="userSpaceOnUse" x="64" y="106" width="25" height="25">
<path d="M64.7065 106.521V130.137H88.3228V106.521H64.7065Z" fill="white"/>
</mask>
<g mask="url(#mask35_4223_11331)">
<path d="M87.6143 109.896C87.6143 108.423 86.4198 107.229 84.9464 107.229H68.0852C66.6117 107.229 65.4173 108.423 65.4173 109.896V126.758C65.4173 128.231 66.6117 129.426 68.0852 129.426H84.9464C86.4198 129.426 87.6143 128.231 87.6143 126.758V109.896Z" fill="white"/>
<path d="M87.6143 109.896C87.6143 108.423 86.4198 107.229 84.9464 107.229H68.0852C66.6117 107.229 65.4173 108.423 65.4173 109.896V126.758C65.4173 128.231 66.6117 129.426 68.0852 129.426H84.9464C86.4198 129.426 87.6143 128.231 87.6143 126.758V109.896Z" stroke="white" stroke-width="1.41924"/>
<mask id="mask36_4223_11331" style="mask-type:luminance" maskUnits="userSpaceOnUse" x="-108" y="103" width="201" height="153">
<path d="M92.0127 103.568H-107.987V255.598H92.0127V103.568Z" fill="white"/>
</mask>
<g mask="url(#mask36_4223_11331)">
<mask id="mask37_4223_11331" style="mask-type:luminance" maskUnits="userSpaceOnUse" x="61" y="103" width="32" height="32">
<path d="M61.0164 103.568V134.565H92.0127V103.568H61.0164Z" fill="white"/>
</mask>
<g mask="url(#mask37_4223_11331)">
<path d="M71.8999 118.495C71.8999 118.495 71.0765 115.096 71.8999 113.943C72.7232 112.792 73.0506 112.025 74.861 111.476C76.6714 110.926 76.0117 111.036 77.3281 111.092C78.6445 111.148 79.7419 111.86 79.7419 112.245C79.7419 112.245 80.5653 112.299 80.8927 112.628C81.222 112.958 81.7703 114.492 81.7703 114.876C81.7703 115.259 81.4962 117.84 81.222 118.387L81.5484 118.497C81.8236 121.677 80.4539 122.062 80.4539 122.062C79.9599 125.024 79.4659 123.763 79.4659 124.53C79.4659 125.297 79.9599 125.024 79.9599 125.024C79.9599 125.024 80.3977 126.23 81.4942 126.669C82.5907 127.108 88.6776 129.464 89.1726 129.958C89.6685 130.452 89.6123 132.756 89.6123 132.756H63.5106C63.5106 132.756 63.4524 130.453 63.9484 129.958C64.4424 129.464 70.5303 127.107 71.6267 126.669C72.7232 126.23 73.161 125.024 73.161 125.024C73.161 125.024 73.6551 125.297 73.6551 124.53C73.6551 123.763 73.161 125.024 72.667 122.062C72.667 122.062 71.2984 121.677 71.5725 118.497H71.9019L71.8999 118.495Z" fill="#939E9B"/>
</g>
</g>
</g>
</g>
<mask id="mask38_4223_11331" style="mask-type:luminance" maskUnits="userSpaceOnUse" x="-107" y="134" width="201" height="153">
<path d="M93.8579 134.564H-106.142V286.594H93.8579V134.564Z" fill="white"/>
</mask>
<g mask="url(#mask38_4223_11331)">
<path fill-rule="evenodd" clip-rule="evenodd" d="M93.8579 136.04C93.8579 135.225 93.1971 134.564 92.3819 134.564H61.3856C60.5704 134.564 59.9096 135.225 59.9096 136.04C59.9096 136.856 60.5704 137.516 61.3856 137.516H92.3819C93.1971 137.516 93.8579 136.856 93.8579 136.04Z" fill="#D1D1D1"/>
<path fill-rule="evenodd" clip-rule="evenodd" d="M90.9058 141.945C90.9058 141.334 90.4101 140.838 89.7988 140.838H63.9685C63.3571 140.838 62.8615 141.334 62.8615 141.945C62.8615 142.556 63.3571 143.052 63.9685 143.052H89.7988C90.4101 143.052 90.9058 142.556 90.9058 141.945Z" fill="#D1D1D1"/>
</g>
</g>
</g>
</g>
<mask id="mask39_4223_11331" style="mask-type:luminance" maskUnits="userSpaceOnUse" x="-55" y="152" width="201" height="153">
<path d="M145.888 152.276H-54.1123V304.306H145.888V152.276Z" fill="white"/>
</mask>
<g mask="url(#mask39_4223_11331)">
<mask id="mask40_4223_11331" style="mask-type:luminance" maskUnits="userSpaceOnUse" x="-55" y="152" width="201" height="153">
<path d="M145.888 152.276H-54.1123V304.306H145.888V152.276Z" fill="white"/>
</mask>
<g mask="url(#mask40_4223_11331)">
<mask id="mask41_4223_11331" style="mask-type:luminance" maskUnits="userSpaceOnUse" x="102" y="152" width="44" height="49">
<path d="M102.345 152.276V200.247H145.888V152.276H102.345Z" fill="white"/>
</mask>
<g mask="url(#mask41_4223_11331)">
<path d="M145.888 158.18C145.888 154.92 143.244 152.276 139.984 152.276H108.249C104.989 152.276 102.345 154.92 102.345 158.18V194.343C102.345 197.604 104.989 200.247 108.249 200.247H139.984C143.244 200.247 145.888 197.604 145.888 194.343V158.18Z" fill="#EFEFEF"/>
</g>
</g>
<mask id="mask42_4223_11331" style="mask-type:luminance" maskUnits="userSpaceOnUse" x="-102" y="152" width="201" height="153">
<path d="M98.6548 152.276H-101.345V304.306H98.6548V152.276Z" fill="white"/>
</mask>
<g mask="url(#mask42_4223_11331)">
<mask id="mask43_4223_11331" style="mask-type:luminance" maskUnits="userSpaceOnUse" x="55" y="152" width="44" height="49">
<path d="M55.1124 152.276V200.247H98.6548V152.276H55.1124Z" fill="white"/>
</mask>
<g mask="url(#mask43_4223_11331)">
<path d="M98.6548 158.18C98.6548 154.92 96.0114 152.276 92.7507 152.276H61.0164C57.7557 152.276 55.1124 154.92 55.1124 158.18V194.343C55.1124 197.604 57.7557 200.247 61.0164 200.247H92.7507C96.0114 200.247 98.6548 197.604 98.6548 194.343V158.18Z" fill="#EFEFEF"/>
</g>
</g>
</g>
</g>
</g>
</g>
</g>
</g>
<mask id="mask44_4223_11331" style="mask-type:luminance" maskUnits="userSpaceOnUse" x="-120" y="55" width="201" height="153">
<path d="M80.2046 55.5977H-119.795V207.627H80.2046V55.5977Z" fill="white"/>
</mask>
<g mask="url(#mask44_4223_11331)">
<mask id="mask45_4223_11331" style="mask-type:luminance" maskUnits="userSpaceOnUse" x="-75" y="55" width="250" height="250">
<path d="M67.3135 55.7363L-74.1079 197.158L33.3932 304.659L174.815 163.237L67.3135 55.7363Z" fill="white"/>
</mask>
<g mask="url(#mask45_4223_11331)">
<path d="M54.086 75.9714L59.9213 81.0247L62.3249 79.1134C64.0768 78.2012 68.3048 73.4519 68.3048 73.4519C68.3048 73.4519 70.7084 70.7877 70.4333 69.7597C70.3858 69.5818 70.316 69.4305 70.2332 69.3016C69.8378 68.6857 69.1446 68.5868 69.1446 68.5868C69.1446 68.5868 69.55 68.2972 68.8695 67.2113C68.189 66.1254 67.1175 66.5887 67.1175 66.5887C67.1175 66.5887 67.6967 66.0964 66.9438 65.1697C66.1908 64.243 65.2062 64.4458 65.2062 64.4458L65.2186 64.4328L68.2614 61.2458C68.2614 61.2458 70.284 59.1496 69.7725 58.2283C69.7282 58.1481 69.6646 58.077 69.579 58.0169C68.5075 57.264 65.2931 60.1598 65.2931 60.1598L61.9339 63.2005C61.5841 63.1924 61.2502 63.2278 60.951 63.2828C60.1852 63.4234 59.6462 63.6928 59.6462 63.6928C59.6462 63.6928 58.5312 63.939 56.7647 66.9796C55.5366 69.0936 55.3513 71.2707 55.3525 72.4013C55.353 72.9736 55.2263 73.539 54.9833 74.057L54.5306 75.023L54.086 75.9714Z" fill="#F3D49F"/>
<g opacity="0.55">
<path d="M67.717 59.6591L67.8674 59.8096C68.1519 60.094 68.6242 60.057 68.8589 59.7302C69.2125 59.2382 69.5987 58.5762 69.3691 58.2855C69.1411 57.9966 68.4392 58.2441 67.8811 58.5418C67.4651 58.7637 67.3835 59.3257 67.717 59.6591Z" fill="#E5E5E5"/>
</g>
<path d="M54.0852 75.971L59.9204 81.0243L62.324 79.113C64.0759 78.2008 68.304 73.4515 68.304 73.4515C68.304 73.4515 70.7075 70.7873 70.4324 69.7593C70.3849 69.5815 70.3151 69.43 70.2323 69.3012C69.768 70.126 67.8496 73.2786 64.018 76.4632C59.9438 79.8497 55.3013 75.7553 54.5297 75.0226L54.0852 75.971Z" fill="#DE8E04"/>
<path d="M64.1772 64.4575L65.2176 64.4301L68.2604 61.2431C68.2604 61.2431 70.2831 59.1469 69.7715 58.2256C69.415 59.0497 68.0828 61.5699 64.1772 64.4575Z" fill="#DE8E04"/>
<path d="M59.3139 65.9708L61.9347 63.2052C61.5849 63.1971 61.251 63.2324 60.9518 63.2874C60.889 64.0407 59.3139 65.9708 59.3139 65.9708Z" fill="#DE8E04"/>
<path d="M53.0865 75.935L41.4368 86.7586C41.4368 86.7586 43.1569 94.825 51.3088 95.8241C51.3088 95.8241 58.0591 87.888 59.6663 82.1975L53.0865 75.935Z" fill="#006073"/>
<path d="M53.713 77.6487C53.949 77.4128 53.949 77.0303 53.7132 76.7944C53.4772 76.5584 53.0947 76.5584 52.8587 76.7944C52.6228 77.0303 52.6228 77.4128 52.8588 77.6487C53.0947 77.8846 53.4772 77.8846 53.713 77.6487ZM51.0743 77.6512C52.2905 75.9428 53.8977 75.1754 53.8977 75.1754L61.0941 81.5897C60.8623 82.8059 59.0234 84.0947 59.0234 84.0947C56.1855 82.9942 51.0743 77.6512 51.0743 77.6512Z" fill="#EDDABA"/>
</g>
</g>
</g>
</g>
<defs>
<clipPath id="clip0_4223_11331">
<rect width="200" height="152.03" fill="white" transform="translate(0.5 0.985352)"/>
</clipPath>
</defs>
</svg>
