<svg width="16" height="16" viewBox="0 0 16 16" fill="none" xmlns="http://www.w3.org/2000/svg">
<path d="M5.33325 1.33301V3.33301" stroke="#6F6F6F" stroke-width="1.5" stroke-miterlimit="10" stroke-linecap="round" stroke-linejoin="round"/>
<path d="M10.6667 1.33301V3.33301" stroke="#6F6F6F" stroke-width="1.5" stroke-miterlimit="10" stroke-linecap="round" stroke-linejoin="round"/>
<path d="M2.33325 6.05957H13.6666" stroke="#6F6F6F" stroke-width="1.5" stroke-miterlimit="10" stroke-linecap="round" stroke-linejoin="round"/>
<path d="M12.8068 10.5129L10.4468 12.8729C10.3534 12.9662 10.2668 13.1395 10.2468 13.2662L10.1201 14.1662C10.0734 14.4929 10.3001 14.7195 10.6268 14.6729L11.5268 14.5462C11.6534 14.5262 11.8334 14.4395 11.9201 14.3462L14.2801 11.9862C14.6868 11.5795 14.8801 11.1062 14.2801 10.5062C13.6868 9.91288 13.2134 10.1062 12.8068 10.5129Z" stroke="#6F6F6F" stroke-width="1.5" stroke-miterlimit="10" stroke-linecap="round" stroke-linejoin="round"/>
<path d="M12.4668 10.8525C12.6668 11.5725 13.2268 12.1325 13.9468 12.3325" stroke="#6F6F6F" stroke-width="1.5" stroke-miterlimit="10" stroke-linecap="round" stroke-linejoin="round"/>
<path d="M8 14.6663H5.33333C3 14.6663 2 13.333 2 11.333V5.66634C2 3.66634 3 2.33301 5.33333 2.33301H10.6667C13 2.33301 14 3.66634 14 5.66634V7.99967" stroke="#6F6F6F" stroke-width="1.5" stroke-miterlimit="10" stroke-linecap="round" stroke-linejoin="round"/>
<path d="M7.99691 9.13314H8.0029" stroke="#6F6F6F" stroke-width="2" stroke-linecap="round" stroke-linejoin="round"/>
<path d="M5.52962 9.13314H5.53561" stroke="#6F6F6F" stroke-width="2" stroke-linecap="round" stroke-linejoin="round"/>
<path d="M5.52962 11.1331H5.53561" stroke="#6F6F6F" stroke-width="2" stroke-linecap="round" stroke-linejoin="round"/>
</svg>
