<svg width="16" height="16" viewBox="0 0 16 16" fill="none" xmlns="http://www.w3.org/2000/svg">
<path d="M4.5 9.25H7.5C8.36195 9.25 9.18836 9.59266 9.79785 10.2021C10.4073 10.8116 10.75 11.638 10.75 12.5V14.75H10.25V12.5C10.25 11.7707 9.96006 11.0714 9.44434 10.5557C8.92861 10.0399 8.22935 9.75 7.5 9.75H4.5C3.77065 9.75 3.07139 10.0399 2.55566 10.5557C2.03994 11.0714 1.75 11.7707 1.75 12.5V14.75H1.25V12.5C1.25 11.638 1.59266 10.8116 2.20215 10.2021C2.81164 9.59266 3.63805 9.25 4.5 9.25ZM14.3936 5.20508L12.2539 7.32227L12.0742 7.5L12.2539 7.67773L14.3936 9.79395L14.0352 10.1484L11.3555 7.5L14.0352 4.85059L14.3936 5.20508ZM6 1.25C6.86195 1.25 7.68836 1.59266 8.29785 2.20215C8.90734 2.81164 9.25 3.63805 9.25 4.5C9.25 5.14279 9.05926 5.7712 8.70215 6.30566C8.34509 6.84 7.83786 7.25695 7.24414 7.50293C6.65035 7.74888 5.99658 7.81284 5.36621 7.6875C4.73577 7.5621 4.15667 7.25237 3.70215 6.79785C3.24763 6.34333 2.9379 5.76423 2.8125 5.13379C2.68716 4.50342 2.75112 3.84965 2.99707 3.25586C3.24305 2.66214 3.66 2.15491 4.19434 1.79785C4.66198 1.48538 5.20157 1.30016 5.75977 1.25879L6 1.25ZM6 1.75C5.27065 1.75 4.57139 2.03994 4.05566 2.55566C3.53994 3.07139 3.25 3.77065 3.25 4.5C3.25 5.04384 3.41175 5.57514 3.71387 6.02734C4.016 6.47952 4.44485 6.83287 4.94727 7.04102C5.44965 7.24911 6.0028 7.30328 6.53613 7.19727C7.06958 7.09116 7.55974 6.82893 7.94434 6.44434C8.32893 6.05974 8.59116 5.56958 8.69727 5.03613C8.80328 4.5028 8.74911 3.94965 8.54102 3.44727C8.33287 2.94485 7.97952 2.516 7.52734 2.21387C7.07514 1.91175 6.54384 1.75 6 1.75Z" fill="#313131" stroke="#313131" stroke-width="0.5"/>
</svg>
