<svg width="16" height="16" viewBox="0 0 16 16" fill="none" xmlns="http://www.w3.org/2000/svg">
<path d="M10.5 6.79688L10.4971 6.7998L7.49902 3.80176L0.00390625 11.291V12.7002L2.19434 10.5088L7.50293 5.2002L10.5 8.19727L14.9941 3.71094H15.0039V5.99609H15.9961V2.00391H12.0039V2.99609H14.2852L14.292 3.00293L10.5029 6.7998M10.5 6.79688L10.5029 6.7998M10.5 6.79688L10.5029 6.7998M10.5 6.79688L13.1816 4.11523L10.5029 6.7998M14.9961 7.00391V15.9961H14.0039V7.00391H14.9961ZM12.9961 15.9961H12.0039V8.50195L12.9961 7.50977V15.9961ZM10.9961 15.9961H10.0039V9.50977L10.4971 10.0029L10.5 10L10.5029 10.0029L10.9961 9.50977V15.9961ZM6.99609 15.9961H6.00391V8.50195L6.99609 7.50977V15.9961ZM4.99609 15.9961H4.00391V10.502L4.99609 9.50977V15.9961ZM2.99609 15.9961H2.00391V12.502L2.99609 11.5098V15.9961ZM0.996094 15.9961H0.00390625V14.502L0.996094 13.5098V15.9961ZM8.99609 15.9883H8.00391V10.7002L8.99609 9.70996V15.9883ZM8.99609 8.50195V9.70703L8.00391 10.6992V7.50977L8.99609 8.50195Z" fill="#6F6F6F" stroke="#6F6F6F" stroke-width="0.0078125"/>
</svg>
