<svg width="16" height="16" viewBox="0 0 16 16" fill="none" xmlns="http://www.w3.org/2000/svg">
<path d="M11.0001 13.2384V14.0003M11.0001 13.2384C10.3253 13.2384 9.73081 12.9017 9.38208 12.3905M11.0001 13.2384C11.6749 13.2384 12.2693 12.9017 12.6181 12.3905M9.38208 12.3905L8.66701 12.8575M9.38208 12.3905C9.17588 12.0881 9.05561 11.7246 9.05561 11.3337C9.05561 10.9427 9.17581 10.5793 9.38201 10.277M12.6181 12.3905L13.3331 12.8575M12.6181 12.3905C12.8243 12.0881 12.9445 11.7246 12.9445 11.3337C12.9445 10.9427 12.8243 10.5793 12.6181 10.277M11.0001 9.42893C11.6749 9.42893 12.2695 9.76566 12.6181 10.277M11.0001 9.42893C10.3252 9.42893 9.73068 9.76566 9.38201 10.277M11.0001 9.42893V8.66699M12.6181 10.277L13.3334 9.80986M9.38201 10.277L8.66675 9.80986" stroke="#6F6F6F" stroke-width="1.5" stroke-linecap="round"/>
<path d="M2.66675 2H13.3334" stroke="#6F6F6F" stroke-width="1.5" stroke-linecap="round"/>
<path d="M2.66675 6H13.3334" stroke="#6F6F6F" stroke-width="1.5" stroke-linecap="round"/>
<path d="M2.66675 10H6.00008" stroke="#6F6F6F" stroke-width="1.5" stroke-linecap="round"/>
</svg>
