<svg width="16" height="16" viewBox="0 0 16 16" fill="none" xmlns="http://www.w3.org/2000/svg">
<path d="M1.33325 4L5.94193 6.61131C7.64099 7.574 8.35885 7.574 10.0579 6.61131L14.6666 4" stroke="#6F6F6F" stroke-width="1.5" stroke-linejoin="round"/>
<path d="M1.34377 8.98341C1.38735 11.0271 1.40914 12.0489 2.16323 12.8059C2.91731 13.5629 3.96681 13.5892 6.06581 13.6419C7.35945 13.6745 8.64039 13.6745 9.93405 13.6419C12.0331 13.5892 13.0825 13.5629 13.8367 12.8059C14.5907 12.0489 14.6125 11.0271 14.6561 8.98341C14.6701 8.32627 14.6701 7.67307 14.6561 7.01594C14.6125 4.97225 14.5907 3.9504 13.8367 3.19345C13.0825 2.4365 12.0331 2.41013 9.93405 2.35739C8.64039 2.32488 7.35945 2.32488 6.0658 2.35738C3.96681 2.41012 2.91731 2.43648 2.16322 3.19344C1.40913 3.9504 1.38735 4.97224 1.34376 7.01594C1.32975 7.67307 1.32975 8.32627 1.34377 8.98341Z" stroke="#6F6F6F" stroke-width="1.5" stroke-linejoin="round"/>
</svg>
