<svg width="16" height="16" viewBox="0 0 16 16" fill="none" xmlns="http://www.w3.org/2000/svg">
<path d="M10.3799 2.29199L13.708 5.62012V10.3799L10.3799 13.708H5.62012L2.29199 10.3799V5.62012L5.62012 2.29199H10.3799ZM8 10.292C8.11527 10.292 8.19843 10.3271 8.26855 10.3975C8.33917 10.4683 8.37465 10.552 8.375 10.667C8.37527 10.7814 8.3402 10.8649 8.26953 10.9355C8.19883 11.0062 8.11528 11.042 8 11.042H7.99902C7.88581 11.0425 7.80274 11.0068 7.73145 10.9355C7.66023 10.8643 7.62473 10.781 7.625 10.667C7.62535 10.552 7.66083 10.4683 7.73145 10.3975C7.80157 10.3271 7.88473 10.292 8 10.292ZM8.375 4.95801V8.375H7.625V4.95801H8.375ZM12.958 5.94629L12.873 5.86035L10.1396 3.12695L10.0537 3.04199H5.94629L5.86035 3.12695L3.12695 5.86035L3.04199 5.94629V10.0537L3.12695 10.1396L5.86035 12.873L5.94629 12.958H10.0537L10.1396 12.873L12.873 10.1396L12.958 10.0537V5.94629Z" fill="#313131" stroke="#313131" stroke-width="0.583333"/>
</svg>
