<svg width="16" height="16" viewBox="0 0 16 16" fill="none" xmlns="http://www.w3.org/2000/svg">
<path d="M12.667 2.33301C12.9443 2.33308 13.1737 2.42863 13.373 2.62793C13.5723 2.82726 13.6673 3.05631 13.667 3.33301V12.667C13.6669 12.9444 13.5718 13.1738 13.373 13.373C13.1744 13.5721 12.9449 13.6673 12.667 13.667H3.33301C3.05558 13.6669 2.82663 13.5717 2.62793 13.373C2.4291 13.1742 2.33334 12.9444 2.33301 12.666V3.33301C2.33308 3.0557 2.42881 2.82671 2.62793 2.62793C2.80257 2.45366 2.99994 2.35895 3.23242 2.33789L3.33398 2.33301H12.667ZM3 13H13V3H3V13ZM11 5V11H10.333V5H11ZM8.33301 9.66699V11H7.66699V9.66699H8.33301ZM5.66699 8.33301V11H5V8.33301H5.66699ZM8.33301 7V7.66699H7.66699V7H8.33301Z" fill="#313131" stroke="#6F6F6F" stroke-width="0.666667"/>
</svg>
