<svg width="16" height="16" viewBox="0 0 16 16" fill="none" xmlns="http://www.w3.org/2000/svg">
<path d="M12.9999 12.6674L12.2186 7.66667M2.33325 12.6674L3.43391 5.62271C3.75973 3.53734 5.55591 2 7.66659 2" stroke="#6F6F6F" stroke-width="1.5" stroke-linecap="round" stroke-linejoin="round"/>
<path d="M12.9999 12.667C12.9999 11.5624 10.6121 10.667 7.66659 10.667C4.72107 10.667 2.33325 11.5624 2.33325 12.667C2.33325 13.7716 4.72107 14.667 7.66659 14.667C10.6121 14.667 12.9999 13.7716 12.9999 12.667Z" stroke="#6F6F6F" stroke-width="1.5" stroke-linecap="round" stroke-linejoin="round"/>
<path d="M8.33333 12.667H7" stroke="#6F6F6F" stroke-width="1.5" stroke-linecap="round" stroke-linejoin="round"/>
<path d="M10 2.33301L12.6667 4.99967M13.6667 3.66634C13.6667 2.37767 12.622 1.33301 11.3333 1.33301C10.0447 1.33301 9 2.37767 9 3.66634C9 4.95501 10.0447 5.99967 11.3333 5.99967C12.622 5.99967 13.6667 4.95501 13.6667 3.66634Z" stroke="#6F6F6F" stroke-width="1.5" stroke-linecap="round" stroke-linejoin="round"/>
</svg>
