<svg width="16" height="16" viewBox="0 0 16 16" fill="none" xmlns="http://www.w3.org/2000/svg">
<mask id="path-1-inside-1_4882_1923" fill="white">
<path d="M1.33341 10.0003H2.66675V14.667H1.33341V10.0003ZM5.33342 6.66699H6.66675V14.667H5.33342V6.66699ZM9.33342 9.33366H10.6667V14.667H9.33342V9.33366ZM13.3334 6.66699H14.6667V14.667H13.3334V6.66699ZM12.0001 3.33366H12.6667V4.00033H12.0001V3.33366ZM11.3334 4.00033H12.0001V4.66699H11.3334V4.00033ZM9.33342 4.66699H10.6667V5.33366H9.33342V4.66699ZM9.33342 6.66699H10.6667V7.33366H9.33342V6.66699ZM8.66675 5.33366H9.33342V6.66699H8.66675V5.33366ZM10.6667 5.33366H11.3334V6.66699H10.6667V5.33366ZM8.00008 4.00033H8.66675V4.66699H8.00008V4.00033ZM7.33342 3.33366H8.00008V4.00033H7.33342V3.33366ZM5.33342 2.66699H6.66675V3.33366H5.33342V2.66699ZM5.33342 0.666992H6.66675V1.33366H5.33342V0.666992ZM6.66675 1.33366H7.33342V2.66699H6.66675V1.33366ZM4.66675 1.33366H5.33342V2.66699H4.66675V1.33366ZM13.3334 2.66699H14.6667V3.33366H13.3334V2.66699ZM12.6667 1.33366H13.3334V2.66699H12.6667V1.33366ZM13.3334 0.666992H14.6667V1.33366H13.3334V0.666992ZM14.6667 1.33366H15.3334V2.66699H14.6667V1.33366ZM4.00008 4.00033H4.66675V4.66699H4.00008V4.00033ZM3.33341 4.66699H4.00008V5.33366H3.33341V4.66699ZM2.66675 6.00033H3.33341V7.33366H2.66675V6.00033ZM0.666748 6.00033H1.33341V7.33366H0.666748V6.00033ZM1.33341 5.33366H2.66675V6.00033H1.33341V5.33366ZM1.33341 7.33366H2.66675V8.00033H1.33341V7.33366Z"/>
</mask>
<path d="M1.33341 10.0003H2.66675V14.667H1.33341V10.0003ZM5.33342 6.66699H6.66675V14.667H5.33342V6.66699ZM9.33342 9.33366H10.6667V14.667H9.33342V9.33366ZM13.3334 6.66699H14.6667V14.667H13.3334V6.66699ZM12.0001 3.33366H12.6667V4.00033H12.0001V3.33366ZM11.3334 4.00033H12.0001V4.66699H11.3334V4.00033ZM9.33342 4.66699H10.6667V5.33366H9.33342V4.66699ZM9.33342 6.66699H10.6667V7.33366H9.33342V6.66699ZM8.66675 5.33366H9.33342V6.66699H8.66675V5.33366ZM10.6667 5.33366H11.3334V6.66699H10.6667V5.33366ZM8.00008 4.00033H8.66675V4.66699H8.00008V4.00033ZM7.33342 3.33366H8.00008V4.00033H7.33342V3.33366ZM5.33342 2.66699H6.66675V3.33366H5.33342V2.66699ZM5.33342 0.666992H6.66675V1.33366H5.33342V0.666992ZM6.66675 1.33366H7.33342V2.66699H6.66675V1.33366ZM4.66675 1.33366H5.33342V2.66699H4.66675V1.33366ZM13.3334 2.66699H14.6667V3.33366H13.3334V2.66699ZM12.6667 1.33366H13.3334V2.66699H12.6667V1.33366ZM13.3334 0.666992H14.6667V1.33366H13.3334V0.666992ZM14.6667 1.33366H15.3334V2.66699H14.6667V1.33366ZM4.00008 4.00033H4.66675V4.66699H4.00008V4.00033ZM3.33341 4.66699H4.00008V5.33366H3.33341V4.66699ZM2.66675 6.00033H3.33341V7.33366H2.66675V6.00033ZM0.666748 6.00033H1.33341V7.33366H0.666748V6.00033ZM1.33341 5.33366H2.66675V6.00033H1.33341V5.33366ZM1.33341 7.33366H2.66675V8.00033H1.33341V7.33366Z" fill="#313131"/>
<path d="M1.33341 10.0003V9.33366H0.666748V10.0003H1.33341ZM2.66675 10.0003H3.33341V9.33366H2.66675V10.0003ZM2.66675 14.667V15.3337H3.33341V14.667H2.66675ZM1.33341 14.667H0.666748V15.3337H1.33341V14.667ZM5.33342 6.66699V6.00033H4.66675V6.66699H5.33342ZM6.66675 6.66699H7.33342V6.00033H6.66675V6.66699ZM6.66675 14.667V15.3337H7.33342V14.667H6.66675ZM5.33342 14.667H4.66675V15.3337H5.33342V14.667ZM9.33342 9.33366V8.66699H8.66675V9.33366H9.33342ZM10.6667 9.33366H11.3334V8.66699H10.6667V9.33366ZM10.6667 14.667V15.3337H11.3334V14.667H10.6667ZM9.33342 14.667H8.66675V15.3337H9.33342V14.667ZM13.3334 6.66699V6.00033H12.6667V6.66699H13.3334ZM14.6667 6.66699H15.3334V6.00033H14.6667V6.66699ZM14.6667 14.667V15.3337H15.3334V14.667H14.6667ZM13.3334 14.667H12.6667V15.3337H13.3334V14.667ZM12.0001 3.33366V2.66699H11.3334V3.33366H12.0001ZM12.6667 3.33366H13.3334V2.66699H12.6667V3.33366ZM12.6667 4.00033V4.66699H13.3334V4.00033H12.6667ZM11.3334 4.00033V3.33366H10.6667V4.00033H11.3334ZM12.0001 4.66699V5.33366H12.6667V4.66699H12.0001ZM11.3334 4.66699H10.6667V5.33366H11.3334V4.66699ZM9.33342 4.66699V4.00033H8.66675V4.66699H9.33342ZM10.6667 4.66699H11.3334V4.00033H10.6667V4.66699ZM10.6667 7.33366V8.00033H11.3334V7.33366H10.6667ZM9.33342 7.33366H8.66675V8.00033H9.33342V7.33366ZM8.66675 5.33366V4.66699H8.00008V5.33366H8.66675ZM8.66675 6.66699H8.00008V7.33366H8.66675V6.66699ZM11.3334 5.33366H12.0001V4.66699H11.3334V5.33366ZM11.3334 6.66699V7.33366H12.0001V6.66699H11.3334ZM8.66675 4.00033H9.33342V3.33366H8.66675V4.00033ZM8.66675 4.66699V5.33366H9.33342V4.66699H8.66675ZM8.00008 4.66699H7.33342V5.33366H8.00008V4.66699ZM7.33342 3.33366V2.66699H6.66675V3.33366H7.33342ZM8.00008 3.33366H8.66675V2.66699H8.00008V3.33366ZM7.33342 4.00033H6.66675V4.66699H7.33342V4.00033ZM6.66675 3.33366V4.00033H7.33342V3.33366H6.66675ZM5.33342 3.33366H4.66675V4.00033H5.33342V3.33366ZM5.33342 0.666992V0.000325501H4.66675V0.666992H5.33342ZM6.66675 0.666992H7.33342V0.000325501H6.66675V0.666992ZM7.33342 1.33366H8.00008V0.666992H7.33342V1.33366ZM7.33342 2.66699V3.33366H8.00008V2.66699H7.33342ZM4.66675 1.33366V0.666992H4.00008V1.33366H4.66675ZM4.66675 2.66699H4.00008V3.33366H4.66675V2.66699ZM14.6667 3.33366V4.00033H15.3334V3.33366H14.6667ZM13.3334 3.33366H12.6667V4.00033H13.3334V3.33366ZM12.6667 1.33366V0.666992H12.0001V1.33366H12.6667ZM12.6667 2.66699H12.0001V3.33366H12.6667V2.66699ZM13.3334 0.666992V0.000325501H12.6667V0.666992H13.3334ZM14.6667 0.666992H15.3334V0.000325501H14.6667V0.666992ZM15.3334 1.33366H16.0001V0.666992H15.3334V1.33366ZM15.3334 2.66699V3.33366H16.0001V2.66699H15.3334ZM4.00008 4.00033V3.33366H3.33341V4.00033H4.00008ZM4.66675 4.00033H5.33342V3.33366H4.66675V4.00033ZM4.66675 4.66699V5.33366H5.33342V4.66699H4.66675ZM3.33341 4.66699V4.00033H2.66675V4.66699H3.33341ZM4.00008 5.33366V6.00033H4.66675V5.33366H4.00008ZM3.33341 5.33366H2.66675V6.00033H3.33341V5.33366ZM3.33341 6.00033H4.00008V5.33366H3.33341V6.00033ZM3.33341 7.33366V8.00033H4.00008V7.33366H3.33341ZM0.666748 6.00033V5.33366H8.13603e-05V6.00033H0.666748ZM0.666748 7.33366H8.13603e-05V8.00033H0.666748V7.33366ZM1.33341 5.33366V4.66699H0.666748V5.33366H1.33341ZM2.66675 5.33366H3.33341V4.66699H2.66675V5.33366ZM2.66675 8.00033V8.66699H3.33341V8.00033H2.66675ZM1.33341 8.00033H0.666748V8.66699H1.33341V8.00033ZM1.33341 10.0003V10.667H2.66675V10.0003V9.33366H1.33341V10.0003ZM2.66675 10.0003H2.00008V14.667H2.66675H3.33341V10.0003H2.66675ZM2.66675 14.667V14.0003H1.33341V14.667V15.3337H2.66675V14.667ZM1.33341 14.667H2.00008V10.0003H1.33341H0.666748V14.667H1.33341ZM5.33342 6.66699V7.33366H6.66675V6.66699V6.00033H5.33342V6.66699ZM6.66675 6.66699H6.00008V14.667H6.66675H7.33342V6.66699H6.66675ZM6.66675 14.667V14.0003H5.33342V14.667V15.3337H6.66675V14.667ZM5.33342 14.667H6.00008V6.66699H5.33342H4.66675V14.667H5.33342ZM9.33342 9.33366V10.0003H10.6667V9.33366V8.66699H9.33342V9.33366ZM10.6667 9.33366H10.0001V14.667H10.6667H11.3334V9.33366H10.6667ZM10.6667 14.667V14.0003H9.33342V14.667V15.3337H10.6667V14.667ZM9.33342 14.667H10.0001V9.33366H9.33342H8.66675V14.667H9.33342ZM13.3334 6.66699V7.33366H14.6667V6.66699V6.00033H13.3334V6.66699ZM14.6667 6.66699H14.0001V14.667H14.6667H15.3334V6.66699H14.6667ZM14.6667 14.667V14.0003H13.3334V14.667V15.3337H14.6667V14.667ZM13.3334 14.667H14.0001V6.66699H13.3334H12.6667V14.667H13.3334ZM12.0001 3.33366V4.00033H12.6667V3.33366V2.66699H12.0001V3.33366ZM12.6667 3.33366H12.0001V4.00033H12.6667H13.3334V3.33366H12.6667ZM12.6667 4.00033V3.33366H12.0001V4.00033V4.66699H12.6667V4.00033ZM12.0001 4.00033H12.6667V3.33366H12.0001H11.3334V4.00033H12.0001ZM11.3334 4.00033V4.66699H12.0001V4.00033V3.33366H11.3334V4.00033ZM12.0001 4.00033H11.3334V4.66699H12.0001H12.6667V4.00033H12.0001ZM12.0001 4.66699V4.00033H11.3334V4.66699V5.33366H12.0001V4.66699ZM11.3334 4.66699H12.0001V4.00033H11.3334H10.6667V4.66699H11.3334ZM9.33342 4.66699V5.33366H10.6667V4.66699V4.00033H9.33342V4.66699ZM10.6667 4.66699H10.0001V5.33366H10.6667H11.3334V4.66699H10.6667ZM10.6667 5.33366V4.66699H9.33342V5.33366V6.00033H10.6667V5.33366ZM9.33342 5.33366H10.0001V4.66699H9.33342H8.66675V5.33366H9.33342ZM9.33342 6.66699V7.33366H10.6667V6.66699V6.00033H9.33342V6.66699ZM10.6667 6.66699H10.0001V7.33366H10.6667H11.3334V6.66699H10.6667ZM10.6667 7.33366V6.66699H9.33342V7.33366V8.00033H10.6667V7.33366ZM9.33342 7.33366H10.0001V6.66699H9.33342H8.66675V7.33366H9.33342ZM8.66675 5.33366V6.00033H9.33342V5.33366V4.66699H8.66675V5.33366ZM9.33342 5.33366H8.66675V6.66699H9.33342H10.0001V5.33366H9.33342ZM9.33342 6.66699V6.00033H8.66675V6.66699V7.33366H9.33342V6.66699ZM8.66675 6.66699H9.33342V5.33366H8.66675H8.00008V6.66699H8.66675ZM10.6667 5.33366V6.00033H11.3334V5.33366V4.66699H10.6667V5.33366ZM11.3334 5.33366H10.6667V6.66699H11.3334H12.0001V5.33366H11.3334ZM11.3334 6.66699V6.00033H10.6667V6.66699V7.33366H11.3334V6.66699ZM10.6667 6.66699H11.3334V5.33366H10.6667H10.0001V6.66699H10.6667ZM8.00008 4.00033V4.66699H8.66675V4.00033V3.33366H8.00008V4.00033ZM8.66675 4.00033H8.00008V4.66699H8.66675H9.33342V4.00033H8.66675ZM8.66675 4.66699V4.00033H8.00008V4.66699V5.33366H8.66675V4.66699ZM8.00008 4.66699H8.66675V4.00033H8.00008H7.33342V4.66699H8.00008ZM7.33342 3.33366V4.00033H8.00008V3.33366V2.66699H7.33342V3.33366ZM8.00008 3.33366H7.33342V4.00033H8.00008H8.66675V3.33366H8.00008ZM8.00008 4.00033V3.33366H7.33342V4.00033V4.66699H8.00008V4.00033ZM7.33342 4.00033H8.00008V3.33366H7.33342H6.66675V4.00033H7.33342ZM5.33342 2.66699V3.33366H6.66675V2.66699V2.00033H5.33342V2.66699ZM6.66675 2.66699H6.00008V3.33366H6.66675H7.33342V2.66699H6.66675ZM6.66675 3.33366V2.66699H5.33342V3.33366V4.00033H6.66675V3.33366ZM5.33342 3.33366H6.00008V2.66699H5.33342H4.66675V3.33366H5.33342ZM5.33342 0.666992V1.33366H6.66675V0.666992V0.000325501H5.33342V0.666992ZM6.66675 0.666992H6.00008V1.33366H6.66675H7.33342V0.666992H6.66675ZM6.66675 1.33366V0.666992H5.33342V1.33366V2.00033H6.66675V1.33366ZM5.33342 1.33366H6.00008V0.666992H5.33342H4.66675V1.33366H5.33342ZM6.66675 1.33366V2.00033H7.33342V1.33366V0.666992H6.66675V1.33366ZM7.33342 1.33366H6.66675V2.66699H7.33342H8.00008V1.33366H7.33342ZM7.33342 2.66699V2.00033H6.66675V2.66699V3.33366H7.33342V2.66699ZM6.66675 2.66699H7.33342V1.33366H6.66675H6.00008V2.66699H6.66675ZM4.66675 1.33366V2.00033H5.33342V1.33366V0.666992H4.66675V1.33366ZM5.33342 1.33366H4.66675V2.66699H5.33342H6.00008V1.33366H5.33342ZM5.33342 2.66699V2.00033H4.66675V2.66699V3.33366H5.33342V2.66699ZM4.66675 2.66699H5.33342V1.33366H4.66675H4.00008V2.66699H4.66675ZM13.3334 2.66699V3.33366H14.6667V2.66699V2.00033H13.3334V2.66699ZM14.6667 2.66699H14.0001V3.33366H14.6667H15.3334V2.66699H14.6667ZM14.6667 3.33366V2.66699H13.3334V3.33366V4.00033H14.6667V3.33366ZM13.3334 3.33366H14.0001V2.66699H13.3334H12.6667V3.33366H13.3334ZM12.6667 1.33366V2.00033H13.3334V1.33366V0.666992H12.6667V1.33366ZM13.3334 1.33366H12.6667V2.66699H13.3334H14.0001V1.33366H13.3334ZM13.3334 2.66699V2.00033H12.6667V2.66699V3.33366H13.3334V2.66699ZM12.6667 2.66699H13.3334V1.33366H12.6667H12.0001V2.66699H12.6667ZM13.3334 0.666992V1.33366H14.6667V0.666992V0.000325501H13.3334V0.666992ZM14.6667 0.666992H14.0001V1.33366H14.6667H15.3334V0.666992H14.6667ZM14.6667 1.33366V0.666992H13.3334V1.33366V2.00033H14.6667V1.33366ZM13.3334 1.33366H14.0001V0.666992H13.3334H12.6667V1.33366H13.3334ZM14.6667 1.33366V2.00033H15.3334V1.33366V0.666992H14.6667V1.33366ZM15.3334 1.33366H14.6667V2.66699H15.3334H16.0001V1.33366H15.3334ZM15.3334 2.66699V2.00033H14.6667V2.66699V3.33366H15.3334V2.66699ZM14.6667 2.66699H15.3334V1.33366H14.6667H14.0001V2.66699H14.6667ZM4.00008 4.00033V4.66699H4.66675V4.00033V3.33366H4.00008V4.00033ZM4.66675 4.00033H4.00008V4.66699H4.66675H5.33342V4.00033H4.66675ZM4.66675 4.66699V4.00033H4.00008V4.66699V5.33366H4.66675V4.66699ZM4.00008 4.66699H4.66675V4.00033H4.00008H3.33341V4.66699H4.00008ZM3.33341 4.66699V5.33366H4.00008V4.66699V4.00033H3.33341V4.66699ZM4.00008 4.66699H3.33341V5.33366H4.00008H4.66675V4.66699H4.00008ZM4.00008 5.33366V4.66699H3.33341V5.33366V6.00033H4.00008V5.33366ZM3.33341 5.33366H4.00008V4.66699H3.33341H2.66675V5.33366H3.33341ZM2.66675 6.00033V6.66699H3.33341V6.00033V5.33366H2.66675V6.00033ZM3.33341 6.00033H2.66675V7.33366H3.33341H4.00008V6.00033H3.33341ZM3.33341 7.33366V6.66699H2.66675V7.33366V8.00033H3.33341V7.33366ZM2.66675 7.33366H3.33341V6.00033H2.66675H2.00008V7.33366H2.66675ZM0.666748 6.00033V6.66699H1.33341V6.00033V5.33366H0.666748V6.00033ZM1.33341 6.00033H0.666748V7.33366H1.33341H2.00008V6.00033H1.33341ZM1.33341 7.33366V6.66699H0.666748V7.33366V8.00033H1.33341V7.33366ZM0.666748 7.33366H1.33341V6.00033H0.666748H8.13603e-05V7.33366H0.666748ZM1.33341 5.33366V6.00033H2.66675V5.33366V4.66699H1.33341V5.33366ZM2.66675 5.33366H2.00008V6.00033H2.66675H3.33341V5.33366H2.66675ZM2.66675 6.00033V5.33366H1.33341V6.00033V6.66699H2.66675V6.00033ZM1.33341 6.00033H2.00008V5.33366H1.33341H0.666748V6.00033H1.33341ZM1.33341 7.33366V8.00033H2.66675V7.33366V6.66699H1.33341V7.33366ZM2.66675 7.33366H2.00008V8.00033H2.66675H3.33341V7.33366H2.66675ZM2.66675 8.00033V7.33366H1.33341V8.00033V8.66699H2.66675V8.00033ZM1.33341 8.00033H2.00008V7.33366H1.33341H0.666748V8.00033H1.33341Z" fill="#6F6F6F" mask="url(#path-1-inside-1_4882_1923)"/>
</svg>
