<svg width="16" height="16" viewBox="0 0 16 16" fill="none" xmlns="http://www.w3.org/2000/svg">
<path d="M13.0002 8.33464C13.0002 7.41464 13.7468 6.66797 14.6668 6.66797V6.0013C14.6668 3.33464 14.0002 2.66797 11.3335 2.66797H4.66683C2.00016 2.66797 1.3335 3.33464 1.3335 6.0013V6.33464C2.2535 6.33464 3.00016 7.0813 3.00016 8.0013C3.00016 8.9213 2.2535 9.66797 1.3335 9.66797V10.0013C1.3335 12.668 2.00016 13.3346 4.66683 13.3346H11.3335C14.0002 13.3346 14.6668 12.668 14.6668 10.0013C13.7468 10.0013 13.0002 9.25464 13.0002 8.33464Z" stroke="#313131" stroke-width="1.5" stroke-linecap="round" stroke-linejoin="round"/>
<path d="M6.6665 2.66797L6.6665 13.3346" stroke="#313131" stroke-width="1.5" stroke-linecap="round" stroke-linejoin="round" stroke-dasharray="5 5"/>
</svg>
