<svg width="16" height="16" viewBox="0 0 16 16" fill="none" xmlns="http://www.w3.org/2000/svg">
<path d="M8.66659 4.66667C8.66659 6.13943 7.47265 7.33333 5.99992 7.33333C4.52716 7.33333 3.33325 6.13943 3.33325 4.66667C3.33325 3.19391 4.52716 2 5.99992 2C7.47265 2 8.66659 3.19391 8.66659 4.66667Z" stroke="#6F6F6F" stroke-width="1.5"/>
<path d="M10 7.33333C11.4727 7.33333 12.6667 6.13943 12.6667 4.66667C12.6667 3.19391 11.4727 2 10 2" stroke="#6F6F6F" stroke-width="1.5" stroke-linecap="round" stroke-linejoin="round"/>
<path d="M7.33325 9.33301H4.66659C2.82564 9.33301 1.33325 10.8254 1.33325 12.6663C1.33325 13.4027 1.93021 13.9997 2.66659 13.9997H9.33325C10.0697 13.9997 10.6666 13.4027 10.6666 12.6663C10.6666 10.8254 9.17419 9.33301 7.33325 9.33301Z" stroke="#6F6F6F" stroke-width="1.5" stroke-linejoin="round"/>
<path d="M11.3333 9.33301C13.1742 9.33301 14.6666 10.8254 14.6666 12.6663C14.6666 13.4027 14.0697 13.9997 13.3333 13.9997H12.3333" stroke="#6F6F6F" stroke-width="1.5" stroke-linecap="round" stroke-linejoin="round"/>
</svg>
